<svg xmlns="http://www.w3.org/2000/svg" xmlns:xlink="http://www.w3.org/1999/xlink" width="500" zoomAndPan="magnify" viewBox="0 0 375 374.999991" height="500" preserveAspectRatio="xMidYMid meet" version="1.0"><path fill="#051e0e" d="M 366.007812 187.5 C 366.007812 190.421875 365.933594 193.339844 365.792969 196.257812 C 365.648438 199.175781 365.433594 202.089844 365.148438 204.996094 C 364.859375 207.902344 364.503906 210.800781 364.074219 213.691406 C 363.644531 216.582031 363.148438 219.460938 362.578125 222.324219 C 362.007812 225.191406 361.367188 228.039062 360.65625 230.875 C 359.949219 233.707031 359.167969 236.523438 358.320312 239.316406 C 357.472656 242.113281 356.554688 244.886719 355.574219 247.636719 C 354.589844 250.386719 353.535156 253.113281 352.417969 255.8125 C 351.300781 258.511719 350.117188 261.179688 348.867188 263.820312 C 347.621094 266.460938 346.304688 269.070312 344.929688 271.648438 C 343.550781 274.222656 342.113281 276.765625 340.609375 279.269531 C 339.109375 281.777344 337.546875 284.246094 335.921875 286.671875 C 334.300781 289.101562 332.617188 291.488281 330.878906 293.835938 C 329.136719 296.183594 327.339844 298.484375 325.488281 300.742188 C 323.632812 303.003906 321.726562 305.214844 319.765625 307.378906 C 317.804688 309.542969 315.789062 311.65625 313.722656 313.722656 C 311.65625 315.789062 309.542969 317.804688 307.378906 319.765625 C 305.214844 321.726562 303.003906 323.632812 300.742188 325.488281 C 298.484375 327.339844 296.183594 329.136719 293.835938 330.878906 C 291.488281 332.617188 289.101562 334.300781 286.671875 335.921875 C 284.246094 337.546875 281.777344 339.109375 279.269531 340.609375 C 276.765625 342.113281 274.222656 343.550781 271.648438 344.929688 C 269.070312 346.304688 266.460938 347.621094 263.820312 348.867188 C 261.179688 350.117188 258.511719 351.300781 255.8125 352.417969 C 253.113281 353.535156 250.386719 354.589844 247.636719 355.574219 C 244.886719 356.554688 242.113281 357.472656 239.316406 358.320312 C 236.523438 359.167969 233.707031 359.949219 230.875 360.65625 C 228.039062 361.367188 225.191406 362.007812 222.324219 362.578125 C 219.460938 363.148438 216.582031 363.644531 213.691406 364.074219 C 210.800781 364.503906 207.902344 364.859375 204.996094 365.148438 C 202.089844 365.433594 199.175781 365.648438 196.257812 365.792969 C 193.339844 365.933594 190.421875 366.007812 187.5 366.007812 C 184.578125 366.007812 181.660156 365.933594 178.742188 365.792969 C 175.824219 365.648438 172.910156 365.433594 170.003906 365.148438 C 167.097656 364.859375 164.199219 364.503906 161.308594 364.074219 C 158.417969 363.644531 155.539062 363.148438 152.675781 362.578125 C 149.808594 362.007812 146.960938 361.367188 144.125 360.65625 C 141.292969 359.949219 138.476562 359.167969 135.683594 358.320312 C 132.886719 357.472656 130.113281 356.554688 127.363281 355.574219 C 124.613281 354.589844 121.886719 353.535156 119.1875 352.417969 C 116.488281 351.300781 113.820312 350.117188 111.179688 348.867188 C 108.539062 347.621094 105.929688 346.304688 103.351562 344.929688 C 100.777344 343.550781 98.234375 342.113281 95.730469 340.609375 C 93.222656 339.109375 90.753906 337.546875 88.328125 335.921875 C 85.898438 334.300781 83.511719 332.617188 81.164062 330.878906 C 78.816406 329.136719 76.515625 327.339844 74.257812 325.488281 C 71.996094 323.632812 69.785156 321.726562 67.621094 319.765625 C 65.457031 317.804688 63.34375 315.789062 61.277344 313.722656 C 59.210938 311.65625 57.195312 309.542969 55.234375 307.378906 C 53.273438 305.214844 51.367188 303.003906 49.511719 300.742188 C 47.660156 298.484375 45.863281 296.183594 44.121094 293.835938 C 42.382812 291.488281 40.699219 289.101562 39.078125 286.671875 C 37.453125 284.246094 35.890625 281.777344 34.390625 279.269531 C 32.886719 276.765625 31.449219 274.222656 30.070312 271.648438 C 28.695312 269.070312 27.378906 266.460938 26.132812 263.820312 C 24.882812 261.179688 23.699219 258.511719 22.582031 255.8125 C 21.460938 253.113281 20.410156 250.386719 19.425781 247.636719 C 18.445312 244.886719 17.527344 242.113281 16.679688 239.316406 C 15.832031 236.523438 15.050781 233.707031 14.34375 230.875 C 13.632812 228.039062 12.992188 225.191406 12.421875 222.324219 C 11.851562 219.460938 11.355469 216.582031 10.925781 213.691406 C 10.496094 210.800781 10.140625 207.902344 9.851562 204.996094 C 9.566406 202.089844 9.351562 199.175781 9.207031 196.257812 C 9.066406 193.339844 8.992188 190.421875 8.992188 187.5 C 8.992188 184.578125 9.066406 181.660156 9.207031 178.742188 C 9.351562 175.824219 9.566406 172.910156 9.851562 170.003906 C 10.140625 167.097656 10.496094 164.199219 10.925781 161.308594 C 11.355469 158.417969 11.851562 155.539062 12.421875 152.675781 C 12.992188 149.808594 13.632812 146.960938 14.34375 144.125 C 15.050781 141.292969 15.832031 138.476562 16.679688 135.683594 C 17.527344 132.886719 18.445312 130.113281 19.425781 127.363281 C 20.410156 124.613281 21.460938 121.886719 22.582031 119.1875 C 23.699219 116.488281 24.882812 113.820312 26.132812 111.179688 C 27.378906 108.539062 28.695312 105.929688 30.070312 103.351562 C 31.449219 100.777344 32.886719 98.234375 34.390625 95.730469 C 35.890625 93.222656 37.453125 90.753906 39.078125 88.328125 C 40.699219 85.898438 42.382812 83.511719 44.121094 81.164062 C 45.863281 78.816406 47.660156 76.515625 49.511719 74.257812 C 51.367188 71.996094 53.273438 69.785156 55.234375 67.621094 C 57.195312 65.457031 59.210938 63.34375 61.277344 61.277344 C 63.34375 59.210938 65.457031 57.195312 67.621094 55.234375 C 69.785156 53.273438 71.996094 51.367188 74.257812 49.511719 C 76.515625 47.660156 78.816406 45.863281 81.164062 44.121094 C 83.511719 42.382812 85.898438 40.699219 88.328125 39.078125 C 90.753906 37.453125 93.222656 35.890625 95.730469 34.390625 C 98.234375 32.886719 100.777344 31.449219 103.351562 30.070312 C 105.929688 28.695312 108.539062 27.378906 111.179688 26.132812 C 113.820312 24.882812 116.488281 23.699219 119.1875 22.582031 C 121.886719 21.460938 124.613281 20.410156 127.363281 19.425781 C 130.113281 18.445312 132.886719 17.527344 135.683594 16.679688 C 138.476562 15.832031 141.292969 15.050781 144.125 14.34375 C 146.960938 13.632812 149.808594 12.992188 152.675781 12.421875 C 155.539062 11.851562 158.417969 11.355469 161.308594 10.925781 C 164.199219 10.496094 167.097656 10.140625 170.003906 9.851562 C 172.910156 9.566406 175.824219 9.351562 178.742188 9.207031 C 181.660156 9.066406 184.578125 8.992188 187.5 8.992188 C 190.421875 8.992188 193.339844 9.066406 196.257812 9.207031 C 199.175781 9.351562 202.089844 9.566406 204.996094 9.851562 C 207.902344 10.140625 210.800781 10.496094 213.691406 10.925781 C 216.582031 11.355469 219.460938 11.851562 222.324219 12.421875 C 225.191406 12.992188 228.039062 13.632812 230.875 14.34375 C 233.707031 15.050781 236.523438 15.832031 239.316406 16.679688 C 242.113281 17.527344 244.886719 18.445312 247.636719 19.425781 C 250.386719 20.410156 253.113281 21.460938 255.8125 22.582031 C 258.511719 23.699219 261.179688 24.882812 263.820312 26.132812 C 266.460938 27.378906 269.070312 28.695312 271.648438 30.070312 C 274.222656 31.449219 276.765625 32.886719 279.269531 34.390625 C 281.777344 35.890625 284.246094 37.453125 286.671875 39.078125 C 289.101562 40.699219 291.488281 42.382812 293.835938 44.121094 C 296.183594 45.863281 298.484375 47.660156 300.742188 49.511719 C 303.003906 51.367188 305.214844 53.273438 307.378906 55.234375 C 309.542969 57.195312 311.65625 59.210938 313.722656 61.277344 C 315.789062 63.34375 317.804688 65.457031 319.765625 67.621094 C 321.726562 69.785156 323.632812 71.996094 325.488281 74.257812 C 327.339844 76.515625 329.136719 78.816406 330.878906 81.164062 C 332.617188 83.511719 334.300781 85.898438 335.921875 88.328125 C 337.546875 90.753906 339.109375 93.222656 340.609375 95.730469 C 342.113281 98.234375 343.550781 100.777344 344.929688 103.351562 C 346.304688 105.929688 347.621094 108.539062 348.867188 111.179688 C 350.117188 113.820312 351.300781 116.488281 352.417969 119.1875 C 353.535156 121.886719 354.589844 124.613281 355.574219 127.363281 C 356.554688 130.113281 357.472656 132.886719 358.320312 135.683594 C 359.167969 138.476562 359.949219 141.292969 360.65625 144.125 C 361.367188 146.960938 362.007812 149.808594 362.578125 152.675781 C 363.148438 155.539062 363.644531 158.417969 364.074219 161.308594 C 364.503906 164.199219 364.859375 167.097656 365.148438 170.003906 C 365.433594 172.910156 365.648438 175.824219 365.792969 178.742188 C 365.933594 181.660156 366.007812 184.578125 366.007812 187.5 Z M 366.007812 187.5 " fill-opacity="1" fill-rule="nonzero"/><path fill="#85ffb6" d="M 259.171875 257.375 L 235.339844 131.386719 C 234.621094 127.699219 232.375 124.371094 229.046875 122.210938 L 200.359375 103.507812 L 175.808594 87.5 C 170.773438 84.171875 163.488281 85.613281 159.980469 90.46875 L 142.984375 114.296875 L 123.113281 142.175781 C 120.773438 145.414062 119.875 149.28125 120.59375 153.058594 L 144.425781 279.046875 C 145.773438 286.242188 153.417969 290.828125 161.421875 289.386719 L 247.03125 273.203125 C 255.125 271.582031 260.523438 264.566406 259.171875 257.375 Z M 169.785156 98.652344 C 172.03125 98.203125 174.191406 99.730469 174.550781 101.886719 C 175 104.136719 173.472656 106.296875 171.3125 106.65625 C 169.066406 107.105469 166.90625 105.574219 166.546875 103.417969 C 166.097656 101.257812 167.535156 99.101562 169.785156 98.652344 Z M 217.355469 214.75 C 217.175781 217.265625 216.546875 219.605469 215.558594 221.941406 C 214.207031 225 212.230469 227.789062 209.800781 230.125 C 207.195312 232.554688 204.316406 234.441406 200.988281 235.792969 C 200.539062 235.972656 200.359375 236.152344 200.449219 236.601562 C 201.078125 239.660156 201.617188 242.714844 202.25 245.773438 C 202.339844 246.3125 202.429688 246.851562 202.609375 247.390625 C 202.789062 248.382812 202.25 249.640625 201.167969 249.820312 C 198.113281 250.449219 194.964844 251.078125 191.90625 251.527344 C 190.738281 251.707031 189.839844 250.808594 189.660156 249.640625 C 189.027344 246.3125 188.488281 243.074219 187.859375 239.75 C 187.769531 239.296875 187.589844 239.117188 187.050781 239.117188 C 185.433594 239.296875 183.8125 239.386719 182.195312 239.476562 C 180.664062 239.476562 179.136719 239.476562 177.609375 239.296875 C 175.71875 239.117188 173.832031 238.847656 172.03125 238.398438 C 170.324219 238.039062 168.613281 237.410156 166.996094 236.78125 C 165.917969 236.332031 165.558594 235.160156 165.828125 233.632812 C 166.367188 230.933594 166.816406 228.328125 167.265625 225.628906 C 167.535156 223.832031 169.066406 223.113281 170.773438 223.5625 C 173.113281 224.28125 175.539062 225 177.96875 225.359375 C 180.484375 225.71875 183.09375 225.898438 185.613281 225.71875 C 190.019531 225.449219 194.246094 224.371094 197.75 221.492188 C 200.269531 219.425781 201.617188 216.726562 201.347656 213.488281 C 201.078125 210.160156 199.371094 207.554688 196.492188 205.753906 C 194.066406 204.226562 191.367188 203.328125 188.578125 202.699219 C 184.710938 201.796875 180.753906 201.078125 176.886719 200.089844 C 172.121094 198.921875 167.625 197.121094 163.847656 194.066406 C 160.339844 191.1875 158.09375 187.5 157.105469 183.003906 C 156.023438 177.878906 156.476562 172.839844 158.902344 168.164062 C 160.703125 164.75 163.128906 161.871094 166.367188 159.710938 C 168.433594 158.273438 170.683594 157.105469 172.933594 155.753906 C 172.300781 152.339844 171.492188 148.742188 170.953125 145.144531 C 170.683594 143.613281 171.042969 142.535156 173.5625 142.085938 C 176.078125 141.636719 178.507812 141.1875 181.023438 140.648438 C 182.195312 140.46875 183.363281 141.1875 183.632812 142.445312 C 184.351562 145.863281 184.890625 149.191406 185.523438 152.519531 L 189.75 152.519531 C 191.277344 152.519531 192.894531 152.429688 194.425781 152.519531 C 196.492188 152.789062 198.472656 153.148438 200.539062 153.597656 C 201.257812 153.777344 201.976562 153.957031 202.699219 154.226562 C 203.957031 154.675781 204.40625 155.574219 204.136719 157.105469 L 202.519531 165.738281 C 202.160156 167.445312 200.988281 168.074219 199.28125 167.535156 C 196.671875 166.816406 194.066406 166.1875 191.277344 166.007812 C 186.511719 165.738281 181.835938 166.277344 177.519531 168.433594 C 174.550781 169.875 172.660156 172.300781 172.480469 175.628906 C 172.300781 178.867188 173.742188 181.386719 176.617188 183.003906 C 179.585938 184.710938 182.824219 185.523438 186.0625 186.242188 C 190.738281 187.320312 195.59375 187.949219 200.089844 189.660156 C 204.316406 191.1875 208.183594 193.253906 211.332031 196.582031 C 214.207031 199.640625 215.917969 203.328125 216.816406 207.375 C 217.355469 209.980469 217.445312 212.410156 217.355469 214.75 Z M 187.5 375 C 84.082031 375 0 290.917969 0 187.5 C 0 84.082031 84.082031 0 187.5 0 C 290.917969 0 375 84.082031 375 187.5 C 375 290.917969 290.917969 375 187.5 375 Z M 187.5 17.984375 C 94.066406 17.984375 17.984375 94.066406 17.984375 187.5 C 17.984375 280.933594 94.066406 357.015625 187.5 357.015625 C 280.933594 357.015625 357.015625 280.933594 357.015625 187.5 C 357.015625 94.066406 280.933594 17.984375 187.5 17.984375 Z M 187.5 17.984375 " fill-opacity="1" fill-rule="nonzero"/></svg>