<svg xmlns="http://www.w3.org/2000/svg" xmlns:xlink="http://www.w3.org/1999/xlink" width="500" zoomAndPan="magnify" viewBox="0 0 375 374.999991" height="500" preserveAspectRatio="xMidYMid meet" version="1.0"><defs><g/></defs><path fill="#004aad" d="M 195.785156 124.332031 C 198.097656 124.644531 202.613281 124.191406 209.332031 122.96875 C 215.351562 121.84375 220.230469 121.300781 223.992188 121.351562 C 227.738281 121.390625 231.289062 122.351562 234.628906 124.246094 C 237.976562 126.148438 240.671875 129.023438 242.707031 132.828125 C 245.386719 137.824219 246.175781 143.195312 245.085938 148.917969 C 244.605469 151.464844 243.59375 153.898438 242.035156 156.226562 C 240.621094 158.355469 238.746094 160.394531 236.429688 162.335938 C 236.21875 162.519531 236.011719 162.6875 235.792969 162.867188 L 240.769531 172.15625 L 227.050781 179.496094 L 222.101562 170.253906 C 221.765625 170.359375 221.425781 170.472656 221.089844 170.570312 C 211.386719 173.445312 202.828125 171.285156 195.398438 164.082031 L 205.464844 152.632812 L 205.707031 152.347656 C 208.472656 154.75 211.15625 156.3125 213.75 157.035156 C 216.675781 157.378906 219.816406 156.652344 223.179688 154.847656 C 224.71875 154.023438 226.007812 153.136719 227.03125 152.195312 L 227.035156 152.195312 C 228.351562 150.984375 229.246094 149.6875 229.699219 148.289062 C 230.5 145.800781 230.296875 143.441406 229.09375 141.191406 C 227.84375 138.851562 226.0625 137.523438 223.769531 137.210938 C 221.453125 136.898438 216.9375 137.351562 210.222656 138.566406 C 204.203125 139.699219 199.316406 140.242188 195.558594 140.191406 C 191.8125 140.15625 188.265625 139.191406 184.917969 137.296875 C 181.578125 135.394531 178.878906 132.527344 176.839844 128.714844 C 174.167969 123.71875 173.371094 118.351562 174.460938 112.621094 C 174.945312 110.078125 175.960938 107.644531 177.511719 105.316406 C 178.933594 103.183594 180.804688 101.148438 183.125 99.203125 C 183.328125 99.023438 183.542969 98.851562 183.761719 98.675781 L 178.785156 89.386719 L 192.5 82.042969 L 197.449219 91.289062 C 197.789062 91.179688 198.125 91.066406 198.460938 90.972656 C 208.167969 88.097656 216.726562 90.253906 224.148438 97.460938 L 214.089844 108.910156 L 213.847656 109.191406 C 211.074219 106.796875 208.398438 105.230469 205.804688 104.507812 C 202.878906 104.160156 199.730469 104.894531 196.371094 106.695312 C 194.832031 107.519531 193.539062 108.402344 192.519531 109.347656 L 192.511719 109.347656 C 191.199219 110.554688 190.308594 111.855469 189.847656 113.253906 C 189.054688 115.738281 189.246094 118.101562 190.457031 120.355469 C 191.707031 122.691406 193.488281 124.019531 195.785156 124.332031 Z M 154.96875 37.546875 L 158.648438 44.417969 C 159.746094 46.464844 162.296875 47.234375 164.339844 46.140625 C 166.386719 45.042969 167.15625 42.5 166.0625 40.457031 L 162.351562 33.535156 C 168.964844 32.035156 176.019531 35.042969 179.371094 41.308594 C 183.394531 48.820312 180.566406 58.179688 173.046875 62.203125 C 165.527344 66.230469 156.171875 63.394531 152.144531 55.878906 C 148.824219 49.675781 150.167969 42.222656 154.96875 37.546875 Z M 126.839844 11.5 C 119.523438 15.953125 115.601562 22.859375 112.003906 30.023438 C 109.328125 35.363281 107.097656 40.949219 103.25 45.632812 C 102.394531 46.679688 101.40625 47.554688 100.242188 48.242188 C 98.765625 49.121094 97.316406 48.910156 96.003906 47.972656 C 94.738281 47.066406 94.304688 45.726562 94.441406 44.1875 C 94.914062 39.042969 97.457031 34.75 100.070312 30.496094 C 103.636719 24.691406 107.921875 19.492188 113.488281 15.476562 C 117.390625 12.660156 121.679688 10.761719 126.601562 10.648438 C 126.601562 10.648438 126.601562 10.648438 126.609375 10.648438 C 127.066406 10.644531 127.238281 11.257812 126.839844 11.5 Z M 211.671875 46.320312 L 178.035156 25.375 C 171.65625 20.746094 163.5 19.566406 156.179688 22 L 153.207031 16.453125 C 152.964844 15.992188 152.683594 15.554688 152.382812 15.136719 C 145.1875 5.101562 131.46875 -0.03125 119.503906 3.300781 C 106.4375 6.941406 97.417969 18.757812 90.820312 30.601562 C 88.761719 34.289062 86.820312 38.132812 86.21875 42.300781 C 85.621094 46.472656 86.574219 51.074219 89.632812 53.980469 C 93.8125 57.960938 100.820312 57.597656 105.699219 54.503906 C 110.574219 51.414062 113.703125 46.21875 116.144531 40.984375 C 118.585938 35.753906 120.570312 30.234375 123.960938 25.5625 C 127.359375 20.886719 132.554688 17.058594 138.332031 17.089844 C 138.40625 17.089844 138.484375 17.09375 138.5625 17.09375 C 142.019531 17.195312 145.136719 19.191406 146.765625 22.234375 L 148.78125 25.992188 C 142.785156 30.746094 139.308594 38.128906 139.621094 45.941406 L 138.417969 85.535156 C 138.972656 99.472656 142.683594 113.101562 149.265625 125.394531 L 197.066406 214.636719 C 199.636719 219.429688 205.605469 221.234375 210.40625 218.667969 L 282.609375 180.015625 C 287.402344 177.441406 289.207031 171.480469 286.640625 166.679688 L 238.839844 77.4375 C 232.253906 65.144531 222.964844 54.507812 211.671875 46.320312 " fill-opacity="1" fill-rule="nonzero"/><g fill="#000000" fill-opacity="1"><g transform="translate(85.341265, 241.260087)"><g><path d="M 12.40625 -4.71875 C 12.75 -4.71875 13.035156 -4.742188 13.265625 -4.796875 C 13.503906 -4.859375 13.691406 -4.972656 13.828125 -5.140625 C 13.972656 -5.304688 14.066406 -5.53125 14.109375 -5.8125 C 14.160156 -6.101562 14.1875 -6.476562 14.1875 -6.9375 L 18.640625 -6.9375 L 18.640625 0 L 0.515625 0 L 0.515625 -4.71875 C 1.265625 -4.71875 1.800781 -4.816406 2.125 -5.015625 C 2.445312 -5.210938 2.609375 -5.585938 2.609375 -6.140625 L 2.609375 -12.578125 C 2.609375 -13.140625 2.445312 -13.519531 2.125 -13.71875 C 1.800781 -13.914062 1.265625 -14.015625 0.515625 -14.015625 L 0.515625 -18.734375 L 18.640625 -18.734375 L 18.640625 -11.796875 L 14.1875 -11.796875 C 14.1875 -12.242188 14.160156 -12.613281 14.109375 -12.90625 C 14.066406 -13.195312 13.972656 -13.421875 13.828125 -13.578125 C 13.691406 -13.742188 13.503906 -13.859375 13.265625 -13.921875 C 13.035156 -13.984375 12.75 -14.015625 12.40625 -14.015625 L 10.109375 -14.015625 L 10.109375 -10.625 L 14.171875 -10.625 L 14.171875 -8.375 L 10.109375 -8.375 L 10.109375 -4.71875 Z M 12.40625 -4.71875 "/></g></g></g><g fill="#000000" fill-opacity="1"><g transform="translate(104.501844, 241.260087)"><g><path d="M 7.3125 -12.25 C 6.882812 -12.25 6.515625 -12.21875 6.203125 -12.15625 C 5.890625 -12.09375 5.625 -12.015625 5.40625 -11.921875 C 5.1875 -11.835938 5.003906 -11.742188 4.859375 -11.640625 C 4.710938 -11.535156 4.585938 -11.441406 4.484375 -11.359375 L 4.609375 -11.234375 C 4.765625 -11.316406 4.9375 -11.398438 5.125 -11.484375 C 5.320312 -11.566406 5.566406 -11.609375 5.859375 -11.609375 C 6.359375 -11.609375 6.789062 -11.441406 7.15625 -11.109375 C 7.519531 -10.785156 7.703125 -10.269531 7.703125 -9.5625 C 7.703125 -8.882812 7.425781 -8.335938 6.875 -7.921875 C 6.320312 -7.515625 5.578125 -7.3125 4.640625 -7.3125 C 3.753906 -7.3125 3.046875 -7.566406 2.515625 -8.078125 C 1.984375 -8.597656 1.71875 -9.328125 1.71875 -10.265625 C 1.71875 -10.785156 1.859375 -11.300781 2.140625 -11.8125 C 2.429688 -12.320312 2.878906 -12.78125 3.484375 -13.1875 C 4.097656 -13.59375 4.875 -13.925781 5.8125 -14.1875 C 6.75 -14.457031 7.875 -14.59375 9.1875 -14.59375 C 10.769531 -14.59375 12.0625 -14.441406 13.0625 -14.140625 C 14.0625 -13.847656 14.835938 -13.46875 15.390625 -13 C 15.953125 -12.53125 16.335938 -12 16.546875 -11.40625 C 16.753906 -10.8125 16.859375 -10.210938 16.859375 -9.609375 L 16.859375 -4.640625 C 16.859375 -3.867188 16.878906 -3.34375 16.921875 -3.0625 C 16.972656 -2.789062 17.164062 -2.65625 17.5 -2.65625 C 17.757812 -2.65625 17.941406 -2.78125 18.046875 -3.03125 C 18.160156 -3.28125 18.21875 -3.710938 18.21875 -4.328125 L 18.21875 -5.90625 L 19.65625 -5.90625 L 19.65625 -4.296875 C 19.65625 -3.535156 19.59375 -2.859375 19.46875 -2.265625 C 19.34375 -1.679688 19.101562 -1.175781 18.75 -0.75 C 18.394531 -0.332031 17.910156 -0.0195312 17.296875 0.1875 C 16.679688 0.40625 15.898438 0.515625 14.953125 0.515625 C 14.097656 0.515625 13.390625 0.421875 12.828125 0.234375 C 12.265625 0.0546875 11.816406 -0.164062 11.484375 -0.4375 C 11.148438 -0.707031 10.910156 -0.988281 10.765625 -1.28125 C 10.628906 -1.570312 10.5625 -1.832031 10.5625 -2.0625 L 10.359375 -2.0625 C 10.304688 -1.707031 10.160156 -1.375 9.921875 -1.0625 C 9.679688 -0.75 9.347656 -0.472656 8.921875 -0.234375 C 8.492188 0.00390625 7.976562 0.195312 7.375 0.34375 C 6.78125 0.5 6.101562 0.578125 5.34375 0.578125 C 4.613281 0.578125 3.945312 0.503906 3.34375 0.359375 C 2.75 0.222656 2.242188 0.00390625 1.828125 -0.296875 C 1.410156 -0.597656 1.082031 -0.988281 0.84375 -1.46875 C 0.613281 -1.945312 0.5 -2.515625 0.5 -3.171875 C 0.5 -3.992188 0.726562 -4.640625 1.1875 -5.109375 C 1.644531 -5.578125 2.21875 -5.945312 2.90625 -6.21875 C 3.601562 -6.5 4.359375 -6.722656 5.171875 -6.890625 C 5.992188 -7.066406 6.753906 -7.273438 7.453125 -7.515625 C 8.148438 -7.765625 8.726562 -8.082031 9.1875 -8.46875 C 9.644531 -8.863281 9.875 -9.421875 9.875 -10.140625 C 9.875 -10.773438 9.671875 -11.285156 9.265625 -11.671875 C 8.867188 -12.054688 8.21875 -12.25 7.3125 -12.25 Z M 9.875 -6.734375 C 9.6875 -6.460938 9.453125 -6.242188 9.171875 -6.078125 C 8.890625 -5.921875 8.617188 -5.757812 8.359375 -5.59375 C 8.097656 -5.4375 7.875 -5.25 7.6875 -5.03125 C 7.5 -4.820312 7.40625 -4.535156 7.40625 -4.171875 C 7.40625 -3.890625 7.476562 -3.632812 7.625 -3.40625 C 7.78125 -3.1875 8.078125 -3.078125 8.515625 -3.078125 C 8.921875 -3.078125 9.25 -3.226562 9.5 -3.53125 C 9.75 -3.84375 9.875 -4.28125 9.875 -4.84375 Z M 9.875 -6.734375 "/></g></g></g><g fill="#000000" fill-opacity="1"><g transform="translate(123.954853, 241.260087)"><g><path d="M 15.484375 -9.375 L 11.984375 -9.375 C 11.734375 -9.976562 11.347656 -10.457031 10.828125 -10.8125 C 10.316406 -11.175781 9.78125 -11.359375 9.21875 -11.359375 C 8.832031 -11.359375 8.523438 -11.285156 8.296875 -11.140625 C 8.078125 -11.003906 7.96875 -10.796875 7.96875 -10.515625 C 7.96875 -10.171875 8.160156 -9.910156 8.546875 -9.734375 C 8.941406 -9.554688 9.429688 -9.398438 10.015625 -9.265625 C 10.609375 -9.128906 11.25 -8.96875 11.9375 -8.78125 C 12.625 -8.59375 13.257812 -8.316406 13.84375 -7.953125 C 14.4375 -7.597656 14.925781 -7.117188 15.3125 -6.515625 C 15.707031 -5.921875 15.90625 -5.128906 15.90625 -4.140625 C 15.90625 -3.378906 15.734375 -2.710938 15.390625 -2.140625 C 15.054688 -1.578125 14.59375 -1.113281 14 -0.75 C 13.414062 -0.382812 12.722656 -0.113281 11.921875 0.0625 C 11.128906 0.25 10.269531 0.34375 9.34375 0.34375 C 8.445312 0.34375 7.597656 0.253906 6.796875 0.078125 C 5.992188 -0.0859375 5.226562 -0.378906 4.5 -0.796875 L 4.375 0.078125 L 1.015625 0.078125 L 1.015625 -5.03125 L 4.5 -5.03125 C 4.832031 -4.34375 5.25 -3.8125 5.75 -3.4375 C 6.257812 -3.070312 6.816406 -2.890625 7.421875 -2.890625 C 7.890625 -2.890625 8.222656 -2.972656 8.421875 -3.140625 C 8.617188 -3.316406 8.71875 -3.507812 8.71875 -3.71875 C 8.71875 -4.070312 8.519531 -4.34375 8.125 -4.53125 C 7.738281 -4.71875 7.257812 -4.882812 6.6875 -5.03125 C 6.125 -5.1875 5.5 -5.351562 4.8125 -5.53125 C 4.125 -5.71875 3.492188 -5.984375 2.921875 -6.328125 C 2.347656 -6.679688 1.863281 -7.148438 1.46875 -7.734375 C 1.082031 -8.328125 0.890625 -9.101562 0.890625 -10.0625 C 0.890625 -10.75 1.039062 -11.375 1.34375 -11.9375 C 1.65625 -12.507812 2.097656 -12.988281 2.671875 -13.375 C 3.253906 -13.769531 3.9375 -14.070312 4.71875 -14.28125 C 5.5 -14.488281 6.351562 -14.59375 7.28125 -14.59375 C 8.332031 -14.59375 9.273438 -14.472656 10.109375 -14.234375 C 10.941406 -14.003906 11.566406 -13.75 11.984375 -13.46875 L 12.109375 -14.375 L 15.484375 -14.375 Z M 15.484375 -9.375 "/></g></g></g><g fill="#000000" fill-opacity="1"><g transform="translate(140.547125, 241.260087)"><g><path d="M 12.109375 1.046875 C 11.816406 1.671875 11.519531 2.335938 11.21875 3.046875 C 10.914062 3.765625 10.515625 4.425781 10.015625 5.03125 C 9.515625 5.632812 8.875 6.132812 8.09375 6.53125 C 7.320312 6.9375 6.304688 7.140625 5.046875 7.140625 C 4.160156 7.140625 3.390625 7.023438 2.734375 6.796875 C 2.078125 6.566406 1.53125 6.257812 1.09375 5.875 C 0.65625 5.5 0.332031 5.0625 0.125 4.5625 C -0.0703125 4.070312 -0.171875 3.566406 -0.171875 3.046875 C -0.171875 2.023438 0.140625 1.21875 0.765625 0.625 C 1.398438 0.0390625 2.1875 -0.25 3.125 -0.25 C 3.675781 -0.25 4.140625 -0.164062 4.515625 0 C 4.890625 0.15625 5.191406 0.359375 5.421875 0.609375 C 5.660156 0.859375 5.828125 1.132812 5.921875 1.4375 C 6.015625 1.75 6.0625 2.039062 6.0625 2.3125 C 6.0625 2.925781 5.910156 3.394531 5.609375 3.71875 C 5.304688 4.039062 4.945312 4.242188 4.53125 4.328125 C 4.5625 4.359375 4.613281 4.382812 4.6875 4.40625 C 4.789062 4.457031 5 4.484375 5.3125 4.484375 C 5.613281 4.484375 5.878906 4.40625 6.109375 4.25 C 6.335938 4.101562 6.546875 3.921875 6.734375 3.703125 C 6.929688 3.492188 7.097656 3.257812 7.234375 3 C 7.378906 2.75 7.492188 2.519531 7.578125 2.3125 L 7.609375 2.234375 L 2.1875 -8.203125 C 2.101562 -8.398438 2.007812 -8.566406 1.90625 -8.703125 C 1.8125 -8.835938 1.691406 -8.945312 1.546875 -9.03125 C 1.410156 -9.125 1.238281 -9.191406 1.03125 -9.234375 C 0.820312 -9.273438 0.5625 -9.296875 0.25 -9.296875 L 0.25 -14.015625 L 10.46875 -14.015625 L 10.46875 -9.296875 C 9.9375 -9.296875 9.585938 -9.21875 9.421875 -9.0625 C 9.253906 -8.90625 9.238281 -8.660156 9.375 -8.328125 L 10.90625 -5.046875 L 12.40625 -8.328125 C 12.539062 -8.628906 12.523438 -8.863281 12.359375 -9.03125 C 12.191406 -9.207031 11.84375 -9.296875 11.3125 -9.296875 L 11.3125 -14.015625 L 18.390625 -14.015625 L 18.390625 -9.296875 C 17.765625 -9.296875 17.328125 -9.207031 17.078125 -9.03125 C 16.828125 -8.863281 16.613281 -8.585938 16.4375 -8.203125 Z M 12.109375 1.046875 "/></g></g></g><g fill="#000000" fill-opacity="1"><g transform="translate(159.186414, 241.260087)"><g/></g></g><g fill="#000000" fill-opacity="1"><g transform="translate(166.993046, 241.260087)"><g><path d="M 10.65625 -6.53125 L 6.640625 -6.53125 L 6.453125 -5.984375 C 6.316406 -5.617188 6.328125 -5.316406 6.484375 -5.078125 C 6.640625 -4.835938 6.960938 -4.71875 7.453125 -4.71875 L 8.171875 -4.71875 L 8.171875 0 L 0.25 0 L 0.25 -4.71875 L 0.78125 -4.71875 C 1.382812 -4.71875 1.789062 -4.835938 2 -5.078125 C 2.207031 -5.316406 2.410156 -5.671875 2.609375 -6.140625 L 5.21875 -12.578125 C 5.40625 -13.066406 5.4375 -13.425781 5.3125 -13.65625 C 5.1875 -13.894531 4.816406 -14.015625 4.203125 -14.015625 L 3.9375 -14.015625 L 3.9375 -18.734375 L 17 -18.734375 L 17 -14.015625 L 16.75 -14.015625 C 16.125 -14.015625 15.75 -13.890625 15.625 -13.640625 C 15.5 -13.398438 15.535156 -13.046875 15.734375 -12.578125 L 18.34375 -6.140625 C 18.445312 -5.898438 18.535156 -5.691406 18.609375 -5.515625 C 18.691406 -5.347656 18.789062 -5.203125 18.90625 -5.078125 C 19.03125 -4.953125 19.191406 -4.859375 19.390625 -4.796875 C 19.585938 -4.742188 19.84375 -4.71875 20.15625 -4.71875 L 20.6875 -4.71875 L 20.6875 0 L 9.125 0 L 9.125 -4.71875 L 9.8125 -4.71875 C 10.300781 -4.71875 10.628906 -4.835938 10.796875 -5.078125 C 10.960938 -5.316406 10.972656 -5.617188 10.828125 -5.984375 Z M 7.28125 -8.515625 L 10 -8.515625 L 8.71875 -12.421875 L 8.625 -12.421875 Z M 7.28125 -8.515625 "/></g></g></g><g fill="#000000" fill-opacity="1"><g transform="translate(187.933639, 241.260087)"><g><path d="M 18.96875 -5.734375 C 18.96875 -5.328125 19.082031 -5.054688 19.3125 -4.921875 C 19.539062 -4.785156 19.804688 -4.71875 20.109375 -4.71875 L 20.78125 -4.71875 L 20.78125 0 L 13.234375 0 L 13.234375 -3.484375 L 13.03125 -3.484375 C 12.832031 -2.179688 12.300781 -1.195312 11.4375 -0.53125 C 10.570312 0.132812 9.3125 0.46875 7.65625 0.46875 C 6.488281 0.46875 5.539062 0.304688 4.8125 -0.015625 C 4.082031 -0.347656 3.519531 -0.765625 3.125 -1.265625 C 2.726562 -1.773438 2.453125 -2.320312 2.296875 -2.90625 C 2.148438 -3.5 2.078125 -4.054688 2.078125 -4.578125 L 2.078125 -8.046875 C 2.078125 -8.492188 2 -8.8125 1.84375 -9 C 1.6875 -9.195312 1.382812 -9.296875 0.9375 -9.296875 L 0.171875 -9.296875 L 0.171875 -14.015625 L 9.0625 -14.015625 L 9.0625 -5.984375 C 9.0625 -5.660156 9.097656 -5.394531 9.171875 -5.1875 C 9.253906 -4.988281 9.359375 -4.835938 9.484375 -4.734375 C 9.609375 -4.628906 9.75 -4.5625 9.90625 -4.53125 C 10.0625 -4.5 10.207031 -4.484375 10.34375 -4.484375 C 10.894531 -4.484375 11.304688 -4.640625 11.578125 -4.953125 C 11.847656 -5.273438 11.984375 -5.734375 11.984375 -6.328125 L 11.984375 -8.046875 C 11.984375 -8.492188 11.90625 -8.8125 11.75 -9 C 11.59375 -9.195312 11.285156 -9.296875 10.828125 -9.296875 L 10.078125 -9.296875 L 10.078125 -14.015625 L 18.96875 -14.015625 Z M 18.96875 -5.734375 "/></g></g></g><g fill="#000000" fill-opacity="1"><g transform="translate(209.230234, 241.260087)"><g><path d="M 10.015625 -11.15625 C 9.285156 -11.15625 8.726562 -10.84375 8.34375 -10.21875 C 7.957031 -9.601562 7.765625 -8.578125 7.765625 -7.140625 C 7.765625 -5.691406 7.960938 -4.664062 8.359375 -4.0625 C 8.765625 -3.457031 9.382812 -3.15625 10.21875 -3.15625 C 10.445312 -3.15625 10.6875 -3.191406 10.9375 -3.265625 C 11.1875 -3.347656 11.410156 -3.460938 11.609375 -3.609375 C 11.804688 -3.753906 11.96875 -3.941406 12.09375 -4.171875 C 12.226562 -4.410156 12.304688 -4.6875 12.328125 -5 L 16.4375 -5 C 16.164062 -3.101562 15.398438 -1.703125 14.140625 -0.796875 C 12.890625 0.0976562 11.109375 0.546875 8.796875 0.546875 C 7.640625 0.546875 6.554688 0.390625 5.546875 0.078125 C 4.535156 -0.222656 3.65625 -0.679688 2.90625 -1.296875 C 2.164062 -1.921875 1.582031 -2.707031 1.15625 -3.65625 C 0.726562 -4.601562 0.515625 -5.726562 0.515625 -7.03125 C 0.515625 -8.28125 0.726562 -9.375 1.15625 -10.3125 C 1.582031 -11.25 2.175781 -12.035156 2.9375 -12.671875 C 3.707031 -13.304688 4.613281 -13.785156 5.65625 -14.109375 C 6.707031 -14.429688 7.863281 -14.59375 9.125 -14.59375 C 10.445312 -14.59375 11.566406 -14.425781 12.484375 -14.09375 C 13.398438 -13.757812 14.140625 -13.34375 14.703125 -12.84375 C 15.265625 -12.351562 15.664062 -11.820312 15.90625 -11.25 C 16.15625 -10.675781 16.28125 -10.140625 16.28125 -9.640625 C 16.28125 -9.242188 16.222656 -8.851562 16.109375 -8.46875 C 15.992188 -8.082031 15.804688 -7.734375 15.546875 -7.421875 C 15.285156 -7.109375 14.957031 -6.859375 14.5625 -6.671875 C 14.164062 -6.484375 13.675781 -6.390625 13.09375 -6.390625 C 12.539062 -6.390625 12.09375 -6.46875 11.75 -6.625 C 11.40625 -6.78125 11.132812 -6.972656 10.9375 -7.203125 C 10.75 -7.429688 10.613281 -7.675781 10.53125 -7.9375 C 10.457031 -8.195312 10.421875 -8.441406 10.421875 -8.671875 C 10.421875 -9.191406 10.539062 -9.601562 10.78125 -9.90625 C 11.03125 -10.207031 11.316406 -10.421875 11.640625 -10.546875 C 11.453125 -10.691406 11.257812 -10.828125 11.0625 -10.953125 C 10.875 -11.085938 10.523438 -11.15625 10.015625 -11.15625 Z M 10.015625 -11.15625 "/></g></g></g><g fill="#000000" fill-opacity="1"><g transform="translate(226.254796, 241.260087)"><g><path d="M 9.421875 -18.734375 L 9.421875 -14.015625 L 13.234375 -14.015625 L 13.234375 -9.296875 L 9.421875 -9.296875 L 9.421875 -5.390625 C 9.421875 -4.828125 9.5 -4.367188 9.65625 -4.015625 C 9.8125 -3.660156 10.132812 -3.484375 10.625 -3.484375 C 10.90625 -3.484375 11.125 -3.535156 11.28125 -3.640625 C 11.445312 -3.742188 11.578125 -3.882812 11.671875 -4.0625 C 11.773438 -4.238281 11.835938 -4.4375 11.859375 -4.65625 C 11.890625 -4.882812 11.90625 -5.128906 11.90625 -5.390625 L 11.90625 -7.28125 L 13.359375 -7.28125 L 13.359375 -5.234375 C 13.359375 -4.410156 13.269531 -3.644531 13.09375 -2.9375 C 12.925781 -2.226562 12.632812 -1.613281 12.21875 -1.09375 C 11.800781 -0.570312 11.226562 -0.160156 10.5 0.140625 C 9.78125 0.441406 8.875 0.59375 7.78125 0.59375 C 6.570312 0.59375 5.601562 0.441406 4.875 0.140625 C 4.15625 -0.148438 3.609375 -0.550781 3.234375 -1.0625 C 2.867188 -1.582031 2.628906 -2.195312 2.515625 -2.90625 C 2.398438 -3.625 2.34375 -4.398438 2.34375 -5.234375 L 2.34375 -9.296875 L 0.34375 -9.296875 L 0.34375 -13.5 C 0.976562 -13.5 1.566406 -13.632812 2.109375 -13.90625 C 2.660156 -14.1875 3.132812 -14.566406 3.53125 -15.046875 C 3.925781 -15.535156 4.226562 -16.09375 4.4375 -16.71875 C 4.65625 -17.351562 4.765625 -18.023438 4.765625 -18.734375 Z M 9.421875 -18.734375 "/></g></g></g><g fill="#000000" fill-opacity="1"><g transform="translate(239.871902, 241.260087)"><g><path d="M 9.921875 -14.015625 L 9.921875 -6.09375 C 9.921875 -5.519531 10.0625 -5.144531 10.34375 -4.96875 C 10.625 -4.800781 10.976562 -4.71875 11.40625 -4.71875 L 11.75 -4.71875 L 11.75 0 L 1.046875 0 L 1.046875 -4.71875 L 1.53125 -4.71875 C 1.988281 -4.71875 2.320312 -4.859375 2.53125 -5.140625 C 2.75 -5.429688 2.859375 -5.738281 2.859375 -6.0625 L 2.859375 -7.859375 C 2.859375 -8.347656 2.703125 -8.707031 2.390625 -8.9375 C 2.085938 -9.175781 1.734375 -9.296875 1.328125 -9.296875 L 1.046875 -9.296875 L 1.046875 -14.015625 Z M 2.65625 -17.140625 C 2.65625 -17.867188 2.929688 -18.492188 3.484375 -19.015625 C 4.046875 -19.535156 4.835938 -19.796875 5.859375 -19.796875 C 6.898438 -19.796875 7.703125 -19.535156 8.265625 -19.015625 C 8.835938 -18.492188 9.125 -17.867188 9.125 -17.140625 C 9.125 -16.398438 8.835938 -15.769531 8.265625 -15.25 C 7.703125 -14.738281 6.898438 -14.484375 5.859375 -14.484375 C 4.835938 -14.484375 4.046875 -14.738281 3.484375 -15.25 C 2.929688 -15.769531 2.65625 -16.398438 2.65625 -17.140625 Z M 2.65625 -17.140625 "/></g></g></g><g fill="#000000" fill-opacity="1"><g transform="translate(251.874282, 241.260087)"><g><path d="M 0.515625 -7.03125 C 0.515625 -8.28125 0.726562 -9.375 1.15625 -10.3125 C 1.59375 -11.25 2.210938 -12.035156 3.015625 -12.671875 C 3.816406 -13.304688 4.78125 -13.785156 5.90625 -14.109375 C 7.039062 -14.429688 8.300781 -14.59375 9.6875 -14.59375 C 11.082031 -14.59375 12.34375 -14.429688 13.46875 -14.109375 C 14.59375 -13.785156 15.550781 -13.304688 16.34375 -12.671875 C 17.144531 -12.035156 17.765625 -11.25 18.203125 -10.3125 C 18.640625 -9.375 18.859375 -8.28125 18.859375 -7.03125 C 18.859375 -5.800781 18.640625 -4.710938 18.203125 -3.765625 C 17.765625 -2.816406 17.144531 -2.019531 16.34375 -1.375 C 15.550781 -0.738281 14.59375 -0.257812 13.46875 0.0625 C 12.34375 0.382812 11.082031 0.546875 9.6875 0.546875 C 8.300781 0.546875 7.039062 0.382812 5.90625 0.0625 C 4.78125 -0.257812 3.816406 -0.738281 3.015625 -1.375 C 2.210938 -2.019531 1.59375 -2.816406 1.15625 -3.765625 C 0.726562 -4.710938 0.515625 -5.800781 0.515625 -7.03125 Z M 7.765625 -7.03125 C 7.765625 -6.320312 7.796875 -5.71875 7.859375 -5.21875 C 7.921875 -4.726562 8.019531 -4.332031 8.15625 -4.03125 C 8.300781 -3.726562 8.5 -3.503906 8.75 -3.359375 C 9 -3.222656 9.3125 -3.15625 9.6875 -3.15625 C 10.070312 -3.15625 10.382812 -3.222656 10.625 -3.359375 C 10.863281 -3.503906 11.054688 -3.726562 11.203125 -4.03125 C 11.359375 -4.332031 11.460938 -4.726562 11.515625 -5.21875 C 11.578125 -5.71875 11.609375 -6.320312 11.609375 -7.03125 C 11.609375 -8.457031 11.472656 -9.457031 11.203125 -10.03125 C 10.941406 -10.601562 10.4375 -10.890625 9.6875 -10.890625 C 9.3125 -10.890625 9 -10.820312 8.75 -10.6875 C 8.5 -10.5625 8.300781 -10.347656 8.15625 -10.046875 C 8.019531 -9.742188 7.921875 -9.34375 7.859375 -8.84375 C 7.796875 -8.34375 7.765625 -7.738281 7.765625 -7.03125 Z M 7.765625 -7.03125 "/></g></g></g><g fill="#000000" fill-opacity="1"><g transform="translate(271.251004, 241.260087)"><g><path d="M 12.765625 -8.125 C 12.765625 -8.457031 12.722656 -8.722656 12.640625 -8.921875 C 12.566406 -9.117188 12.46875 -9.269531 12.34375 -9.375 C 12.21875 -9.476562 12.078125 -9.546875 11.921875 -9.578125 C 11.773438 -9.617188 11.628906 -9.640625 11.484375 -9.640625 C 10.929688 -9.640625 10.519531 -9.476562 10.25 -9.15625 C 9.976562 -8.832031 9.84375 -8.375 9.84375 -7.78125 L 9.84375 -5.96875 C 9.84375 -5.519531 9.921875 -5.195312 10.078125 -5 C 10.234375 -4.8125 10.535156 -4.71875 10.984375 -4.71875 L 11.671875 -4.71875 L 11.671875 0 L 1.046875 0 L 1.046875 -4.71875 L 1.796875 -4.71875 C 2.140625 -4.71875 2.398438 -4.828125 2.578125 -5.046875 C 2.765625 -5.273438 2.859375 -5.546875 2.859375 -5.859375 L 2.859375 -8.28125 C 2.859375 -8.675781 2.738281 -8.941406 2.5 -9.078125 C 2.269531 -9.222656 2.007812 -9.296875 1.71875 -9.296875 L 1.046875 -9.296875 L 1.046875 -14.015625 L 8.59375 -14.015625 L 8.328125 -10.515625 L 8.546875 -10.515625 C 8.734375 -11.816406 9.304688 -12.820312 10.265625 -13.53125 C 11.222656 -14.238281 12.523438 -14.59375 14.171875 -14.59375 C 15.328125 -14.59375 16.269531 -14.425781 17 -14.09375 C 17.726562 -13.757812 18.296875 -13.335938 18.703125 -12.828125 C 19.109375 -12.328125 19.378906 -11.78125 19.515625 -11.1875 C 19.660156 -10.601562 19.734375 -10.050781 19.734375 -9.53125 L 19.734375 -5.96875 C 19.734375 -5.519531 19.8125 -5.195312 19.96875 -5 C 20.125 -4.8125 20.429688 -4.71875 20.890625 -4.71875 L 21.5625 -4.71875 L 21.5625 0 L 12.765625 0 Z M 12.765625 -8.125 "/></g></g></g><g fill="#808080" fill-opacity="1"><g transform="translate(45.840235, 278.301133)"><g><path d="M 2.046875 -10.515625 L 2.046875 -16.1875 L 8.125 -16.1875 L 8.125 -10.515625 Z M 1.4375 4.90625 L 3.125 -8.640625 L 7.015625 -8.640625 L 8.765625 4.90625 Z M 1.4375 4.90625 "/></g></g></g><g fill="#808080" fill-opacity="1"><g transform="translate(56.044885, 278.301133)"><g><path d="M 2.265625 -21.09375 L 9.046875 -21.09375 L 9.046875 -5.390625 L 19.859375 -5.390625 L 19.859375 0 L 2.265625 0 Z M 2.265625 -21.09375 "/></g></g></g><g fill="#808080" fill-opacity="1"><g transform="translate(76.484833, 278.301133)"><g><path d="M 9.84375 -16.546875 C 12.3125 -16.546875 14.320312 -16.132812 15.875 -15.3125 C 17.425781 -14.488281 18.203125 -13.144531 18.203125 -11.28125 L 18.203125 -4.96875 C 18.203125 -4.613281 18.285156 -4.320312 18.453125 -4.09375 C 18.617188 -3.875 18.863281 -3.765625 19.1875 -3.765625 L 20.296875 -3.765625 L 20.296875 -0.25 C 20.234375 -0.207031 20.070312 -0.140625 19.8125 -0.046875 C 19.5625 0.046875 19.203125 0.140625 18.734375 0.234375 C 18.265625 0.328125 17.722656 0.375 17.109375 0.375 C 15.921875 0.375 14.941406 0.195312 14.171875 -0.15625 C 13.410156 -0.519531 12.882812 -1.019531 12.59375 -1.65625 C 11.820312 -1.039062 10.953125 -0.546875 9.984375 -0.171875 C 9.023438 0.191406 7.90625 0.375 6.625 0.375 C 2.820312 0.375 0.921875 -1.140625 0.921875 -4.171875 C 0.921875 -5.742188 1.34375 -6.941406 2.1875 -7.765625 C 3.039062 -8.597656 4.265625 -9.164062 5.859375 -9.46875 C 7.453125 -9.78125 9.535156 -9.9375 12.109375 -9.9375 L 12.109375 -10.734375 C 12.109375 -11.367188 11.890625 -11.847656 11.453125 -12.171875 C 11.015625 -12.492188 10.445312 -12.65625 9.75 -12.65625 C 9.113281 -12.65625 8.566406 -12.539062 8.109375 -12.3125 C 7.648438 -12.09375 7.421875 -11.738281 7.421875 -11.25 L 7.421875 -11.125 L 1.40625 -11.125 C 1.382812 -11.226562 1.375 -11.375 1.375 -11.5625 C 1.375 -13.09375 2.101562 -14.304688 3.5625 -15.203125 C 5.03125 -16.097656 7.125 -16.546875 9.84375 -16.546875 Z M 12.109375 -7.046875 C 10.367188 -7.046875 9.082031 -6.859375 8.25 -6.484375 C 7.425781 -6.109375 7.015625 -5.601562 7.015625 -4.96875 C 7.015625 -3.945312 7.710938 -3.4375 9.109375 -3.4375 C 9.898438 -3.4375 10.597656 -3.648438 11.203125 -4.078125 C 11.804688 -4.503906 12.109375 -5.035156 12.109375 -5.671875 Z M 12.109375 -7.046875 "/></g></g></g><g fill="#808080" fill-opacity="1"><g transform="translate(96.92478, 278.301133)"><g/></g></g><g fill="#808080" fill-opacity="1"><g transform="translate(107.12943, 278.301133)"><g><path d="M 23.328125 -16.546875 C 25.171875 -16.546875 26.550781 -16.019531 27.46875 -14.96875 C 28.382812 -13.914062 28.84375 -12.421875 28.84375 -10.484375 L 28.84375 0 L 22.75 0 L 22.75 -9.75 C 22.75 -10.445312 22.578125 -11.003906 22.234375 -11.421875 C 21.898438 -11.835938 21.425781 -12.046875 20.8125 -12.046875 C 20.101562 -12.046875 19.519531 -11.800781 19.0625 -11.3125 C 18.613281 -10.820312 18.390625 -10.21875 18.390625 -9.5 L 18.390625 0 L 12.296875 0 L 12.296875 -9.75 C 12.296875 -10.445312 12.125 -11.003906 11.78125 -11.421875 C 11.445312 -11.835938 10.972656 -12.046875 10.359375 -12.046875 C 9.640625 -12.046875 9.054688 -11.800781 8.609375 -11.3125 C 8.160156 -10.820312 7.9375 -10.21875 7.9375 -9.5 L 7.9375 0 L 1.84375 0 L 1.84375 -16.1875 L 6.84375 -16.1875 L 7.234375 -13.765625 C 7.847656 -14.617188 8.660156 -15.296875 9.671875 -15.796875 C 10.679688 -16.296875 11.75 -16.546875 12.875 -16.546875 C 15.3125 -16.546875 16.945312 -15.617188 17.78125 -13.765625 C 18.414062 -14.617188 19.226562 -15.296875 20.21875 -15.796875 C 21.207031 -16.296875 22.242188 -16.546875 23.328125 -16.546875 Z M 23.328125 -16.546875 "/></g></g></g><g fill="#808080" fill-opacity="1"><g transform="translate(137.774028, 278.301133)"><g><path d="M 10.203125 -16.546875 C 13.171875 -16.546875 15.4375 -15.851562 17 -14.46875 C 18.5625 -13.082031 19.34375 -10.957031 19.34375 -8.09375 L 19.34375 -7.046875 L 7.203125 -7.046875 C 7.203125 -5.878906 7.460938 -5 7.984375 -4.40625 C 8.503906 -3.820312 9.328125 -3.53125 10.453125 -3.53125 C 11.472656 -3.53125 12.222656 -3.742188 12.703125 -4.171875 C 13.179688 -4.597656 13.421875 -5.171875 13.421875 -5.890625 L 19.34375 -5.890625 C 19.34375 -3.921875 18.597656 -2.382812 17.109375 -1.28125 C 15.617188 -0.175781 13.441406 0.375 10.578125 0.375 C 7.566406 0.375 5.234375 -0.320312 3.578125 -1.71875 C 1.929688 -3.125 1.109375 -5.25 1.109375 -8.09375 C 1.109375 -10.875 1.914062 -12.976562 3.53125 -14.40625 C 5.144531 -15.832031 7.367188 -16.546875 10.203125 -16.546875 Z M 10.453125 -12.65625 C 8.535156 -12.65625 7.460938 -11.75 7.234375 -9.9375 L 13.1875 -9.9375 C 13.1875 -10.769531 12.941406 -11.429688 12.453125 -11.921875 C 11.972656 -12.410156 11.304688 -12.65625 10.453125 -12.65625 Z M 10.453125 -12.65625 "/></g></g></g><g fill="#808080" fill-opacity="1"><g transform="translate(158.213976, 278.301133)"><g><path d="M 2.046875 -18.09375 L 2.046875 -22.21875 L 8.15625 -22.21875 L 8.15625 -18.09375 Z M 8.15625 0.890625 C 8.15625 2.847656 7.707031 4.257812 6.8125 5.125 C 5.925781 6 4.503906 6.4375 2.546875 6.4375 C 2.015625 6.4375 1.359375 6.382812 0.578125 6.28125 C -0.191406 6.175781 -0.800781 6.046875 -1.25 5.890625 L -1.25 2.234375 L 0.34375 2.234375 C 1.476562 2.234375 2.046875 1.582031 2.046875 0.28125 L 2.046875 -16.1875 L 8.15625 -16.1875 Z M 8.15625 0.890625 "/></g></g></g><g fill="#808080" fill-opacity="1"><g transform="translate(168.418626, 278.301133)"><g><path d="M 10.203125 -16.546875 C 13.046875 -16.546875 15.28125 -15.828125 16.90625 -14.390625 C 18.53125 -12.953125 19.34375 -10.851562 19.34375 -8.09375 C 19.34375 -5.332031 18.53125 -3.226562 16.90625 -1.78125 C 15.28125 -0.34375 13.046875 0.375 10.203125 0.375 C 7.367188 0.375 5.144531 -0.335938 3.53125 -1.765625 C 1.914062 -3.203125 1.109375 -5.3125 1.109375 -8.09375 C 1.109375 -10.875 1.914062 -12.976562 3.53125 -14.40625 C 5.144531 -15.832031 7.367188 -16.546875 10.203125 -16.546875 Z M 10.203125 -12.421875 C 8.203125 -12.421875 7.203125 -11.265625 7.203125 -8.953125 L 7.203125 -7.203125 C 7.203125 -4.910156 8.203125 -3.765625 10.203125 -3.765625 C 12.234375 -3.765625 13.25 -4.910156 13.25 -7.203125 L 13.25 -8.953125 C 13.25 -11.265625 12.234375 -12.421875 10.203125 -12.421875 Z M 10.203125 -12.421875 "/></g></g></g><g fill="#808080" fill-opacity="1"><g transform="translate(188.858574, 278.301133)"><g><path d="M 11.6875 -16.578125 C 12.15625 -16.578125 12.570312 -16.519531 12.9375 -16.40625 C 13.300781 -16.300781 13.484375 -16.238281 13.484375 -16.21875 L 13.484375 -11.09375 L 11.53125 -11.09375 C 10.257812 -11.09375 9.34375 -10.765625 8.78125 -10.109375 C 8.21875 -9.460938 7.9375 -8.492188 7.9375 -7.203125 L 7.9375 0 L 1.84375 0 L 1.84375 -16.1875 L 6.84375 -16.1875 L 7.234375 -13.734375 C 7.597656 -14.671875 8.175781 -15.378906 8.96875 -15.859375 C 9.769531 -16.335938 10.675781 -16.578125 11.6875 -16.578125 Z M 11.6875 -16.578125 "/></g></g></g><g fill="#808080" fill-opacity="1"><g transform="translate(202.464774, 278.301133)"><g/></g></g><g fill="#808080" fill-opacity="1"><g transform="translate(212.669424, 278.301133)"><g><path d="M 10.203125 -16.546875 C 13.046875 -16.546875 15.28125 -15.828125 16.90625 -14.390625 C 18.53125 -12.953125 19.34375 -10.851562 19.34375 -8.09375 C 19.34375 -5.332031 18.53125 -3.226562 16.90625 -1.78125 C 15.28125 -0.34375 13.046875 0.375 10.203125 0.375 C 7.367188 0.375 5.144531 -0.335938 3.53125 -1.765625 C 1.914062 -3.203125 1.109375 -5.3125 1.109375 -8.09375 C 1.109375 -10.875 1.914062 -12.976562 3.53125 -14.40625 C 5.144531 -15.832031 7.367188 -16.546875 10.203125 -16.546875 Z M 10.203125 -12.421875 C 8.203125 -12.421875 7.203125 -11.265625 7.203125 -8.953125 L 7.203125 -7.203125 C 7.203125 -4.910156 8.203125 -3.765625 10.203125 -3.765625 C 12.234375 -3.765625 13.25 -4.910156 13.25 -7.203125 L 13.25 -8.953125 C 13.25 -11.265625 12.234375 -12.421875 10.203125 -12.421875 Z M 10.203125 -12.421875 "/></g></g></g><g fill="#808080" fill-opacity="1"><g transform="translate(233.109372, 278.301133)"><g><path d="M 12.5 -16.546875 C 14.6875 -16.546875 16.375 -15.832031 17.5625 -14.40625 C 18.75 -12.976562 19.34375 -10.863281 19.34375 -8.0625 C 19.34375 -5.28125 18.75 -3.175781 17.5625 -1.75 C 16.375 -0.332031 14.6875 0.375 12.5 0.375 C 10.625 0.375 9.113281 -0.238281 7.96875 -1.46875 L 7.96875 6.046875 L 1.875 6.046875 L 1.875 -16.1875 L 6.84375 -16.1875 L 7.359375 -13.890625 C 8.546875 -15.660156 10.257812 -16.546875 12.5 -16.546875 Z M 10.609375 -12.046875 C 9.710938 -12.046875 9.035156 -11.726562 8.578125 -11.09375 C 8.128906 -10.457031 7.90625 -9.628906 7.90625 -8.609375 L 7.90625 -7.609375 C 7.90625 -6.578125 8.128906 -5.738281 8.578125 -5.09375 C 9.035156 -4.457031 9.710938 -4.140625 10.609375 -4.140625 C 12.367188 -4.140625 13.25 -5.191406 13.25 -7.296875 L 13.25 -8.921875 C 13.25 -11.003906 12.367188 -12.046875 10.609375 -12.046875 Z M 10.609375 -12.046875 "/></g></g></g><g fill="#808080" fill-opacity="1"><g transform="translate(253.549319, 278.301133)"><g><path d="M 10.203125 -16.546875 C 12.859375 -16.546875 15.007812 -15.976562 16.65625 -14.84375 C 18.300781 -13.71875 19.125 -11.988281 19.125 -9.65625 L 13.21875 -9.65625 C 13.21875 -11.5 12.210938 -12.421875 10.203125 -12.421875 C 8.203125 -12.421875 7.203125 -11.265625 7.203125 -8.953125 L 7.203125 -7.203125 C 7.203125 -4.910156 8.242188 -3.765625 10.328125 -3.765625 C 12.410156 -3.765625 13.453125 -4.707031 13.453125 -6.59375 L 19.125 -6.59375 C 19.125 -4.238281 18.300781 -2.488281 16.65625 -1.34375 C 15.007812 -0.195312 12.859375 0.375 10.203125 0.375 C 7.367188 0.375 5.144531 -0.335938 3.53125 -1.765625 C 1.914062 -3.203125 1.109375 -5.3125 1.109375 -8.09375 C 1.109375 -10.875 1.914062 -12.976562 3.53125 -14.40625 C 5.144531 -15.832031 7.367188 -16.546875 10.203125 -16.546875 Z M 10.203125 -16.546875 "/></g></g></g><g fill="#808080" fill-opacity="1"><g transform="translate(273.989267, 278.301133)"><g><path d="M 2.046875 -18.09375 L 2.046875 -22.21875 L 8.15625 -22.21875 L 8.15625 -18.09375 Z M 2.046875 0 L 2.046875 -16.1875 L 8.15625 -16.1875 L 8.15625 0 Z M 2.046875 0 "/></g></g></g><g fill="#808080" fill-opacity="1"><g transform="translate(284.193917, 278.301133)"><g><path d="M 7.265625 -18.15625 L 10.109375 -22.21875 L 16 -22.21875 L 16.0625 -22.109375 L 11.1875 -18.15625 Z M 10.203125 -16.546875 C 13.046875 -16.546875 15.28125 -15.828125 16.90625 -14.390625 C 18.53125 -12.953125 19.34375 -10.851562 19.34375 -8.09375 C 19.34375 -5.332031 18.53125 -3.226562 16.90625 -1.78125 C 15.28125 -0.34375 13.046875 0.375 10.203125 0.375 C 7.367188 0.375 5.144531 -0.335938 3.53125 -1.765625 C 1.914062 -3.203125 1.109375 -5.3125 1.109375 -8.09375 C 1.109375 -10.875 1.914062 -12.976562 3.53125 -14.40625 C 5.144531 -15.832031 7.367188 -16.546875 10.203125 -16.546875 Z M 10.203125 -12.421875 C 8.203125 -12.421875 7.203125 -11.265625 7.203125 -8.953125 L 7.203125 -7.203125 C 7.203125 -4.910156 8.203125 -3.765625 10.203125 -3.765625 C 12.234375 -3.765625 13.25 -4.910156 13.25 -7.203125 L 13.25 -8.953125 C 13.25 -11.265625 12.234375 -12.421875 10.203125 -12.421875 Z M 10.203125 -12.421875 "/></g></g></g><g fill="#808080" fill-opacity="1"><g transform="translate(304.633864, 278.301133)"><g><path d="M 13 -16.546875 C 14.875 -16.546875 16.28125 -16.023438 17.21875 -14.984375 C 18.164062 -13.941406 18.640625 -12.441406 18.640625 -10.484375 L 18.640625 0 L 12.53125 0 L 12.53125 -9.75 C 12.53125 -10.445312 12.351562 -11.003906 12 -11.421875 C 11.644531 -11.835938 11.140625 -12.046875 10.484375 -12.046875 C 9.722656 -12.046875 9.109375 -11.800781 8.640625 -11.3125 C 8.171875 -10.820312 7.9375 -10.21875 7.9375 -9.5 L 7.9375 0 L 1.84375 0 L 1.84375 -16.1875 L 6.84375 -16.1875 L 7.234375 -13.734375 C 7.867188 -14.585938 8.703125 -15.269531 9.734375 -15.78125 C 10.765625 -16.289062 11.851562 -16.546875 13 -16.546875 Z M 13 -16.546875 "/></g></g></g><g fill="#808080" fill-opacity="1"><g transform="translate(325.073812, 278.301133)"><g><path d="M 3.125 -7.546875 L 1.4375 -21.09375 L 8.765625 -21.09375 L 7.015625 -7.546875 Z M 2.046875 0 L 2.046875 -5.671875 L 8.125 -5.671875 L 8.125 0 Z M 2.046875 0 "/></g></g></g><path stroke-linecap="butt" transform="matrix(0.75, 0, 0, 0.75, 11.69638, 249.196332)" fill="none" stroke-linejoin="miter" d="M 46.451705 22.983017 L 46.451705 15.415308 L 54.545455 15.415308 L 54.545455 22.983017 Z M 45.644413 43.535101 L 47.889205 25.477808 L 53.076705 25.477808 L 55.40483 43.535101 Z M 60.347539 8.884057 L 69.37879 8.884057 L 69.37879 29.805934 L 83.805874 29.805934 L 83.805874 36.998643 L 60.347539 36.998643 Z M 97.701708 14.930933 C 100.993375 14.930933 103.670459 15.483016 105.743375 16.587183 C 107.816292 17.69135 108.852751 19.483016 108.852751 21.962183 L 108.852751 30.373642 C 108.852751 30.842392 108.962126 31.2226 109.186084 31.519475 C 109.404834 31.821559 109.727751 31.972601 110.160042 31.972601 L 111.639209 31.972601 L 111.639209 36.670517 C 111.550667 36.722601 111.337126 36.811143 110.998584 36.941351 C 110.660042 37.061143 110.175667 37.180934 109.545459 37.300726 C 108.920459 37.425726 108.201709 37.488226 107.389209 37.488226 C 105.805875 37.488226 104.498584 37.253851 103.47775 36.779893 C 102.456917 36.300726 101.759 35.639267 101.373583 34.795517 C 100.342333 35.613226 99.180875 36.269476 97.899625 36.759059 C 96.623583 37.248643 95.123583 37.488226 93.410041 37.488226 C 88.342333 37.488226 85.805874 35.472601 85.805874 31.44135 C 85.805874 29.3476 86.368374 27.748642 87.503791 26.644475 C 88.633999 25.540308 90.258999 24.7851 92.378791 24.37885 C 94.509 23.967392 97.29025 23.759058 100.722542 23.759058 L 100.722542 22.69135 C 100.722542 21.8476 100.430875 21.206975 99.842333 20.774683 C 99.259 20.337183 98.503792 20.118433 97.581916 20.118433 C 96.732958 20.118433 96.003791 20.264266 95.384 20.56635 C 94.774625 20.863225 94.467333 21.342391 94.467333 22.00385 L 94.467333 22.1601 L 86.451707 22.1601 C 86.425666 22.029892 86.415249 21.842392 86.415249 21.592392 C 86.415249 19.550725 87.389207 17.930933 89.337124 16.733016 C 91.285041 15.529891 94.0715 14.930933 97.701708 14.930933 Z M 100.722542 27.602809 C 98.410041 27.602809 96.6965 27.852809 95.592333 28.358017 C 94.488166 28.858017 93.936083 29.529892 93.936083 30.373642 C 93.936083 31.738226 94.863166 32.420517 96.722541 32.420517 C 97.779833 32.420517 98.712125 32.134059 99.514208 31.561142 C 100.3215 30.988225 100.722542 30.279892 100.722542 29.436142 Z M 156.540254 14.930933 C 158.993379 14.930933 160.831921 15.628849 162.055879 17.0351 C 163.279837 18.436141 163.894421 20.430933 163.894421 23.019475 L 163.894421 36.998643 L 155.759004 36.998643 L 155.759004 23.998642 C 155.759004 23.071558 155.535045 22.331975 155.08192 21.774683 C 154.639212 21.212183 154.003795 20.936141 153.186087 20.936141 C 152.232962 20.936141 151.462128 21.264266 150.86317 21.925725 C 150.264212 22.576767 149.962128 23.37885 149.962128 24.326767 L 149.962128 36.998643 L 141.821503 36.998643 L 141.821503 23.998642 C 141.821503 23.071558 141.597544 22.331975 141.144419 21.774683 C 140.696503 21.212183 140.066294 20.936141 139.248586 20.936141 C 138.295461 20.936141 137.519419 21.264266 136.920461 21.925725 C 136.321502 22.576767 136.024627 23.37885 136.024627 24.326767 L 136.024627 36.998643 L 127.894418 36.998643 L 127.894418 15.415308 L 134.545461 15.415308 L 135.087127 18.649683 C 135.904836 17.50385 136.988169 16.602808 138.326711 15.936141 C 139.680878 15.264266 141.102753 14.930933 142.597544 14.930933 C 145.847545 14.930933 148.029836 16.170516 149.14442 18.649683 C 149.98817 17.50385 151.071503 16.602808 152.389212 15.936141 C 153.712128 15.264266 155.097545 14.930933 156.540254 14.930933 Z M 179.904839 14.930933 C 183.857964 14.930933 186.873589 15.858016 188.956922 17.712183 C 191.045464 19.561141 192.092339 22.394475 192.092339 26.212183 L 192.092339 27.602809 L 175.904838 27.602809 C 175.904838 29.149684 176.253797 30.321559 176.941297 31.113225 C 177.634005 31.904892 178.732963 32.300726 180.238172 32.300726 C 181.597547 32.300726 182.602755 32.014267 183.238172 31.44135 C 183.878797 30.868434 184.196505 30.108017 184.196505 29.154892 L 192.092339 29.154892 C 192.092339 31.769476 191.097548 33.811142 189.107964 35.285101 C 187.118381 36.753851 184.21213 37.488226 180.394422 37.488226 C 176.389213 37.488226 173.285046 36.555934 171.076713 34.696559 C 168.868379 32.826767 167.764213 29.998642 167.764213 26.212183 C 167.764213 22.509058 168.842338 19.701766 170.998588 17.790308 C 173.14963 15.884058 176.123588 14.930933 179.904839 14.930933 Z M 180.238172 20.118433 C 177.675672 20.118433 176.24338 21.331975 175.946505 23.759058 L 183.86838 23.759058 C 183.86838 22.639267 183.550672 21.759058 182.910047 21.102808 C 182.269422 20.446558 181.378797 20.118433 180.238172 20.118433 Z M 196.285048 12.884058 L 196.285048 7.363224 L 204.425673 7.363224 L 204.425673 12.884058 Z M 204.425673 38.186143 C 204.425673 40.800726 203.831923 42.686143 202.639215 43.842393 C 201.456923 45.003851 199.555881 45.581976 196.941298 45.581976 C 196.232965 45.581976 195.357965 45.50906 194.316298 45.373643 C 193.290256 45.238226 192.472548 45.061143 191.873589 44.842393 L 191.873589 39.983018 L 193.998589 39.983018 C 195.524631 39.983018 196.285048 39.113226 196.285048 37.368434 L 196.285048 15.415308 L 204.425673 15.415308 Z M 220.764216 14.930933 C 224.550675 14.930933 227.529842 15.889266 229.696508 17.811141 C 231.863175 19.733016 232.951717 22.5351 232.951717 26.212183 C 232.951717 29.894475 231.863175 32.691351 229.696508 34.613226 C 227.529842 36.529892 224.550675 37.488226 220.764216 37.488226 C 216.982966 37.488226 214.009007 36.535101 211.857966 34.634059 C 209.701715 32.727809 208.62359 29.920517 208.62359 26.212183 C 208.62359 22.509058 209.701715 19.701766 211.857966 17.790308 C 214.009007 15.884058 216.982966 14.930933 220.764216 14.930933 Z M 220.764216 20.446558 C 218.097549 20.446558 216.764216 21.988225 216.764216 25.06635 L 216.764216 27.389267 C 216.764216 30.446559 218.097549 31.972601 220.764216 31.972601 C 223.462133 31.972601 224.805883 30.446559 224.805883 27.389267 L 224.805883 25.06635 C 224.805883 21.988225 223.462133 20.446558 220.764216 20.446558 Z M 249.988176 14.889266 C 250.613176 14.889266 251.16526 14.967391 251.649635 15.118433 C 252.144427 15.264266 252.389218 15.352808 252.389218 15.378849 L 252.389218 22.201767 L 249.774635 22.201767 C 248.087135 22.201767 246.863176 22.639267 246.113176 23.509058 C 245.368384 24.37885 244.998593 25.675725 244.998593 27.389267 L 244.998593 36.998643 L 236.863176 36.998643 L 236.863176 15.415308 L 243.519426 15.415308 L 244.061093 18.69135 C 244.545468 17.44135 245.321509 16.493433 246.38401 15.858016 C 247.44651 15.212183 248.649635 14.889266 249.988176 14.889266 Z M 279.769428 14.930933 C 283.550679 14.930933 286.529846 15.889266 288.696512 17.811141 C 290.868387 19.733016 291.951721 22.5351 291.951721 26.212183 C 291.951721 29.894475 290.868387 32.691351 288.696512 34.613226 C 286.529846 36.529892 283.550679 37.488226 279.769428 37.488226 C 275.98297 37.488226 273.01422 36.535101 270.857969 34.634059 C 268.701719 32.727809 267.623594 29.920517 267.623594 26.212183 C 267.623594 22.509058 268.701719 19.701766 270.857969 17.790308 C 273.01422 15.884058 275.98297 14.930933 279.769428 14.930933 Z M 279.769428 20.446558 C 277.102762 20.446558 275.76422 21.988225 275.76422 25.06635 L 275.76422 27.389267 C 275.76422 30.446559 277.102762 31.972601 279.769428 31.972601 C 282.462137 31.972601 283.811095 30.446559 283.811095 27.389267 L 283.811095 25.06635 C 283.811095 21.988225 282.462137 20.446558 279.769428 20.446558 Z M 310.08193 14.930933 C 312.998597 14.930933 315.248597 15.884058 316.831931 17.790308 C 318.410056 19.701766 319.201723 22.519475 319.201723 26.25385 C 319.201723 29.956975 318.410056 32.759059 316.831931 34.654892 C 315.248597 36.545517 312.998597 37.488226 310.08193 37.488226 C 307.576722 37.488226 305.561097 36.670517 304.035055 35.035101 L 304.035055 45.050726 L 295.904846 45.050726 L 295.904846 15.415308 L 302.51943 15.415308 L 303.217347 18.488225 C 304.80068 16.118433 307.092347 14.930933 310.08193 14.930933 Z M 307.55068 20.936141 C 306.352763 20.936141 305.45693 21.358016 304.857972 22.201767 C 304.259013 23.045517 303.95693 24.149683 303.95693 25.514267 L 303.95693 26.863225 C 303.95693 28.227809 304.259013 29.337184 304.857972 30.196559 C 305.45693 31.050725 306.352763 31.483017 307.55068 31.483017 C 309.889222 31.483017 311.061097 30.076767 311.061097 27.269475 L 311.061097 25.108017 C 311.061097 22.326767 309.889222 20.936141 307.55068 20.936141 Z M 334.27464 14.930933 C 337.811099 14.930933 340.680891 15.686141 342.873599 17.201766 C 345.071516 18.712183 346.170474 21.019475 346.170474 24.12885 L 338.274641 24.12885 C 338.274641 21.675725 336.941307 20.446558 334.27464 20.446558 C 331.607973 20.446558 330.27464 21.988225 330.27464 25.06635 L 330.27464 27.389267 C 330.27464 30.446559 331.660057 31.972601 334.436099 31.972601 C 337.212141 31.972601 338.602766 30.717392 338.602766 28.206975 L 346.170474 28.206975 C 346.170474 31.342392 345.071516 33.675726 342.873599 35.201767 C 340.680891 36.727809 337.811099 37.488226 334.27464 37.488226 C 330.488182 37.488226 327.519432 36.535101 325.363181 34.634059 C 323.206931 32.727809 322.128806 29.920517 322.128806 26.212183 C 322.128806 22.509058 323.206931 19.701766 325.363181 17.790308 C 327.519432 15.884058 330.488182 14.930933 334.27464 14.930933 Z M 350.649641 12.884058 L 350.649641 7.363224 L 358.795475 7.363224 L 358.795475 12.884058 Z M 350.649641 36.998643 L 350.649641 15.415308 L 358.795475 15.415308 L 358.795475 36.998643 Z M 371.212143 12.800724 L 375.014226 7.363224 L 382.857977 7.363224 L 382.936102 7.535099 L 376.44131 12.800724 Z M 375.134018 14.930933 C 378.920477 14.930933 381.894435 15.889266 384.06631 17.811141 C 386.232977 19.733016 387.31631 22.5351 387.31631 26.212183 C 387.31631 29.894475 386.232977 32.691351 384.06631 34.613226 C 381.894435 36.529892 378.920477 37.488226 375.134018 37.488226 C 371.347559 37.488226 368.378809 36.535101 366.222559 34.634059 C 364.066309 32.727809 362.988184 29.920517 362.988184 26.212183 C 362.988184 22.509058 364.066309 19.701766 366.222559 17.790308 C 368.378809 15.884058 371.347559 14.930933 375.134018 14.930933 Z M 375.134018 20.446558 C 372.467351 20.446558 371.134018 21.988225 371.134018 25.06635 L 371.134018 27.389267 C 371.134018 30.446559 372.467351 31.972601 375.134018 31.972601 C 377.826727 31.972601 379.175685 30.446559 379.175685 27.389267 L 379.175685 25.06635 C 379.175685 21.988225 377.826727 20.446558 375.134018 20.446558 Z M 406.107978 14.930933 C 408.618395 14.930933 410.493395 15.623641 411.748604 17.014266 C 412.998604 18.404891 413.623604 20.404891 413.623604 23.019475 L 413.623604 36.998643 L 405.488187 36.998643 L 405.488187 23.998642 C 405.488187 23.071558 405.248603 22.331975 404.769437 21.774683 C 404.300687 21.212183 403.628812 20.936141 402.753811 20.936141 C 401.743395 20.936141 400.925686 21.264266 400.300686 21.925725 C 399.675686 22.576767 399.363186 23.37885 399.363186 24.326767 L 399.363186 36.998643 L 391.232977 36.998643 L 391.232977 15.415308 L 397.889228 15.415308 L 398.425686 18.69135 C 399.269436 17.545516 400.378811 16.634058 401.748603 15.956974 C 403.123603 15.269474 404.576728 14.930933 406.107978 14.930933 Z M 420.201729 26.94135 L 417.956937 8.884057 L 427.712146 8.884057 L 425.38923 26.94135 Z M 418.764229 36.998643 L 418.764229 29.436142 L 426.85798 29.436142 L 426.85798 36.998643 Z M 418.764229 36.998643 " stroke="#000000" stroke-width="1.532775" stroke-opacity="1" stroke-miterlimit="4"/><g fill="#000000" fill-opacity="1"><g transform="translate(152.483828, 314.82033)"><g><path d="M 1.109375 -8.421875 L 4.765625 -8.421875 C 5.640625 -8.421875 6.328125 -8.234375 6.828125 -7.859375 C 7.335938 -7.484375 7.59375 -6.96875 7.59375 -6.3125 C 7.59375 -5.84375 7.457031 -5.441406 7.1875 -5.109375 C 6.925781 -4.773438 6.566406 -4.550781 6.109375 -4.4375 C 6.671875 -4.34375 7.113281 -4.109375 7.4375 -3.734375 C 7.757812 -3.359375 7.921875 -2.882812 7.921875 -2.3125 C 7.921875 -1.59375 7.644531 -1.023438 7.09375 -0.609375 C 6.550781 -0.203125 5.800781 0 4.84375 0 L 1.109375 0 Z M 2.53125 -7.15625 L 2.53125 -4.9375 L 4.6875 -4.9375 C 5.132812 -4.9375 5.488281 -5.035156 5.75 -5.234375 C 6.007812 -5.429688 6.140625 -5.707031 6.140625 -6.0625 C 6.140625 -6.414062 6.007812 -6.6875 5.75 -6.875 C 5.5 -7.0625 5.144531 -7.15625 4.6875 -7.15625 Z M 2.53125 -3.6875 L 2.53125 -1.265625 L 4.6875 -1.265625 C 5.25 -1.265625 5.679688 -1.367188 5.984375 -1.578125 C 6.296875 -1.796875 6.453125 -2.097656 6.453125 -2.484375 C 6.453125 -2.859375 6.296875 -3.148438 5.984375 -3.359375 C 5.671875 -3.578125 5.238281 -3.6875 4.6875 -3.6875 Z M 2.53125 -3.6875 "/></g></g></g><g fill="#000000" fill-opacity="1"><g transform="translate(160.980585, 314.82033)"><g><path d="M 6.453125 -6.40625 L 3.53125 0.875 C 3.144531 1.882812 2.453125 2.390625 1.453125 2.390625 C 0.898438 2.390625 0.40625 2.210938 -0.03125 1.859375 L 0.5625 0.78125 C 0.851562 0.988281 1.128906 1.09375 1.390625 1.09375 C 1.828125 1.09375 2.15625 0.859375 2.375 0.390625 L 2.59375 -0.09375 L -0.0625 -6.40625 L 1.375 -6.40625 L 3.28125 -1.546875 L 5.0625 -6.40625 Z M 6.453125 -6.40625 "/></g></g></g><g fill="#000000" fill-opacity="1"><g transform="translate(167.371206, 314.82033)"><g/></g></g><g fill="#000000" fill-opacity="1"><g transform="translate(170.476251, 314.82033)"><g><path d="M 7.125 -7.140625 L 2.53125 -7.140625 L 2.53125 -4.875 L 6.640625 -4.875 L 6.640625 -3.59375 L 2.53125 -3.59375 L 2.53125 -1.28125 L 7.265625 -1.28125 L 7.265625 0 L 1.109375 0 L 1.109375 -8.421875 L 7.125 -8.421875 Z M 7.125 -7.140625 "/></g></g></g><g fill="#000000" fill-opacity="1"><g transform="translate(178.371255, 314.82033)"><g><path d="M 4.859375 0 L 4.859375 -0.78125 C 4.398438 -0.21875 3.695312 0.0625 2.75 0.0625 C 2.0625 0.0625 1.515625 -0.125 1.109375 -0.5 C 0.703125 -0.875 0.5 -1.347656 0.5 -1.921875 C 0.5 -2.503906 0.707031 -2.96875 1.125 -3.3125 C 1.550781 -3.664062 2.144531 -3.84375 2.90625 -3.84375 L 4.84375 -3.84375 L 4.84375 -4.046875 C 4.84375 -4.453125 4.710938 -4.765625 4.453125 -4.984375 C 4.191406 -5.210938 3.816406 -5.328125 3.328125 -5.328125 C 2.703125 -5.328125 2.070312 -5.113281 1.4375 -4.6875 L 0.859375 -5.640625 C 1.347656 -5.929688 1.785156 -6.140625 2.171875 -6.265625 C 2.566406 -6.390625 3.050781 -6.453125 3.625 -6.453125 C 4.4375 -6.453125 5.066406 -6.25 5.515625 -5.84375 C 5.972656 -5.445312 6.203125 -4.898438 6.203125 -4.203125 L 6.21875 0 Z M 3.03125 -1.03125 C 3.519531 -1.03125 3.929688 -1.144531 4.265625 -1.375 C 4.609375 -1.601562 4.800781 -1.894531 4.84375 -2.25 L 4.84375 -2.84375 L 3.109375 -2.84375 C 2.660156 -2.84375 2.328125 -2.773438 2.109375 -2.640625 C 1.898438 -2.503906 1.796875 -2.285156 1.796875 -1.984375 C 1.796875 -1.691406 1.90625 -1.457031 2.125 -1.28125 C 2.34375 -1.113281 2.644531 -1.03125 3.03125 -1.03125 Z M 3.03125 -1.03125 "/></g></g></g><g fill="#000000" fill-opacity="1"><g transform="translate(185.423802, 314.82033)"><g><path d="M 2.9375 -6.453125 C 3.820312 -6.453125 4.566406 -6.238281 5.171875 -5.8125 L 4.671875 -4.78125 C 4.054688 -5.164062 3.441406 -5.359375 2.828125 -5.359375 C 2.203125 -5.359375 1.890625 -5.144531 1.890625 -4.71875 C 1.890625 -4.507812 2.003906 -4.335938 2.234375 -4.203125 C 2.472656 -4.066406 2.753906 -3.953125 3.078125 -3.859375 C 3.410156 -3.765625 3.742188 -3.65625 4.078125 -3.53125 C 4.410156 -3.40625 4.691406 -3.203125 4.921875 -2.921875 C 5.160156 -2.640625 5.28125 -2.285156 5.28125 -1.859375 C 5.28125 -1.234375 5.046875 -0.757812 4.578125 -0.4375 C 4.109375 -0.113281 3.523438 0.046875 2.828125 0.046875 C 2.347656 0.046875 1.875 -0.03125 1.40625 -0.1875 C 0.945312 -0.34375 0.5625 -0.5625 0.25 -0.84375 L 0.75 -1.828125 C 1.019531 -1.585938 1.351562 -1.394531 1.75 -1.25 C 2.144531 -1.101562 2.523438 -1.03125 2.890625 -1.03125 C 3.203125 -1.03125 3.453125 -1.085938 3.640625 -1.203125 C 3.835938 -1.316406 3.9375 -1.488281 3.9375 -1.71875 C 3.9375 -1.957031 3.816406 -2.148438 3.578125 -2.296875 C 3.347656 -2.441406 3.066406 -2.554688 2.734375 -2.640625 C 2.410156 -2.734375 2.082031 -2.835938 1.75 -2.953125 C 1.425781 -3.078125 1.148438 -3.273438 0.921875 -3.546875 C 0.691406 -3.828125 0.578125 -4.179688 0.578125 -4.609375 C 0.578125 -5.210938 0.800781 -5.671875 1.25 -5.984375 C 1.707031 -6.296875 2.269531 -6.453125 2.9375 -6.453125 Z M 2.9375 -6.453125 "/></g></g></g><g fill="#000000" fill-opacity="1"><g transform="translate(191.080284, 314.82033)"><g><path d="M 6.453125 -6.40625 L 3.53125 0.875 C 3.144531 1.882812 2.453125 2.390625 1.453125 2.390625 C 0.898438 2.390625 0.40625 2.210938 -0.03125 1.859375 L 0.5625 0.78125 C 0.851562 0.988281 1.128906 1.09375 1.390625 1.09375 C 1.828125 1.09375 2.15625 0.859375 2.375 0.390625 L 2.59375 -0.09375 L -0.0625 -6.40625 L 1.375 -6.40625 L 3.28125 -1.546875 L 5.0625 -6.40625 Z M 6.453125 -6.40625 "/></g></g></g><g fill="#000000" fill-opacity="1"><g transform="translate(197.470905, 314.82033)"><g><path d="M 3.6875 -3.1875 L 0.734375 -3.1875 L 0.734375 -4.140625 L 3.6875 -4.140625 Z M 3.6875 -3.1875 "/></g></g></g><g fill="#000000" fill-opacity="1"><g transform="translate(201.899814, 314.82033)"><g><path d="M 3.875 -8.484375 C 4.96875 -8.484375 5.953125 -8.191406 6.828125 -7.609375 L 6.234375 -6.359375 C 5.367188 -6.878906 4.546875 -7.140625 3.765625 -7.140625 C 3.335938 -7.140625 3 -7.0625 2.75 -6.90625 C 2.507812 -6.757812 2.390625 -6.546875 2.390625 -6.265625 C 2.390625 -5.984375 2.5 -5.742188 2.71875 -5.546875 C 2.945312 -5.347656 3.226562 -5.203125 3.5625 -5.109375 C 3.90625 -5.023438 4.269531 -4.910156 4.65625 -4.765625 C 5.050781 -4.628906 5.414062 -4.484375 5.75 -4.328125 C 6.09375 -4.171875 6.375 -3.925781 6.59375 -3.59375 C 6.820312 -3.257812 6.9375 -2.851562 6.9375 -2.375 C 6.9375 -1.644531 6.640625 -1.054688 6.046875 -0.609375 C 5.453125 -0.171875 4.6875 0.046875 3.75 0.046875 C 3.113281 0.046875 2.492188 -0.0703125 1.890625 -0.3125 C 1.285156 -0.550781 0.757812 -0.875 0.3125 -1.28125 L 0.921875 -2.515625 C 1.347656 -2.117188 1.816406 -1.8125 2.328125 -1.59375 C 2.835938 -1.382812 3.320312 -1.28125 3.78125 -1.28125 C 4.28125 -1.28125 4.664062 -1.367188 4.9375 -1.546875 C 5.21875 -1.734375 5.359375 -1.988281 5.359375 -2.3125 C 5.359375 -2.601562 5.242188 -2.84375 5.015625 -3.03125 C 4.796875 -3.226562 4.515625 -3.375 4.171875 -3.46875 C 3.835938 -3.5625 3.472656 -3.671875 3.078125 -3.796875 C 2.679688 -3.929688 2.316406 -4.070312 1.984375 -4.21875 C 1.648438 -4.375 1.367188 -4.613281 1.140625 -4.9375 C 0.921875 -5.269531 0.8125 -5.671875 0.8125 -6.140625 C 0.8125 -6.847656 1.085938 -7.414062 1.640625 -7.84375 C 2.203125 -8.269531 2.945312 -8.484375 3.875 -8.484375 Z M 3.875 -8.484375 "/></g></g></g><g fill="#000000" fill-opacity="1"><g transform="translate(209.385622, 314.82033)"><g><path d="M 3.765625 -6.453125 C 4.753906 -6.453125 5.554688 -6.148438 6.171875 -5.546875 C 6.785156 -4.953125 7.09375 -4.171875 7.09375 -3.203125 C 7.09375 -2.234375 6.785156 -1.445312 6.171875 -0.84375 C 5.554688 -0.25 4.753906 0.046875 3.765625 0.046875 C 2.773438 0.046875 1.96875 -0.25 1.34375 -0.84375 C 0.726562 -1.445312 0.421875 -2.234375 0.421875 -3.203125 C 0.421875 -4.171875 0.726562 -4.953125 1.34375 -5.546875 C 1.96875 -6.148438 2.773438 -6.453125 3.765625 -6.453125 Z M 3.765625 -5.25 C 3.191406 -5.25 2.722656 -5.054688 2.359375 -4.671875 C 1.992188 -4.296875 1.8125 -3.800781 1.8125 -3.1875 C 1.8125 -2.570312 1.992188 -2.070312 2.359375 -1.6875 C 2.722656 -1.300781 3.191406 -1.109375 3.765625 -1.109375 C 4.335938 -1.109375 4.804688 -1.300781 5.171875 -1.6875 C 5.535156 -2.070312 5.71875 -2.570312 5.71875 -3.1875 C 5.71875 -3.800781 5.535156 -4.296875 5.171875 -4.671875 C 4.804688 -5.054688 4.335938 -5.25 3.765625 -5.25 Z M 3.765625 -5.25 "/></g></g></g><g fill="#000000" fill-opacity="1"><g transform="translate(216.907537, 314.82033)"><g><path d="M 3.53125 -7.78125 C 3.28125 -7.78125 3.070312 -7.707031 2.90625 -7.5625 C 2.738281 -7.414062 2.65625 -7.203125 2.65625 -6.921875 L 2.65625 -6.15625 L 4.328125 -6.15625 L 4.328125 -5.125 L 2.65625 -5.125 L 2.65625 0 L 1.28125 0 L 1.28125 -5.125 L 0.4375 -5.125 L 0.4375 -6.15625 L 1.28125 -6.15625 L 1.28125 -6.78125 C 1.28125 -7.488281 1.5 -8.03125 1.9375 -8.40625 C 2.375 -8.789062 2.890625 -8.984375 3.484375 -8.984375 C 4.046875 -8.984375 4.53125 -8.835938 4.9375 -8.546875 L 4.40625 -7.484375 C 4.132812 -7.679688 3.84375 -7.78125 3.53125 -7.78125 Z M 3.53125 -7.78125 "/></g></g></g><g fill="#000000" fill-opacity="1"><g transform="translate(221.03557, 314.82033)"><g><path d="M 4.296875 -1.46875 L 4.640625 -0.40625 C 4.109375 -0.09375 3.582031 0.0625 3.0625 0.0625 C 2.539062 0.0625 2.113281 -0.09375 1.78125 -0.40625 C 1.445312 -0.71875 1.28125 -1.1875 1.28125 -1.8125 L 1.28125 -5.125 L 0.375 -5.125 L 0.375 -6.15625 L 1.28125 -6.15625 L 1.28125 -7.921875 L 2.640625 -7.921875 L 2.640625 -6.15625 L 4.53125 -6.15625 L 4.53125 -5.125 L 2.640625 -5.125 L 2.640625 -2.0625 C 2.640625 -1.738281 2.695312 -1.507812 2.8125 -1.375 C 2.925781 -1.25 3.097656 -1.1875 3.328125 -1.1875 C 3.585938 -1.1875 3.910156 -1.28125 4.296875 -1.46875 Z M 4.296875 -1.46875 "/></g></g></g></svg>