<svg xmlns="http://www.w3.org/2000/svg" xmlns:xlink="http://www.w3.org/1999/xlink" width="500" zoomAndPan="magnify" viewBox="0 0 375 374.999991" height="500" preserveAspectRatio="xMidYMid meet" version="1.0"><defs><g/><clipPath id="id1"><path d="M 107 44.457031 L 307.398438 44.457031 L 307.398438 154 L 107 154 Z M 107 44.457031 " clip-rule="nonzero"/></clipPath><clipPath id="id2"><path d="M 196 151 L 219 151 L 219 172.707031 L 196 172.707031 Z M 196 151 " clip-rule="nonzero"/></clipPath><clipPath id="id3"><path d="M 266 151 L 289 151 L 289 172.707031 L 266 172.707031 Z M 266 151 " clip-rule="nonzero"/></clipPath><clipPath id="id4"><path d="M 67.398438 104 L 104 104 L 104 114 L 67.398438 114 Z M 67.398438 104 " clip-rule="nonzero"/></clipPath></defs><g clip-path="url(#id1)"><path fill="#1b3c68" d="M 307.394531 153.207031 L 177.019531 153.207031 L 145.839844 57.019531 L 107.613281 57.019531 L 107.613281 44.585938 L 154.839844 44.585938 L 186.019531 140.773438 L 307.394531 140.773438 Z M 307.394531 153.207031 " fill-opacity="1" fill-rule="nonzero"/></g><g clip-path="url(#id2)"><path fill="#29c6cd" d="M 218.183594 161.847656 C 218.183594 162.554688 218.113281 163.25 217.976562 163.941406 C 217.839844 164.632812 217.636719 165.300781 217.371094 165.953125 C 217.101562 166.601562 216.773438 167.21875 216.382812 167.804688 C 215.992188 168.390625 215.550781 168.933594 215.054688 169.429688 C 214.558594 169.925781 214.019531 170.371094 213.4375 170.761719 C 212.851562 171.152344 212.238281 171.484375 211.589844 171.753906 C 210.941406 172.023438 210.273438 172.226562 209.585938 172.363281 C 208.898438 172.5 208.203125 172.570312 207.5 172.570312 C 206.800781 172.570312 206.105469 172.5 205.417969 172.363281 C 204.730469 172.226562 204.0625 172.023438 203.414062 171.753906 C 202.765625 171.484375 202.148438 171.152344 201.566406 170.761719 C 200.984375 170.371094 200.445312 169.925781 199.949219 169.429688 C 199.453125 168.933594 199.007812 168.390625 198.621094 167.804688 C 198.230469 167.21875 197.902344 166.601562 197.632812 165.953125 C 197.363281 165.300781 197.160156 164.632812 197.023438 163.941406 C 196.886719 163.25 196.820312 162.554688 196.820312 161.847656 C 196.820312 161.144531 196.886719 160.449219 197.023438 159.757812 C 197.160156 159.066406 197.363281 158.398438 197.632812 157.746094 C 197.902344 157.097656 198.230469 156.480469 198.621094 155.894531 C 199.007812 155.308594 199.453125 154.765625 199.949219 154.269531 C 200.445312 153.769531 200.984375 153.328125 201.566406 152.9375 C 202.148438 152.542969 202.765625 152.214844 203.414062 151.945312 C 204.0625 151.675781 204.730469 151.472656 205.417969 151.335938 C 206.105469 151.199219 206.800781 151.128906 207.5 151.128906 C 208.203125 151.128906 208.898438 151.199219 209.585938 151.335938 C 210.273438 151.472656 210.941406 151.675781 211.589844 151.945312 C 212.238281 152.214844 212.851562 152.542969 213.4375 152.9375 C 214.019531 153.328125 214.558594 153.769531 215.054688 154.269531 C 215.550781 154.765625 215.992188 155.308594 216.382812 155.894531 C 216.773438 156.480469 217.101562 157.097656 217.371094 157.746094 C 217.636719 158.398438 217.839844 159.066406 217.976562 159.757812 C 218.113281 160.449219 218.183594 161.144531 218.183594 161.847656 Z M 218.183594 161.847656 " fill-opacity="1" fill-rule="nonzero"/></g><g clip-path="url(#id3)"><path fill="#29c6cd" d="M 288.277344 161.847656 C 288.277344 162.554688 288.210938 163.25 288.070312 163.941406 C 287.933594 164.632812 287.734375 165.300781 287.464844 165.953125 C 287.195312 166.601562 286.867188 167.21875 286.476562 167.804688 C 286.085938 168.390625 285.644531 168.933594 285.148438 169.429688 C 284.652344 169.925781 284.113281 170.371094 283.53125 170.761719 C 282.945312 171.152344 282.332031 171.484375 281.683594 171.753906 C 281.035156 172.023438 280.367188 172.226562 279.679688 172.363281 C 278.992188 172.5 278.296875 172.570312 277.59375 172.570312 C 276.894531 172.570312 276.199219 172.5 275.511719 172.363281 C 274.824219 172.226562 274.15625 172.023438 273.507812 171.753906 C 272.859375 171.484375 272.246094 171.152344 271.660156 170.761719 C 271.078125 170.371094 270.539062 169.925781 270.042969 169.429688 C 269.546875 168.933594 269.105469 168.390625 268.714844 167.804688 C 268.324219 167.21875 267.996094 166.601562 267.726562 165.953125 C 267.457031 165.300781 267.253906 164.632812 267.117188 163.941406 C 266.980469 163.25 266.914062 162.554688 266.914062 161.847656 C 266.914062 161.144531 266.980469 160.449219 267.117188 159.757812 C 267.253906 159.066406 267.457031 158.398438 267.726562 157.746094 C 267.996094 157.097656 268.324219 156.480469 268.714844 155.894531 C 269.105469 155.308594 269.546875 154.765625 270.042969 154.269531 C 270.539062 153.769531 271.078125 153.328125 271.660156 152.9375 C 272.246094 152.542969 272.859375 152.214844 273.507812 151.945312 C 274.15625 151.675781 274.824219 151.472656 275.511719 151.335938 C 276.199219 151.199219 276.894531 151.128906 277.59375 151.128906 C 278.296875 151.128906 278.992188 151.199219 279.679688 151.335938 C 280.367188 151.472656 281.035156 151.675781 281.683594 151.945312 C 282.332031 152.214844 282.945312 152.542969 283.53125 152.9375 C 284.113281 153.328125 284.652344 153.769531 285.148438 154.269531 C 285.644531 154.765625 286.085938 155.308594 286.476562 155.894531 C 286.867188 156.480469 287.195312 157.097656 287.464844 157.746094 C 287.734375 158.398438 287.933594 159.066406 288.070312 159.757812 C 288.210938 160.449219 288.277344 161.144531 288.277344 161.847656 Z M 288.277344 161.847656 " fill-opacity="1" fill-rule="nonzero"/></g><path fill="#29c6cd" d="M 239.332031 126.121094 C 239.332031 126.644531 239.28125 127.164062 239.179688 127.679688 C 239.078125 128.195312 238.925781 128.695312 238.726562 129.179688 C 238.527344 129.664062 238.28125 130.125 237.992188 130.5625 C 237.699219 131 237.371094 131.402344 237 131.773438 C 236.628906 132.144531 236.226562 132.476562 235.792969 132.765625 C 235.359375 133.058594 234.898438 133.304688 234.417969 133.503906 C 233.933594 133.707031 233.433594 133.859375 232.921875 133.960938 C 232.410156 134.0625 231.890625 134.113281 231.367188 134.113281 C 230.847656 134.113281 230.328125 134.0625 229.816406 133.960938 C 229.300781 133.859375 228.804688 133.707031 228.320312 133.503906 C 227.835938 133.304688 227.378906 133.058594 226.945312 132.765625 C 226.507812 132.476562 226.105469 132.144531 225.738281 131.773438 C 225.367188 131.402344 225.039062 131 224.746094 130.5625 C 224.457031 130.125 224.210938 129.664062 224.011719 129.179688 C 223.808594 128.695312 223.660156 128.195312 223.558594 127.679688 C 223.457031 127.164062 223.40625 126.644531 223.40625 126.121094 C 223.40625 125.597656 223.457031 125.078125 223.558594 124.5625 C 223.660156 124.046875 223.808594 123.546875 224.011719 123.0625 C 224.210938 122.578125 224.457031 122.117188 224.746094 121.679688 C 225.039062 121.246094 225.367188 120.839844 225.738281 120.46875 C 226.105469 120.097656 226.507812 119.765625 226.945312 119.476562 C 227.378906 119.183594 227.835938 118.9375 228.320312 118.738281 C 228.804688 118.535156 229.300781 118.382812 229.816406 118.28125 C 230.328125 118.179688 230.847656 118.128906 231.367188 118.128906 C 231.890625 118.128906 232.410156 118.179688 232.921875 118.28125 C 233.433594 118.382812 233.933594 118.535156 234.417969 118.738281 C 234.898438 118.9375 235.359375 119.183594 235.792969 119.476562 C 236.226562 119.765625 236.628906 120.097656 237 120.46875 C 237.371094 120.839844 237.699219 121.246094 237.992188 121.679688 C 238.28125 122.117188 238.527344 122.578125 238.726562 123.0625 C 238.925781 123.546875 239.078125 124.046875 239.179688 124.5625 C 239.28125 125.078125 239.332031 125.597656 239.332031 126.121094 Z M 239.332031 126.121094 " fill-opacity="1" fill-rule="nonzero"/><path fill="#29c6cd" d="M 293.929688 82.441406 C 292.722656 82.441406 291.632812 82.085938 290.65625 81.371094 C 261.707031 60.152344 224.785156 55.835938 183.890625 68.890625 C 183.542969 69 183.1875 69.074219 182.824219 69.117188 C 182.460938 69.15625 182.097656 69.160156 181.734375 69.132812 C 181.371094 69.101562 181.015625 69.035156 180.664062 68.933594 C 180.316406 68.832031 179.976562 68.695312 179.652344 68.527344 C 179.328125 68.359375 179.023438 68.160156 178.738281 67.933594 C 178.457031 67.703125 178.195312 67.449219 177.960938 67.171875 C 177.726562 66.890625 177.519531 66.589844 177.34375 66.269531 C 177.167969 65.949219 177.023438 65.613281 176.914062 65.265625 C 176.800781 64.917969 176.726562 64.558594 176.6875 64.195312 C 176.644531 63.832031 176.640625 63.46875 176.671875 63.105469 C 176.703125 62.738281 176.769531 62.378906 176.871094 62.027344 C 176.972656 61.675781 177.105469 61.339844 177.273438 61.015625 C 177.441406 60.6875 177.636719 60.382812 177.867188 60.097656 C 178.09375 59.8125 178.347656 59.550781 178.625 59.3125 C 178.902344 59.078125 179.203125 58.871094 179.523438 58.695312 C 179.84375 58.519531 180.175781 58.375 180.523438 58.261719 C 202.46875 51.261719 223.597656 48.898438 243.332031 51.253906 C 263.203125 53.617188 281.335938 60.722656 297.222656 72.367188 C 297.699219 72.714844 298.105469 73.125 298.449219 73.601562 C 298.792969 74.078125 299.054688 74.597656 299.234375 75.15625 C 299.414062 75.714844 299.503906 76.289062 299.503906 76.878906 C 299.503906 77.46875 299.410156 78.042969 299.230469 78.601562 C 299.046875 79.160156 298.785156 79.675781 298.4375 80.152344 C 298.09375 80.628906 297.683594 81.039062 297.207031 81.382812 C 296.734375 81.726562 296.21875 81.992188 295.660156 82.171875 C 295.101562 82.355469 294.53125 82.445312 293.941406 82.441406 Z M 293.929688 82.441406 " fill-opacity="1" fill-rule="nonzero"/><path fill="#29c6cd" d="M 271.75 99.675781 C 270.542969 99.679688 269.453125 99.320312 268.476562 98.605469 C 248.367188 83.859375 228.523438 81.558594 199.980469 90.667969 C 199.632812 90.777344 199.277344 90.855469 198.917969 90.894531 C 198.554688 90.9375 198.191406 90.941406 197.828125 90.910156 C 197.464844 90.878906 197.105469 90.8125 196.757812 90.710938 C 196.40625 90.609375 196.070312 90.472656 195.746094 90.304688 C 195.421875 90.136719 195.117188 89.941406 194.832031 89.710938 C 194.546875 89.484375 194.285156 89.230469 194.050781 88.949219 C 193.816406 88.667969 193.609375 88.367188 193.433594 88.046875 C 193.257812 87.726562 193.113281 87.394531 193.003906 87.042969 C 192.894531 86.695312 192.816406 86.339844 192.777344 85.976562 C 192.738281 85.613281 192.730469 85.246094 192.761719 84.882812 C 192.792969 84.519531 192.859375 84.160156 192.960938 83.808594 C 193.0625 83.457031 193.195312 83.117188 193.363281 82.792969 C 193.53125 82.46875 193.730469 82.160156 193.957031 81.875 C 194.183594 81.589844 194.4375 81.328125 194.714844 81.09375 C 194.996094 80.855469 195.292969 80.652344 195.613281 80.472656 C 195.933594 80.296875 196.265625 80.152344 196.613281 80.042969 C 212.71875 74.894531 226.699219 73.179688 239.339844 74.753906 C 251.871094 76.316406 263.542969 81.179688 275.054688 89.609375 C 275.527344 89.957031 275.933594 90.367188 276.277344 90.84375 C 276.621094 91.320312 276.882812 91.839844 277.0625 92.398438 C 277.246094 92.957031 277.332031 93.53125 277.332031 94.121094 C 277.332031 94.710938 277.238281 95.285156 277.058594 95.84375 C 276.875 96.402344 276.613281 96.917969 276.265625 97.394531 C 275.921875 97.871094 275.511719 98.28125 275.035156 98.625 C 274.5625 98.972656 274.046875 99.234375 273.488281 99.414062 C 272.929688 99.597656 272.359375 99.6875 271.773438 99.683594 Z M 271.75 99.675781 " fill-opacity="1" fill-rule="nonzero"/><path fill="#29c6cd" d="M 254.628906 117.59375 C 253.421875 117.59375 252.332031 117.238281 251.355469 116.519531 C 239.242188 107.640625 229.421875 106.46875 212.421875 111.898438 C 212.074219 112.007812 211.722656 112.085938 211.359375 112.125 C 210.996094 112.167969 210.632812 112.171875 210.269531 112.140625 C 209.90625 112.109375 209.550781 112.042969 209.199219 111.941406 C 208.847656 111.839844 208.511719 111.703125 208.1875 111.535156 C 207.863281 111.367188 207.558594 111.167969 207.273438 110.941406 C 206.988281 110.714844 206.726562 110.457031 206.492188 110.179688 C 206.257812 109.898438 206.050781 109.597656 205.875 109.277344 C 205.699219 108.957031 205.554688 108.625 205.445312 108.273438 C 205.335938 107.925781 205.261719 107.570312 205.21875 107.207031 C 205.179688 106.839844 205.175781 106.476562 205.203125 106.113281 C 205.234375 105.746094 205.300781 105.390625 205.402344 105.039062 C 205.503906 104.6875 205.636719 104.347656 205.804688 104.023438 C 205.972656 103.699219 206.171875 103.390625 206.398438 103.105469 C 206.625 102.820312 206.878906 102.558594 207.160156 102.324219 C 207.4375 102.085938 207.738281 101.878906 208.054688 101.703125 C 208.375 101.527344 208.707031 101.382812 209.054688 101.273438 C 229.273438 94.839844 242.972656 96.554688 257.910156 107.515625 C 258.382812 107.863281 258.792969 108.273438 259.136719 108.75 C 259.480469 109.226562 259.742188 109.746094 259.921875 110.304688 C 260.101562 110.867188 260.191406 111.441406 260.191406 112.027344 C 260.191406 112.617188 260.097656 113.191406 259.914062 113.75 C 259.734375 114.308594 259.46875 114.824219 259.125 115.300781 C 258.78125 115.777344 258.371094 116.1875 257.894531 116.53125 C 257.417969 116.878906 256.902344 117.140625 256.34375 117.320312 C 255.789062 117.503906 255.214844 117.59375 254.628906 117.59375 Z M 254.628906 117.59375 " fill-opacity="1" fill-rule="nonzero"/><path fill="#29c6cd" d="M 100.914062 87.941406 L 140.671875 87.941406 C 140.960938 87.941406 141.246094 87.96875 141.527344 88.023438 C 141.808594 88.082031 142.082031 88.164062 142.347656 88.277344 C 142.613281 88.386719 142.867188 88.523438 143.105469 88.683594 C 143.347656 88.84375 143.566406 89.023438 143.769531 89.230469 C 143.976562 89.433594 144.15625 89.65625 144.316406 89.894531 C 144.476562 90.136719 144.609375 90.390625 144.722656 90.65625 C 144.832031 90.921875 144.914062 91.199219 144.972656 91.480469 C 145.027344 91.765625 145.054688 92.050781 145.054688 92.339844 L 145.054688 92.566406 C 145.054688 92.855469 145.027344 93.140625 144.972656 93.425781 C 144.914062 93.707031 144.832031 93.984375 144.722656 94.25 C 144.609375 94.519531 144.476562 94.769531 144.316406 95.011719 C 144.15625 95.25 143.976562 95.472656 143.769531 95.679688 C 143.566406 95.882812 143.347656 96.066406 143.105469 96.226562 C 142.867188 96.386719 142.613281 96.519531 142.347656 96.632812 C 142.082031 96.742188 141.808594 96.824219 141.527344 96.882812 C 141.246094 96.9375 140.960938 96.96875 140.671875 96.96875 L 100.914062 96.96875 C 100.625 96.96875 100.339844 96.9375 100.058594 96.882812 C 99.777344 96.824219 99.5 96.742188 99.234375 96.632812 C 98.96875 96.519531 98.71875 96.386719 98.476562 96.226562 C 98.238281 96.066406 98.015625 95.882812 97.8125 95.679688 C 97.609375 95.472656 97.429688 95.25 97.269531 95.011719 C 97.109375 94.769531 96.972656 94.519531 96.863281 94.25 C 96.753906 93.984375 96.671875 93.707031 96.613281 93.425781 C 96.558594 93.140625 96.53125 92.855469 96.53125 92.566406 L 96.53125 92.339844 C 96.53125 92.050781 96.558594 91.765625 96.613281 91.480469 C 96.671875 91.199219 96.753906 90.921875 96.863281 90.65625 C 96.972656 90.390625 97.109375 90.136719 97.269531 89.894531 C 97.429688 89.65625 97.609375 89.433594 97.8125 89.230469 C 98.015625 89.023438 98.238281 88.84375 98.476562 88.683594 C 98.71875 88.523438 98.96875 88.386719 99.234375 88.277344 C 99.5 88.164062 99.777344 88.082031 100.058594 88.023438 C 100.339844 87.96875 100.625 87.941406 100.914062 87.941406 Z M 100.914062 87.941406 " fill-opacity="1" fill-rule="nonzero"/><path fill="#29c6cd" d="M 78.753906 120.667969 L 122.609375 120.667969 C 122.898438 120.667969 123.183594 120.695312 123.464844 120.75 C 123.746094 120.808594 124.023438 120.890625 124.289062 121 C 124.554688 121.113281 124.804688 121.246094 125.046875 121.410156 C 125.285156 121.570312 125.507812 121.75 125.710938 121.957031 C 125.914062 122.160156 126.09375 122.382812 126.253906 122.621094 C 126.414062 122.863281 126.550781 123.117188 126.660156 123.382812 C 126.769531 123.648438 126.855469 123.925781 126.910156 124.207031 C 126.964844 124.492188 126.996094 124.777344 126.996094 125.066406 L 126.996094 125.292969 C 126.996094 125.582031 126.964844 125.867188 126.910156 126.152344 C 126.855469 126.433594 126.769531 126.710938 126.660156 126.976562 C 126.550781 127.246094 126.414062 127.496094 126.253906 127.738281 C 126.09375 127.976562 125.914062 128.199219 125.710938 128.40625 C 125.507812 128.609375 125.285156 128.792969 125.046875 128.953125 C 124.804688 129.113281 124.554688 129.246094 124.289062 129.359375 C 124.023438 129.46875 123.746094 129.550781 123.464844 129.609375 C 123.183594 129.664062 122.898438 129.691406 122.609375 129.691406 L 78.753906 129.691406 C 78.46875 129.691406 78.183594 129.664062 77.898438 129.609375 C 77.617188 129.550781 77.34375 129.46875 77.078125 129.359375 C 76.8125 129.246094 76.558594 129.113281 76.320312 128.953125 C 76.082031 128.792969 75.859375 128.609375 75.65625 128.40625 C 75.453125 128.199219 75.269531 127.976562 75.109375 127.738281 C 74.949219 127.496094 74.816406 127.246094 74.703125 126.976562 C 74.59375 126.710938 74.511719 126.433594 74.457031 126.152344 C 74.398438 125.867188 74.371094 125.582031 74.371094 125.292969 L 74.371094 125.066406 C 74.371094 124.777344 74.398438 124.492188 74.457031 124.207031 C 74.511719 123.925781 74.59375 123.648438 74.703125 123.382812 C 74.816406 123.117188 74.949219 122.863281 75.109375 122.621094 C 75.269531 122.382812 75.453125 122.160156 75.65625 121.957031 C 75.859375 121.75 76.082031 121.570312 76.320312 121.410156 C 76.558594 121.246094 76.8125 121.113281 77.078125 121 C 77.34375 120.890625 77.617188 120.808594 77.898438 120.75 C 78.183594 120.695312 78.46875 120.667969 78.753906 120.667969 Z M 78.753906 120.667969 " fill-opacity="1" fill-rule="nonzero"/><g clip-path="url(#id4)"><path fill="#1b3c68" d="M 71.78125 104.472656 L 99.132812 104.472656 C 99.417969 104.472656 99.703125 104.5 99.988281 104.554688 C 100.269531 104.613281 100.542969 104.695312 100.808594 104.804688 C 101.074219 104.917969 101.328125 105.050781 101.566406 105.210938 C 101.804688 105.371094 102.027344 105.554688 102.230469 105.757812 C 102.433594 105.964844 102.617188 106.1875 102.777344 106.425781 C 102.9375 106.667969 103.070312 106.921875 103.183594 107.1875 C 103.292969 107.453125 103.375 107.730469 103.429688 108.011719 C 103.488281 108.296875 103.515625 108.582031 103.515625 108.871094 L 103.515625 109.097656 C 103.515625 109.386719 103.488281 109.671875 103.429688 109.957031 C 103.375 110.238281 103.292969 110.515625 103.183594 110.78125 C 103.070312 111.046875 102.9375 111.300781 102.777344 111.542969 C 102.617188 111.78125 102.433594 112.003906 102.230469 112.207031 C 102.027344 112.414062 101.804688 112.59375 101.566406 112.753906 C 101.328125 112.917969 101.074219 113.050781 100.808594 113.164062 C 100.542969 113.273438 100.269531 113.355469 99.988281 113.414062 C 99.703125 113.46875 99.417969 113.496094 99.132812 113.496094 L 71.78125 113.496094 C 71.492188 113.496094 71.207031 113.46875 70.925781 113.414062 C 70.644531 113.355469 70.371094 113.273438 70.105469 113.164062 C 69.839844 113.050781 69.585938 112.917969 69.347656 112.753906 C 69.105469 112.59375 68.886719 112.414062 68.683594 112.207031 C 68.476562 112.003906 68.296875 111.78125 68.136719 111.542969 C 67.976562 111.300781 67.84375 111.046875 67.730469 110.78125 C 67.621094 110.515625 67.539062 110.238281 67.480469 109.957031 C 67.425781 109.671875 67.398438 109.386719 67.398438 109.097656 L 67.398438 108.871094 C 67.398438 108.582031 67.425781 108.296875 67.480469 108.011719 C 67.539062 107.730469 67.621094 107.453125 67.730469 107.1875 C 67.84375 106.921875 67.976562 106.667969 68.136719 106.425781 C 68.296875 106.1875 68.476562 105.964844 68.683594 105.757812 C 68.886719 105.554688 69.105469 105.371094 69.347656 105.210938 C 69.585938 105.050781 69.839844 104.917969 70.105469 104.804688 C 70.371094 104.695312 70.644531 104.613281 70.925781 104.554688 C 71.207031 104.5 71.492188 104.472656 71.78125 104.472656 Z M 71.78125 104.472656 " fill-opacity="1" fill-rule="nonzero"/></g><path fill="#29c6cd" d="M 113.320312 104.472656 L 140.671875 104.472656 C 140.960938 104.472656 141.246094 104.5 141.527344 104.554688 C 141.808594 104.613281 142.082031 104.695312 142.347656 104.804688 C 142.613281 104.917969 142.867188 105.050781 143.105469 105.210938 C 143.347656 105.371094 143.566406 105.554688 143.769531 105.757812 C 143.976562 105.964844 144.15625 106.1875 144.316406 106.425781 C 144.476562 106.667969 144.609375 106.921875 144.722656 107.1875 C 144.832031 107.453125 144.914062 107.730469 144.972656 108.011719 C 145.027344 108.296875 145.054688 108.582031 145.054688 108.871094 L 145.054688 109.097656 C 145.054688 109.386719 145.027344 109.671875 144.972656 109.957031 C 144.914062 110.238281 144.832031 110.515625 144.722656 110.78125 C 144.609375 111.046875 144.476562 111.300781 144.316406 111.542969 C 144.15625 111.78125 143.976562 112.003906 143.769531 112.207031 C 143.566406 112.414062 143.347656 112.59375 143.105469 112.753906 C 142.867188 112.917969 142.613281 113.050781 142.347656 113.164062 C 142.082031 113.273438 141.808594 113.355469 141.527344 113.414062 C 141.246094 113.46875 140.960938 113.496094 140.671875 113.496094 L 113.320312 113.496094 C 113.035156 113.496094 112.75 113.46875 112.464844 113.414062 C 112.183594 113.355469 111.910156 113.273438 111.644531 113.164062 C 111.378906 113.050781 111.125 112.917969 110.886719 112.753906 C 110.648438 112.59375 110.425781 112.414062 110.222656 112.207031 C 110.019531 112.003906 109.835938 111.78125 109.675781 111.542969 C 109.515625 111.300781 109.382812 111.046875 109.269531 110.78125 C 109.160156 110.515625 109.078125 110.238281 109.023438 109.957031 C 108.964844 109.671875 108.9375 109.386719 108.9375 109.097656 L 108.9375 108.871094 C 108.9375 108.582031 108.964844 108.296875 109.023438 108.011719 C 109.078125 107.730469 109.160156 107.453125 109.269531 107.1875 C 109.382812 106.921875 109.515625 106.667969 109.675781 106.425781 C 109.835938 106.1875 110.019531 105.964844 110.222656 105.757812 C 110.425781 105.554688 110.648438 105.371094 110.886719 105.210938 C 111.125 105.050781 111.378906 104.917969 111.644531 104.804688 C 111.910156 104.695312 112.183594 104.613281 112.464844 104.554688 C 112.75 104.5 113.035156 104.472656 113.320312 104.472656 Z M 113.320312 104.472656 " fill-opacity="1" fill-rule="nonzero"/><path fill="#1b3c68" d="M 135.957031 120.667969 L 144.769531 120.667969 C 145.058594 120.667969 145.339844 120.695312 145.625 120.75 C 145.90625 120.808594 146.179688 120.890625 146.445312 121 C 146.710938 121.113281 146.964844 121.246094 147.203125 121.410156 C 147.445312 121.570312 147.664062 121.75 147.867188 121.957031 C 148.070312 122.160156 148.253906 122.382812 148.414062 122.621094 C 148.574219 122.863281 148.707031 123.117188 148.820312 123.382812 C 148.929688 123.648438 149.011719 123.925781 149.070312 124.207031 C 149.125 124.492188 149.152344 124.777344 149.152344 125.066406 L 149.152344 125.292969 C 149.152344 125.582031 149.125 125.867188 149.070312 126.152344 C 149.011719 126.433594 148.929688 126.710938 148.820312 126.976562 C 148.707031 127.246094 148.574219 127.496094 148.414062 127.738281 C 148.253906 127.976562 148.070312 128.199219 147.867188 128.40625 C 147.664062 128.609375 147.445312 128.792969 147.203125 128.953125 C 146.964844 129.113281 146.710938 129.246094 146.445312 129.359375 C 146.179688 129.46875 145.90625 129.550781 145.625 129.609375 C 145.339844 129.664062 145.058594 129.691406 144.769531 129.691406 L 135.957031 129.691406 C 135.671875 129.691406 135.386719 129.664062 135.101562 129.609375 C 134.820312 129.550781 134.546875 129.46875 134.28125 129.359375 C 134.015625 129.246094 133.761719 129.113281 133.523438 128.953125 C 133.285156 128.792969 133.0625 128.609375 132.859375 128.40625 C 132.65625 128.199219 132.472656 127.976562 132.3125 127.738281 C 132.152344 127.496094 132.019531 127.246094 131.910156 126.976562 C 131.796875 126.710938 131.714844 126.433594 131.660156 126.152344 C 131.601562 125.867188 131.574219 125.582031 131.574219 125.292969 L 131.574219 125.066406 C 131.574219 124.777344 131.601562 124.492188 131.660156 124.207031 C 131.714844 123.925781 131.796875 123.648438 131.910156 123.382812 C 132.019531 123.117188 132.152344 122.863281 132.3125 122.621094 C 132.472656 122.382812 132.65625 122.160156 132.859375 121.957031 C 133.0625 121.75 133.285156 121.570312 133.523438 121.410156 C 133.761719 121.246094 134.015625 121.113281 134.28125 121 C 134.546875 120.890625 134.820312 120.808594 135.101562 120.75 C 135.386719 120.695312 135.671875 120.667969 135.957031 120.667969 Z M 135.957031 120.667969 " fill-opacity="1" fill-rule="nonzero"/><path fill="#1b3c68" d="M 76.289062 87.941406 L 85.101562 87.941406 C 85.386719 87.941406 85.671875 87.96875 85.957031 88.023438 C 86.238281 88.082031 86.511719 88.164062 86.777344 88.277344 C 87.042969 88.386719 87.296875 88.523438 87.535156 88.683594 C 87.773438 88.84375 87.996094 89.023438 88.199219 89.230469 C 88.402344 89.433594 88.585938 89.65625 88.746094 89.894531 C 88.90625 90.136719 89.039062 90.390625 89.148438 90.65625 C 89.261719 90.921875 89.34375 91.199219 89.398438 91.480469 C 89.457031 91.765625 89.484375 92.050781 89.484375 92.339844 L 89.484375 92.566406 C 89.484375 92.855469 89.457031 93.140625 89.398438 93.425781 C 89.34375 93.707031 89.261719 93.984375 89.148438 94.25 C 89.039062 94.519531 88.90625 94.769531 88.746094 95.011719 C 88.585938 95.25 88.402344 95.472656 88.199219 95.679688 C 87.996094 95.882812 87.773438 96.066406 87.535156 96.226562 C 87.296875 96.386719 87.042969 96.519531 86.777344 96.632812 C 86.511719 96.742188 86.238281 96.824219 85.957031 96.882812 C 85.671875 96.9375 85.386719 96.96875 85.101562 96.96875 L 76.289062 96.96875 C 76 96.96875 75.714844 96.9375 75.433594 96.882812 C 75.152344 96.824219 74.878906 96.742188 74.613281 96.632812 C 74.347656 96.519531 74.09375 96.386719 73.855469 96.226562 C 73.613281 96.066406 73.394531 95.882812 73.191406 95.679688 C 72.984375 95.472656 72.804688 95.25 72.644531 95.011719 C 72.484375 94.769531 72.347656 94.519531 72.238281 94.25 C 72.128906 93.984375 72.046875 93.707031 71.988281 93.425781 C 71.933594 93.140625 71.90625 92.855469 71.90625 92.566406 L 71.90625 92.339844 C 71.90625 92.050781 71.933594 91.765625 71.988281 91.480469 C 72.046875 91.199219 72.128906 90.921875 72.238281 90.65625 C 72.347656 90.390625 72.484375 90.136719 72.644531 89.894531 C 72.804688 89.65625 72.984375 89.433594 73.191406 89.230469 C 73.394531 89.023438 73.613281 88.84375 73.855469 88.683594 C 74.09375 88.523438 74.347656 88.386719 74.613281 88.277344 C 74.878906 88.164062 75.152344 88.082031 75.433594 88.023438 C 75.714844 87.96875 76 87.941406 76.289062 87.941406 Z M 76.289062 87.941406 " fill-opacity="1" fill-rule="nonzero"/><g fill="#223867" fill-opacity="1"><g transform="translate(94.102403, 257.342201)"><g><path d="M 7.28125 -19.703125 C 8.445312 -19.703125 9.390625 -19.367188 10.109375 -18.703125 C 10.828125 -18.035156 11.1875 -17.210938 11.1875 -16.234375 C 11.1875 -15.222656 10.828125 -14.382812 10.109375 -13.71875 C 9.390625 -13.0625 8.445312 -12.734375 7.28125 -12.734375 C 6.082031 -12.734375 5.125 -13.0625 4.40625 -13.71875 C 3.6875 -14.382812 3.328125 -15.222656 3.328125 -16.234375 C 3.328125 -17.234375 3.6875 -18.0625 4.40625 -18.71875 C 5.125 -19.375 6.082031 -19.703125 7.28125 -19.703125 Z M 4.390625 -10.359375 L 10.125 -10.359375 L 10.90625 6 L 3.609375 6 Z M 4.390625 -10.359375 "/></g></g></g><g fill="#223867" fill-opacity="1"><g transform="translate(108.611411, 257.342201)"><g><path d="M 20.140625 -24.1875 L 20.140625 -18.84375 L 13.6875 -18.84375 L 13.6875 0 L 6.96875 0 L 6.96875 -18.84375 L 0.578125 -18.84375 L 0.578125 -24.1875 Z M 20.140625 -24.1875 "/></g></g></g><g fill="#223867" fill-opacity="1"><g transform="translate(129.32877, 257.342201)"><g><path d="M 8.515625 -24.1875 L 8.515625 -10.15625 C 8.515625 -8.851562 8.816406 -7.847656 9.421875 -7.140625 C 10.023438 -6.429688 10.945312 -6.078125 12.1875 -6.078125 C 13.414062 -6.078125 14.34375 -6.4375 14.96875 -7.15625 C 15.601562 -7.875 15.921875 -8.875 15.921875 -10.15625 L 15.921875 -24.1875 L 22.640625 -24.1875 L 22.640625 -10.15625 C 22.640625 -7.9375 22.171875 -6.039062 21.234375 -4.46875 C 20.296875 -2.90625 19.019531 -1.726562 17.40625 -0.9375 C 15.800781 -0.15625 14.015625 0.234375 12.046875 0.234375 C 10.078125 0.234375 8.316406 -0.15625 6.765625 -0.9375 C 5.222656 -1.726562 4.007812 -2.898438 3.125 -4.453125 C 2.25 -6.015625 1.8125 -7.914062 1.8125 -10.15625 L 1.8125 -24.1875 Z M 8.515625 -24.1875 "/></g></g></g><g fill="#223867" fill-opacity="1"><g transform="translate(153.750549, 257.342201)"><g/></g></g><g fill="#223867" fill-opacity="1"><g transform="translate(160.301899, 257.342201)"><g><path d="M 30.15625 -24.1875 L 30.15625 0 L 23.4375 0 L 23.4375 -13.34375 L 18.875 0 L 13.25 0 L 8.640625 -13.453125 L 8.640625 0 L 1.921875 0 L 1.921875 -24.1875 L 10.046875 -24.1875 L 16.125 -8.46875 L 22.0625 -24.1875 Z M 30.15625 -24.1875 "/></g></g></g><g fill="#223867" fill-opacity="1"><g transform="translate(192.372636, 257.342201)"><g><path d="M 8.640625 -18.796875 L 8.640625 -14.859375 L 16.359375 -14.859375 L 16.359375 -9.75 L 8.640625 -9.75 L 8.640625 -5.390625 L 17.390625 -5.390625 L 17.390625 0 L 1.921875 0 L 1.921875 -24.1875 L 17.390625 -24.1875 L 17.390625 -18.796875 Z M 8.640625 -18.796875 "/></g></g></g><g fill="#223867" fill-opacity="1"><g transform="translate(211.169179, 257.342201)"><g><path d="M 17.953125 -24.1875 L 17.953125 -8.171875 C 17.953125 -5.441406 17.210938 -3.359375 15.734375 -1.921875 C 14.253906 -0.484375 12.222656 0.234375 9.640625 0.234375 C 6.898438 0.234375 4.710938 -0.53125 3.078125 -2.0625 C 1.441406 -3.59375 0.625 -5.800781 0.625 -8.6875 L 7.28125 -8.6875 C 7.300781 -6.78125 8 -5.828125 9.375 -5.828125 C 10.601562 -5.828125 11.21875 -6.609375 11.21875 -8.171875 L 11.21875 -24.1875 Z M 17.953125 -24.1875 "/></g></g></g><g fill="#223867" fill-opacity="1"><g transform="translate(231.200527, 257.342201)"><g><path d="M 13.515625 0.234375 C 11.253906 0.234375 9.171875 -0.296875 7.265625 -1.359375 C 5.367188 -2.421875 3.863281 -3.894531 2.75 -5.78125 C 1.644531 -7.664062 1.09375 -9.800781 1.09375 -12.1875 C 1.09375 -14.5625 1.644531 -16.691406 2.75 -18.578125 C 3.863281 -20.460938 5.367188 -21.929688 7.265625 -22.984375 C 9.171875 -24.035156 11.253906 -24.5625 13.515625 -24.5625 C 15.804688 -24.5625 17.894531 -24.035156 19.78125 -22.984375 C 21.664062 -21.929688 23.15625 -20.460938 24.25 -18.578125 C 25.351562 -16.691406 25.90625 -14.5625 25.90625 -12.1875 C 25.90625 -9.800781 25.351562 -7.664062 24.25 -5.78125 C 23.15625 -3.894531 21.660156 -2.421875 19.765625 -1.359375 C 17.867188 -0.296875 15.785156 0.234375 13.515625 0.234375 Z M 13.515625 -6 C 15.234375 -6 16.585938 -6.5625 17.578125 -7.6875 C 18.578125 -8.8125 19.078125 -10.3125 19.078125 -12.1875 C 19.078125 -14.101562 18.578125 -15.613281 17.578125 -16.71875 C 16.585938 -17.832031 15.234375 -18.390625 13.515625 -18.390625 C 11.773438 -18.390625 10.410156 -17.832031 9.421875 -16.71875 C 8.441406 -15.613281 7.953125 -14.101562 7.953125 -12.1875 C 7.953125 -10.28125 8.441406 -8.769531 9.421875 -7.65625 C 10.410156 -6.550781 11.773438 -6 13.515625 -6 Z M 13.515625 -6 "/></g></g></g><g fill="#223867" fill-opacity="1"><g transform="translate(258.194821, 257.342201)"><g><path d="M 14.171875 0 L 9.375 -8.921875 L 8.640625 -8.921875 L 8.640625 0 L 1.921875 0 L 1.921875 -24.1875 L 12.53125 -24.1875 C 14.46875 -24.1875 16.109375 -23.847656 17.453125 -23.171875 C 18.804688 -22.503906 19.828125 -21.578125 20.515625 -20.390625 C 21.203125 -19.210938 21.546875 -17.894531 21.546875 -16.4375 C 21.546875 -14.789062 21.09375 -13.34375 20.1875 -12.09375 C 19.289062 -10.84375 17.972656 -9.957031 16.234375 -9.4375 L 21.6875 0 Z M 8.640625 -13.515625 L 11.96875 -13.515625 C 12.882812 -13.515625 13.570312 -13.734375 14.03125 -14.171875 C 14.488281 -14.609375 14.71875 -15.238281 14.71875 -16.0625 C 14.71875 -16.832031 14.484375 -17.441406 14.015625 -17.890625 C 13.546875 -18.335938 12.863281 -18.5625 11.96875 -18.5625 L 8.640625 -18.5625 Z M 8.640625 -13.515625 "/></g></g></g><g fill="#223867" fill-opacity="1"><g transform="translate(110.930936, 305.362473)"><g><path d="M 13.515625 0.234375 C 11.253906 0.234375 9.171875 -0.296875 7.265625 -1.359375 C 5.367188 -2.421875 3.863281 -3.894531 2.75 -5.78125 C 1.644531 -7.664062 1.09375 -9.800781 1.09375 -12.1875 C 1.09375 -14.5625 1.644531 -16.691406 2.75 -18.578125 C 3.863281 -20.460938 5.367188 -21.929688 7.265625 -22.984375 C 9.171875 -24.035156 11.253906 -24.5625 13.515625 -24.5625 C 15.804688 -24.5625 17.894531 -24.035156 19.78125 -22.984375 C 21.664062 -21.929688 23.15625 -20.460938 24.25 -18.578125 C 25.351562 -16.691406 25.90625 -14.5625 25.90625 -12.1875 C 25.90625 -9.800781 25.351562 -7.664062 24.25 -5.78125 C 23.15625 -3.894531 21.660156 -2.421875 19.765625 -1.359375 C 17.867188 -0.296875 15.785156 0.234375 13.515625 0.234375 Z M 13.515625 -6 C 15.234375 -6 16.585938 -6.5625 17.578125 -7.6875 C 18.578125 -8.8125 19.078125 -10.3125 19.078125 -12.1875 C 19.078125 -14.101562 18.578125 -15.613281 17.578125 -16.71875 C 16.585938 -17.832031 15.234375 -18.390625 13.515625 -18.390625 C 11.773438 -18.390625 10.410156 -17.832031 9.421875 -16.71875 C 8.441406 -15.613281 7.953125 -14.101562 7.953125 -12.1875 C 7.953125 -10.28125 8.441406 -8.769531 9.421875 -7.65625 C 10.410156 -6.550781 11.773438 -6 13.515625 -6 Z M 13.515625 -6 "/></g></g></g><g fill="#223867" fill-opacity="1"><g transform="translate(137.92523, 305.362473)"><g><path d="M 21.03125 -16.125 C 21.03125 -14.664062 20.691406 -13.332031 20.015625 -12.125 C 19.347656 -10.925781 18.332031 -9.96875 16.96875 -9.25 C 15.601562 -8.53125 13.9375 -8.171875 11.96875 -8.171875 L 8.640625 -8.171875 L 8.640625 0 L 1.921875 0 L 1.921875 -24.1875 L 11.96875 -24.1875 C 13.914062 -24.1875 15.566406 -23.84375 16.921875 -23.15625 C 18.285156 -22.46875 19.3125 -21.519531 20 -20.3125 C 20.6875 -19.101562 21.03125 -17.707031 21.03125 -16.125 Z M 11.328125 -13.515625 C 13.222656 -13.515625 14.171875 -14.382812 14.171875 -16.125 C 14.171875 -17.882812 13.222656 -18.765625 11.328125 -18.765625 L 8.640625 -18.765625 L 8.640625 -13.515625 Z M 11.328125 -13.515625 "/></g></g></g><g fill="#223867" fill-opacity="1"><g transform="translate(159.740196, 305.362473)"><g><path d="M 1.09375 -12.140625 C 1.09375 -14.523438 1.585938 -16.648438 2.578125 -18.515625 C 3.578125 -20.378906 4.992188 -21.832031 6.828125 -22.875 C 8.660156 -23.914062 10.765625 -24.4375 13.140625 -24.4375 C 16.160156 -24.4375 18.695312 -23.628906 20.75 -22.015625 C 22.8125 -20.398438 24.140625 -18.207031 24.734375 -15.4375 L 17.5 -15.4375 C 17.0625 -16.351562 16.457031 -17.050781 15.6875 -17.53125 C 14.925781 -18.007812 14.039062 -18.25 13.03125 -18.25 C 11.476562 -18.25 10.238281 -17.691406 9.3125 -16.578125 C 8.382812 -15.472656 7.921875 -13.992188 7.921875 -12.140625 C 7.921875 -10.265625 8.382812 -8.769531 9.3125 -7.65625 C 10.238281 -6.550781 11.476562 -6 13.03125 -6 C 14.039062 -6 14.925781 -6.238281 15.6875 -6.71875 C 16.457031 -7.207031 17.0625 -7.90625 17.5 -8.8125 L 24.734375 -8.8125 C 24.140625 -6.050781 22.8125 -3.863281 20.75 -2.25 C 18.695312 -0.632812 16.160156 0.171875 13.140625 0.171875 C 10.765625 0.171875 8.660156 -0.347656 6.828125 -1.390625 C 4.992188 -2.429688 3.578125 -3.882812 2.578125 -5.75 C 1.585938 -7.613281 1.09375 -9.742188 1.09375 -12.140625 Z M 1.09375 -12.140625 "/></g></g></g><g fill="#223867" fill-opacity="1"><g transform="translate(185.73979, 305.362473)"><g><path d="M 8.640625 -24.1875 L 8.640625 0 L 1.921875 0 L 1.921875 -24.1875 Z M 8.640625 -24.1875 "/></g></g></g><g fill="#223867" fill-opacity="1"><g transform="translate(196.304274, 305.362473)"><g><path d="M 13.515625 0.234375 C 11.253906 0.234375 9.171875 -0.296875 7.265625 -1.359375 C 5.367188 -2.421875 3.863281 -3.894531 2.75 -5.78125 C 1.644531 -7.664062 1.09375 -9.800781 1.09375 -12.1875 C 1.09375 -14.5625 1.644531 -16.691406 2.75 -18.578125 C 3.863281 -20.460938 5.367188 -21.929688 7.265625 -22.984375 C 9.171875 -24.035156 11.253906 -24.5625 13.515625 -24.5625 C 15.804688 -24.5625 17.894531 -24.035156 19.78125 -22.984375 C 21.664062 -21.929688 23.15625 -20.460938 24.25 -18.578125 C 25.351562 -16.691406 25.90625 -14.5625 25.90625 -12.1875 C 25.90625 -9.800781 25.351562 -7.664062 24.25 -5.78125 C 23.15625 -3.894531 21.660156 -2.421875 19.765625 -1.359375 C 17.867188 -0.296875 15.785156 0.234375 13.515625 0.234375 Z M 13.515625 -6 C 15.234375 -6 16.585938 -6.5625 17.578125 -7.6875 C 18.578125 -8.8125 19.078125 -10.3125 19.078125 -12.1875 C 19.078125 -14.101562 18.578125 -15.613281 17.578125 -16.71875 C 16.585938 -17.832031 15.234375 -18.390625 13.515625 -18.390625 C 11.773438 -18.390625 10.410156 -17.832031 9.421875 -16.71875 C 8.441406 -15.613281 7.953125 -14.101562 7.953125 -12.1875 C 7.953125 -10.28125 8.441406 -8.769531 9.421875 -7.65625 C 10.410156 -6.550781 11.773438 -6 13.515625 -6 Z M 17.921875 -28.921875 L 9.34375 -25.546875 L 9.34375 -30.109375 L 17.921875 -34 Z M 17.921875 -28.921875 "/></g></g></g><g fill="#223867" fill-opacity="1"><g transform="translate(223.298568, 305.362473)"><g><path d="M 24.328125 0 L 17.609375 0 L 8.640625 -13.515625 L 8.640625 0 L 1.921875 0 L 1.921875 -24.1875 L 8.640625 -24.1875 L 17.609375 -10.5 L 17.609375 -24.1875 L 24.328125 -24.1875 Z M 24.328125 0 "/></g></g></g><g fill="#223867" fill-opacity="1"><g transform="translate(249.538265, 305.362473)"><g><path d="M 10.90625 -25.421875 L 10.125 -9.0625 L 4.390625 -9.0625 L 3.609375 -25.421875 Z M 7.28125 0.28125 C 6.082031 0.28125 5.125 -0.046875 4.40625 -0.703125 C 3.6875 -1.359375 3.328125 -2.1875 3.328125 -3.1875 C 3.328125 -4.195312 3.6875 -5.03125 4.40625 -5.6875 C 5.125 -6.351562 6.082031 -6.6875 7.28125 -6.6875 C 8.445312 -6.6875 9.390625 -6.351562 10.109375 -5.6875 C 10.828125 -5.03125 11.1875 -4.195312 11.1875 -3.1875 C 11.1875 -2.207031 10.828125 -1.382812 10.109375 -0.71875 C 9.390625 -0.0507812 8.445312 0.28125 7.28125 0.28125 Z M 7.28125 0.28125 "/></g></g></g><g fill="#004aad" fill-opacity="1"><g transform="translate(140.787505, 342.824977)"><g><path d="M 0.375 -8.546875 C 0.375 -8.628906 0.398438 -8.691406 0.453125 -8.734375 C 0.503906 -8.773438 0.597656 -8.796875 0.734375 -8.796875 L 1.953125 -8.796875 C 2.585938 -8.796875 3.097656 -8.648438 3.484375 -8.359375 C 3.878906 -8.078125 4.078125 -7.566406 4.078125 -6.828125 C 4.078125 -6.222656 3.960938 -5.742188 3.734375 -5.390625 C 3.503906 -5.046875 3.234375 -4.851562 2.921875 -4.8125 C 3.890625 -4.707031 4.375 -4.097656 4.375 -2.984375 C 4.375 -2.085938 4.179688 -1.363281 3.796875 -0.8125 C 3.410156 -0.269531 2.816406 0 2.015625 0 L 0.375 0 Z M 2.046875 -5.328125 C 2.203125 -5.328125 2.320312 -5.4375 2.40625 -5.65625 C 2.5 -5.875 2.546875 -6.160156 2.546875 -6.515625 C 2.546875 -6.929688 2.503906 -7.210938 2.421875 -7.359375 C 2.347656 -7.503906 2.238281 -7.578125 2.09375 -7.578125 L 1.796875 -7.578125 L 1.796875 -5.328125 Z M 2.0625 -1.203125 C 2.257812 -1.203125 2.414062 -1.347656 2.53125 -1.640625 C 2.65625 -1.929688 2.71875 -2.335938 2.71875 -2.859375 C 2.71875 -3.234375 2.691406 -3.507812 2.640625 -3.6875 C 2.597656 -3.875 2.53125 -3.992188 2.4375 -4.046875 C 2.351562 -4.109375 2.234375 -4.140625 2.078125 -4.140625 L 1.796875 -4.140625 L 1.796875 -1.203125 Z M 2.0625 -1.203125 "/></g></g></g><g fill="#004aad" fill-opacity="1"><g transform="translate(149.208282, 342.824977)"><g><path d="M 3.046875 -0.25 C 3.046875 -0.15625 3.023438 -0.09375 2.984375 -0.0625 C 2.941406 -0.0390625 2.804688 -0.0234375 2.578125 -0.015625 C 2.347656 -0.00390625 2.035156 0 1.640625 0 L 1.640625 -3.625 L 0.078125 -8.578125 C 0.046875 -8.648438 0.0507812 -8.695312 0.09375 -8.71875 C 0.144531 -8.75 0.304688 -8.769531 0.578125 -8.78125 C 0.847656 -8.789062 1.210938 -8.796875 1.671875 -8.796875 L 2.03125 -7.140625 C 2.101562 -6.847656 2.175781 -6.445312 2.25 -5.9375 C 2.320312 -5.425781 2.375 -5.019531 2.40625 -4.71875 C 2.425781 -5.007812 2.472656 -5.410156 2.546875 -5.921875 C 2.628906 -6.441406 2.707031 -6.851562 2.78125 -7.15625 L 3.078125 -8.546875 C 3.097656 -8.640625 3.132812 -8.695312 3.1875 -8.71875 C 3.25 -8.75 3.394531 -8.769531 3.625 -8.78125 C 3.851562 -8.789062 4.171875 -8.796875 4.578125 -8.796875 L 3.046875 -3.671875 Z M 3.046875 -0.25 "/></g></g></g><g fill="#004aad" fill-opacity="1"><g transform="translate(157.742115, 342.824977)"><g/></g></g><g fill="#004aad" fill-opacity="1"><g transform="translate(163.424252, 342.824977)"><g><path d="M 1.765625 -1.25 L 3.5625 -1.25 C 3.5625 -0.90625 3.554688 -0.632812 3.546875 -0.4375 C 3.535156 -0.238281 3.515625 -0.113281 3.484375 -0.0625 C 3.453125 -0.0195312 3.394531 0 3.3125 0 L 0.375 0 L 0.375 -8.546875 C 0.375 -8.585938 0.390625 -8.640625 0.421875 -8.703125 C 0.460938 -8.765625 0.53125 -8.796875 0.625 -8.796875 L 3.640625 -8.796875 C 3.640625 -8.472656 3.632812 -8.210938 3.625 -8.015625 C 3.625 -7.816406 3.601562 -7.6875 3.5625 -7.625 C 3.53125 -7.570312 3.472656 -7.546875 3.390625 -7.546875 L 1.765625 -7.546875 L 1.765625 -5.40625 L 3.296875 -5.40625 C 3.296875 -5.09375 3.289062 -4.832031 3.28125 -4.625 C 3.28125 -4.425781 3.265625 -4.289062 3.234375 -4.21875 C 3.203125 -4.15625 3.148438 -4.125 3.078125 -4.125 L 1.765625 -4.125 Z M 1.765625 -1.25 "/></g></g></g><g fill="#004aad" fill-opacity="1"><g transform="translate(171.116395, 342.824977)"><g><path d="M 5.453125 -0.21875 C 5.472656 -0.132812 5.4375 -0.0703125 5.34375 -0.03125 C 5.257812 0.0078125 5.085938 0.03125 4.828125 0.03125 C 4.535156 0.03125 4.265625 0.0195312 4.015625 0 L 3.609375 -2.015625 L 1.90625 -2.015625 L 1.546875 -0.234375 C 1.515625 -0.140625 1.460938 -0.0703125 1.390625 -0.03125 C 1.328125 0.0078125 1.164062 0.03125 0.90625 0.03125 C 0.613281 0.03125 0.320312 0.0078125 0.03125 -0.03125 L 2.125 -8.5625 C 2.15625 -8.726562 2.34375 -8.8125 2.6875 -8.8125 C 2.96875 -8.8125 3.191406 -8.796875 3.359375 -8.765625 Z M 3.34375 -3.265625 L 3.09375 -4.453125 C 2.96875 -5.054688 2.859375 -5.847656 2.765625 -6.828125 C 2.648438 -5.753906 2.535156 -4.960938 2.421875 -4.453125 L 2.171875 -3.265625 Z M 3.34375 -3.265625 "/></g></g></g><g fill="#004aad" fill-opacity="1"><g transform="translate(180.517049, 342.824977)"><g><path d="M 1.84375 0.125 C 1.3125 0.125 0.90625 0.046875 0.625 -0.109375 C 0.34375 -0.273438 0.203125 -0.476562 0.203125 -0.71875 C 0.203125 -0.863281 0.226562 -1.023438 0.28125 -1.203125 C 0.332031 -1.390625 0.410156 -1.5625 0.515625 -1.71875 C 0.648438 -1.59375 0.820312 -1.492188 1.03125 -1.421875 C 1.25 -1.347656 1.46875 -1.3125 1.6875 -1.3125 C 2.019531 -1.3125 2.253906 -1.394531 2.390625 -1.5625 C 2.535156 -1.726562 2.609375 -1.96875 2.609375 -2.28125 C 2.609375 -2.5 2.566406 -2.703125 2.484375 -2.890625 C 2.410156 -3.085938 2.265625 -3.332031 2.046875 -3.625 L 0.90625 -5.15625 C 0.625 -5.507812 0.429688 -5.828125 0.328125 -6.109375 C 0.234375 -6.398438 0.1875 -6.695312 0.1875 -7 C 0.1875 -7.582031 0.378906 -8.046875 0.765625 -8.390625 C 1.148438 -8.742188 1.703125 -8.921875 2.421875 -8.921875 C 3.035156 -8.921875 3.472656 -8.859375 3.734375 -8.734375 C 4.003906 -8.617188 4.140625 -8.445312 4.140625 -8.21875 C 4.140625 -7.9375 4.03125 -7.675781 3.8125 -7.4375 C 3.726562 -7.5 3.578125 -7.554688 3.359375 -7.609375 C 3.148438 -7.660156 2.9375 -7.6875 2.71875 -7.6875 C 2.394531 -7.6875 2.144531 -7.628906 1.96875 -7.515625 C 1.789062 -7.410156 1.703125 -7.25 1.703125 -7.03125 C 1.703125 -6.84375 1.734375 -6.664062 1.796875 -6.5 C 1.867188 -6.34375 1.992188 -6.148438 2.171875 -5.921875 L 3.375 -4.375 C 3.664062 -4 3.863281 -3.65625 3.96875 -3.34375 C 4.082031 -3.039062 4.140625 -2.703125 4.140625 -2.328125 C 4.140625 -1.597656 3.96875 -1.003906 3.625 -0.546875 C 3.28125 -0.0976562 2.6875 0.125 1.84375 0.125 Z M 1.84375 0.125 "/></g></g></g><g fill="#004aad" fill-opacity="1"><g transform="translate(188.749387, 342.824977)"><g><path d="M 3.046875 -0.25 C 3.046875 -0.15625 3.023438 -0.09375 2.984375 -0.0625 C 2.941406 -0.0390625 2.804688 -0.0234375 2.578125 -0.015625 C 2.347656 -0.00390625 2.035156 0 1.640625 0 L 1.640625 -3.625 L 0.078125 -8.578125 C 0.046875 -8.648438 0.0507812 -8.695312 0.09375 -8.71875 C 0.144531 -8.75 0.304688 -8.769531 0.578125 -8.78125 C 0.847656 -8.789062 1.210938 -8.796875 1.671875 -8.796875 L 2.03125 -7.140625 C 2.101562 -6.847656 2.175781 -6.445312 2.25 -5.9375 C 2.320312 -5.425781 2.375 -5.019531 2.40625 -4.71875 C 2.425781 -5.007812 2.472656 -5.410156 2.546875 -5.921875 C 2.628906 -6.441406 2.707031 -6.851562 2.78125 -7.15625 L 3.078125 -8.546875 C 3.097656 -8.640625 3.132812 -8.695312 3.1875 -8.71875 C 3.25 -8.75 3.394531 -8.769531 3.625 -8.78125 C 3.851562 -8.789062 4.171875 -8.796875 4.578125 -8.796875 L 3.046875 -3.671875 Z M 3.046875 -0.25 "/></g></g></g><g fill="#004aad" fill-opacity="1"><g transform="translate(197.283217, 342.824977)"><g><path d="M 0.375 -2.9375 C 0.375 -3.414062 0.382812 -3.734375 0.40625 -3.890625 C 0.4375 -4.054688 0.507812 -4.140625 0.625 -4.140625 L 2.9375 -4.140625 C 2.9375 -3.660156 2.921875 -3.335938 2.890625 -3.171875 C 2.867188 -3.015625 2.800781 -2.9375 2.6875 -2.9375 Z M 0.375 -2.9375 "/></g></g></g><g fill="#004aad" fill-opacity="1"><g transform="translate(204.51055, 342.824977)"><g><path d="M 1.84375 0.125 C 1.3125 0.125 0.90625 0.046875 0.625 -0.109375 C 0.34375 -0.273438 0.203125 -0.476562 0.203125 -0.71875 C 0.203125 -0.863281 0.226562 -1.023438 0.28125 -1.203125 C 0.332031 -1.390625 0.410156 -1.5625 0.515625 -1.71875 C 0.648438 -1.59375 0.820312 -1.492188 1.03125 -1.421875 C 1.25 -1.347656 1.46875 -1.3125 1.6875 -1.3125 C 2.019531 -1.3125 2.253906 -1.394531 2.390625 -1.5625 C 2.535156 -1.726562 2.609375 -1.96875 2.609375 -2.28125 C 2.609375 -2.5 2.566406 -2.703125 2.484375 -2.890625 C 2.410156 -3.085938 2.265625 -3.332031 2.046875 -3.625 L 0.90625 -5.15625 C 0.625 -5.507812 0.429688 -5.828125 0.328125 -6.109375 C 0.234375 -6.398438 0.1875 -6.695312 0.1875 -7 C 0.1875 -7.582031 0.378906 -8.046875 0.765625 -8.390625 C 1.148438 -8.742188 1.703125 -8.921875 2.421875 -8.921875 C 3.035156 -8.921875 3.472656 -8.859375 3.734375 -8.734375 C 4.003906 -8.617188 4.140625 -8.445312 4.140625 -8.21875 C 4.140625 -7.9375 4.03125 -7.675781 3.8125 -7.4375 C 3.726562 -7.5 3.578125 -7.554688 3.359375 -7.609375 C 3.148438 -7.660156 2.9375 -7.6875 2.71875 -7.6875 C 2.394531 -7.6875 2.144531 -7.628906 1.96875 -7.515625 C 1.789062 -7.410156 1.703125 -7.25 1.703125 -7.03125 C 1.703125 -6.84375 1.734375 -6.664062 1.796875 -6.5 C 1.867188 -6.34375 1.992188 -6.148438 2.171875 -5.921875 L 3.375 -4.375 C 3.664062 -4 3.863281 -3.65625 3.96875 -3.34375 C 4.082031 -3.039062 4.140625 -2.703125 4.140625 -2.328125 C 4.140625 -1.597656 3.96875 -1.003906 3.625 -0.546875 C 3.28125 -0.0976562 2.6875 0.125 1.84375 0.125 Z M 1.84375 0.125 "/></g></g></g><g fill="#004aad" fill-opacity="1"><g transform="translate(212.742891, 342.824977)"><g><path d="M 2.515625 0.125 C 1.929688 0.125 1.476562 0 1.15625 -0.25 C 0.84375 -0.5 0.613281 -0.953125 0.46875 -1.609375 C 0.320312 -2.265625 0.25 -3.210938 0.25 -4.453125 C 0.25 -5.566406 0.332031 -6.453125 0.5 -7.109375 C 0.675781 -7.765625 0.9375 -8.226562 1.28125 -8.5 C 1.632812 -8.78125 2.09375 -8.921875 2.65625 -8.921875 C 3.21875 -8.921875 3.65625 -8.789062 3.96875 -8.53125 C 4.289062 -8.269531 4.523438 -7.820312 4.671875 -7.1875 C 4.816406 -6.550781 4.890625 -5.65625 4.890625 -4.5 C 4.890625 -3.320312 4.804688 -2.398438 4.640625 -1.734375 C 4.472656 -1.066406 4.21875 -0.585938 3.875 -0.296875 C 3.53125 -0.015625 3.078125 0.125 2.515625 0.125 Z M 2.59375 -1.3125 C 2.800781 -1.3125 2.957031 -1.414062 3.0625 -1.625 C 3.175781 -1.84375 3.253906 -2.171875 3.296875 -2.609375 C 3.335938 -3.046875 3.359375 -3.660156 3.359375 -4.453125 C 3.359375 -5.265625 3.34375 -5.875 3.3125 -6.28125 C 3.28125 -6.6875 3.210938 -6.984375 3.109375 -7.171875 C 3.003906 -7.367188 2.84375 -7.46875 2.625 -7.46875 C 2.425781 -7.46875 2.269531 -7.359375 2.15625 -7.140625 C 2.039062 -6.929688 1.957031 -6.585938 1.90625 -6.109375 C 1.863281 -5.640625 1.84375 -4.984375 1.84375 -4.140625 C 1.84375 -3.421875 1.859375 -2.863281 1.890625 -2.46875 C 1.929688 -2.082031 2.003906 -1.789062 2.109375 -1.59375 C 2.222656 -1.40625 2.382812 -1.3125 2.59375 -1.3125 Z M 2.59375 -1.3125 "/></g></g></g><g fill="#004aad" fill-opacity="1"><g transform="translate(221.804357, 342.824977)"><g><path d="M 3.640625 -8.796875 C 3.640625 -8.472656 3.632812 -8.210938 3.625 -8.015625 C 3.625 -7.828125 3.609375 -7.710938 3.578125 -7.671875 C 3.546875 -7.628906 3.484375 -7.609375 3.390625 -7.609375 L 1.765625 -7.609375 L 1.765625 -5.40625 L 3.296875 -5.40625 C 3.296875 -5.09375 3.289062 -4.832031 3.28125 -4.625 C 3.28125 -4.425781 3.265625 -4.296875 3.234375 -4.234375 C 3.203125 -4.171875 3.148438 -4.140625 3.078125 -4.140625 L 1.765625 -4.140625 L 1.765625 -0.21875 C 1.765625 -0.0703125 1.695312 0 1.5625 0 L 0.375 0 L 0.375 -8.546875 C 0.375 -8.585938 0.390625 -8.640625 0.421875 -8.703125 C 0.460938 -8.765625 0.53125 -8.796875 0.625 -8.796875 Z M 3.640625 -8.796875 "/></g></g></g><g fill="#004aad" fill-opacity="1"><g transform="translate(229.433686, 342.824977)"><g><path d="M 4.640625 -8.796875 L 4.640625 -7.734375 C 4.640625 -7.640625 4.617188 -7.570312 4.578125 -7.53125 C 4.546875 -7.5 4.484375 -7.484375 4.390625 -7.484375 L 3.046875 -7.484375 L 3.046875 -0.25 C 3.046875 -0.15625 3.023438 -0.09375 2.984375 -0.0625 C 2.941406 -0.0390625 2.804688 -0.0234375 2.578125 -0.015625 C 2.347656 -0.00390625 2.039062 0 1.65625 0 L 1.65625 -7.484375 L 0.125 -7.484375 L 0.125 -8.546875 C 0.125 -8.710938 0.207031 -8.796875 0.375 -8.796875 Z M 4.640625 -8.796875 "/></g></g></g><g fill="#1b3c68" fill-opacity="1"><g transform="translate(72.773665, 204.592501)"><g><path d="M 12.609375 -1.796875 L 12.609375 0 L 2.15625 0 L 2.15625 -14.40625 L 12.328125 -14.40625 L 12.328125 -12.609375 L 4.21875 -12.609375 L 4.21875 -8.1875 L 11.4375 -8.1875 L 11.4375 -6.4375 L 4.21875 -6.4375 L 4.21875 -1.796875 Z M 12.609375 -1.796875 "/></g></g></g><g fill="#1b3c68" fill-opacity="1"><g transform="translate(92.951943, 204.592501)"><g><path d="M 11.34375 -3.59375 L 3.6875 -3.59375 L 2.09375 0 L -0.015625 0 L 6.5 -14.40625 L 8.546875 -14.40625 L 15.078125 0 L 12.921875 0 Z M 10.625 -5.25 L 7.515625 -12.3125 L 4.40625 -5.25 Z M 10.625 -5.25 "/></g></g></g><g fill="#1b3c68" fill-opacity="1"><g transform="translate(114.405345, 204.592501)"><g><path d="M 6.359375 0.171875 C 5.273438 0.171875 4.226562 0.00390625 3.21875 -0.328125 C 2.207031 -0.671875 1.414062 -1.109375 0.84375 -1.640625 L 1.609375 -3.25 C 2.148438 -2.757812 2.847656 -2.359375 3.703125 -2.046875 C 4.566406 -1.734375 5.453125 -1.578125 6.359375 -1.578125 C 7.554688 -1.578125 8.445312 -1.78125 9.03125 -2.1875 C 9.625 -2.59375 9.921875 -3.132812 9.921875 -3.8125 C 9.921875 -4.300781 9.757812 -4.695312 9.4375 -5 C 9.113281 -5.3125 8.710938 -5.550781 8.234375 -5.71875 C 7.765625 -5.882812 7.097656 -6.070312 6.234375 -6.28125 C 5.148438 -6.539062 4.273438 -6.800781 3.609375 -7.0625 C 2.941406 -7.320312 2.367188 -7.722656 1.890625 -8.265625 C 1.421875 -8.804688 1.1875 -9.535156 1.1875 -10.453125 C 1.1875 -11.222656 1.390625 -11.914062 1.796875 -12.53125 C 2.203125 -13.144531 2.816406 -13.632812 3.640625 -14 C 4.460938 -14.375 5.484375 -14.5625 6.703125 -14.5625 C 7.554688 -14.5625 8.394531 -14.453125 9.21875 -14.234375 C 10.039062 -14.015625 10.75 -13.703125 11.34375 -13.296875 L 10.65625 -11.640625 C 10.050781 -12.023438 9.40625 -12.316406 8.71875 -12.515625 C 8.039062 -12.710938 7.367188 -12.8125 6.703125 -12.8125 C 5.535156 -12.8125 4.660156 -12.597656 4.078125 -12.171875 C 3.492188 -11.753906 3.203125 -11.207031 3.203125 -10.53125 C 3.203125 -10.039062 3.367188 -9.640625 3.703125 -9.328125 C 4.035156 -9.023438 4.441406 -8.785156 4.921875 -8.609375 C 5.410156 -8.441406 6.078125 -8.257812 6.921875 -8.0625 C 8.003906 -7.800781 8.875 -7.539062 9.53125 -7.28125 C 10.1875 -7.019531 10.75 -6.617188 11.21875 -6.078125 C 11.695312 -5.546875 11.9375 -4.832031 11.9375 -3.9375 C 11.9375 -3.175781 11.726562 -2.484375 11.3125 -1.859375 C 10.90625 -1.234375 10.28125 -0.738281 9.4375 -0.375 C 8.601562 -0.0078125 7.578125 0.171875 6.359375 0.171875 Z M 6.359375 0.171875 "/></g></g></g><g fill="#1b3c68" fill-opacity="1"><g transform="translate(133.575868, 204.592501)"><g><path d="M 7.671875 -4.984375 L 7.671875 0 L 5.640625 0 L 5.640625 -5.015625 L -0.078125 -14.40625 L 2.125 -14.40625 L 6.734375 -6.8125 L 11.359375 -14.40625 L 13.390625 -14.40625 Z M 7.671875 -4.984375 "/></g></g></g><g fill="#1b3c68" fill-opacity="1"><g transform="translate(153.281116, 204.592501)"><g/></g></g><g fill="#1b3c68" fill-opacity="1"><g transform="translate(165.212245, 204.592501)"><g><path d="M 11.34375 -3.59375 L 3.6875 -3.59375 L 2.09375 0 L -0.015625 0 L 6.5 -14.40625 L 8.546875 -14.40625 L 15.078125 0 L 12.921875 0 Z M 10.625 -5.25 L 7.515625 -12.3125 L 4.40625 -5.25 Z M 10.625 -5.25 "/></g></g></g><g fill="#1b3c68" fill-opacity="1"><g transform="translate(186.665647, 204.592501)"><g><path d="M 8.125 0.171875 C 6.207031 0.171875 4.710938 -0.375 3.640625 -1.46875 C 2.566406 -2.570312 2.03125 -4.15625 2.03125 -6.21875 L 2.03125 -14.40625 L 4.09375 -14.40625 L 4.09375 -6.296875 C 4.09375 -3.210938 5.445312 -1.671875 8.15625 -1.671875 C 9.46875 -1.671875 10.472656 -2.050781 11.171875 -2.8125 C 11.867188 -3.570312 12.21875 -4.734375 12.21875 -6.296875 L 12.21875 -14.40625 L 14.21875 -14.40625 L 14.21875 -6.21875 C 14.21875 -4.144531 13.679688 -2.5625 12.609375 -1.46875 C 11.546875 -0.375 10.050781 0.171875 8.125 0.171875 Z M 8.125 0.171875 "/></g></g></g><g fill="#1b3c68" fill-opacity="1"><g transform="translate(209.332466, 204.592501)"><g><path d="M 8.609375 0.171875 C 7.160156 0.171875 5.859375 -0.144531 4.703125 -0.78125 C 3.546875 -1.425781 2.632812 -2.304688 1.96875 -3.421875 C 1.3125 -4.546875 0.984375 -5.804688 0.984375 -7.203125 C 0.984375 -8.597656 1.3125 -9.851562 1.96875 -10.96875 C 2.632812 -12.09375 3.550781 -12.972656 4.71875 -13.609375 C 5.882812 -14.242188 7.1875 -14.5625 8.625 -14.5625 C 9.75 -14.5625 10.773438 -14.375 11.703125 -14 C 12.640625 -13.625 13.4375 -13.066406 14.09375 -12.328125 L 12.765625 -11.03125 C 11.671875 -12.164062 10.316406 -12.734375 8.703125 -12.734375 C 7.628906 -12.734375 6.660156 -12.492188 5.796875 -12.015625 C 4.929688 -11.535156 4.253906 -10.875 3.765625 -10.03125 C 3.285156 -9.1875 3.046875 -8.242188 3.046875 -7.203125 C 3.046875 -6.160156 3.285156 -5.21875 3.765625 -4.375 C 4.253906 -3.53125 4.929688 -2.867188 5.796875 -2.390625 C 6.660156 -1.910156 7.628906 -1.671875 8.703125 -1.671875 C 10.304688 -1.671875 11.660156 -2.242188 12.765625 -3.390625 L 14.09375 -2.09375 C 13.4375 -1.351562 12.640625 -0.789062 11.703125 -0.40625 C 10.765625 -0.0195312 9.734375 0.171875 8.609375 0.171875 Z M 8.609375 0.171875 "/></g></g></g><g fill="#1b3c68" fill-opacity="1"><g transform="translate(230.60076, 204.592501)"><g><path d="M 5.015625 -12.609375 L 0.078125 -12.609375 L 0.078125 -14.40625 L 12 -14.40625 L 12 -12.609375 L 7.0625 -12.609375 L 7.0625 0 L 5.015625 0 Z M 5.015625 -12.609375 "/></g></g></g><g fill="#1b3c68" fill-opacity="1"><g transform="translate(249.072015, 204.592501)"><g><path d="M 2.15625 -14.40625 L 4.21875 -14.40625 L 4.21875 0 L 2.15625 0 Z M 2.15625 -14.40625 "/></g></g></g><g fill="#1b3c68" fill-opacity="1"><g transform="translate(261.846368, 204.592501)"><g><path d="M 8.65625 0.171875 C 7.207031 0.171875 5.898438 -0.144531 4.734375 -0.78125 C 3.566406 -1.425781 2.648438 -2.3125 1.984375 -3.4375 C 1.316406 -4.5625 0.984375 -5.816406 0.984375 -7.203125 C 0.984375 -8.585938 1.316406 -9.84375 1.984375 -10.96875 C 2.648438 -12.09375 3.566406 -12.972656 4.734375 -13.609375 C 5.898438 -14.242188 7.207031 -14.5625 8.65625 -14.5625 C 10.101562 -14.5625 11.410156 -14.242188 12.578125 -13.609375 C 13.742188 -12.972656 14.65625 -12.09375 15.3125 -10.96875 C 15.96875 -9.851562 16.296875 -8.597656 16.296875 -7.203125 C 16.296875 -5.804688 15.96875 -4.546875 15.3125 -3.421875 C 14.65625 -2.304688 13.742188 -1.425781 12.578125 -0.78125 C 11.410156 -0.144531 10.101562 0.171875 8.65625 0.171875 Z M 8.65625 -1.671875 C 9.71875 -1.671875 10.671875 -1.910156 11.515625 -2.390625 C 12.359375 -2.867188 13.019531 -3.53125 13.5 -4.375 C 13.988281 -5.21875 14.234375 -6.160156 14.234375 -7.203125 C 14.234375 -8.242188 13.988281 -9.1875 13.5 -10.03125 C 13.019531 -10.875 12.359375 -11.535156 11.515625 -12.015625 C 10.671875 -12.492188 9.71875 -12.734375 8.65625 -12.734375 C 7.601562 -12.734375 6.644531 -12.492188 5.78125 -12.015625 C 4.925781 -11.535156 4.253906 -10.875 3.765625 -10.03125 C 3.285156 -9.1875 3.046875 -8.242188 3.046875 -7.203125 C 3.046875 -6.160156 3.285156 -5.21875 3.765625 -4.375 C 4.253906 -3.53125 4.925781 -2.867188 5.78125 -2.390625 C 6.644531 -1.910156 7.601562 -1.671875 8.65625 -1.671875 Z M 8.65625 -1.671875 "/></g></g></g><g fill="#1b3c68" fill-opacity="1"><g transform="translate(285.520942, 204.592501)"><g><path d="M 14.546875 -14.40625 L 14.546875 0 L 12.859375 0 L 4.21875 -10.734375 L 4.21875 0 L 2.15625 0 L 2.15625 -14.40625 L 3.84375 -14.40625 L 12.484375 -3.65625 L 12.484375 -14.40625 Z M 14.546875 -14.40625 "/></g></g></g></svg>