<svg xmlns="http://www.w3.org/2000/svg" xmlns:xlink="http://www.w3.org/1999/xlink" width="500" zoomAndPan="magnify" viewBox="0 0 375 374.999991" height="500" preserveAspectRatio="xMidYMid meet" version="1.0"><defs><clipPath id="id1"><path d="M 62 87.65625 L 375 87.65625 L 375 257 L 62 257 Z M 62 87.65625 " clip-rule="nonzero"/></clipPath></defs><g clip-path="url(#id1)"><path fill="#1b3c68" d="M 374.992188 256.820312 L 171.285156 256.820312 L 122.566406 107.199219 L 62.835938 107.199219 L 62.835938 87.859375 L 136.628906 87.859375 L 185.34375 237.476562 L 374.992188 237.476562 Z M 374.992188 256.820312 " fill-opacity="1" fill-rule="nonzero"/></g><path fill="#29c6cd" d="M 235.601562 270.257812 C 235.601562 270.804688 235.574219 271.351562 235.519531 271.894531 C 235.46875 272.4375 235.386719 272.976562 235.28125 273.511719 C 235.175781 274.046875 235.042969 274.578125 234.882812 275.101562 C 234.722656 275.621094 234.539062 276.136719 234.332031 276.640625 C 234.121094 277.144531 233.886719 277.636719 233.632812 278.121094 C 233.375 278.601562 233.09375 279.070312 232.789062 279.523438 C 232.484375 279.976562 232.160156 280.414062 231.8125 280.839844 C 231.464844 281.261719 231.101562 281.664062 230.714844 282.050781 C 230.328125 282.4375 229.921875 282.804688 229.5 283.148438 C 229.078125 283.496094 228.636719 283.820312 228.183594 284.125 C 227.730469 284.425781 227.261719 284.707031 226.777344 284.964844 C 226.296875 285.222656 225.804688 285.457031 225.296875 285.664062 C 224.792969 285.875 224.28125 286.058594 223.757812 286.214844 C 223.234375 286.375 222.703125 286.507812 222.167969 286.613281 C 221.632812 286.71875 221.089844 286.800781 220.546875 286.855469 C 220.003906 286.90625 219.457031 286.933594 218.910156 286.933594 C 218.363281 286.933594 217.820312 286.90625 217.273438 286.855469 C 216.730469 286.800781 216.191406 286.71875 215.65625 286.613281 C 215.117188 286.507812 214.589844 286.375 214.066406 286.214844 C 213.542969 286.058594 213.027344 285.875 212.523438 285.664062 C 212.019531 285.457031 211.527344 285.222656 211.042969 284.964844 C 210.5625 284.707031 210.09375 284.425781 209.636719 284.125 C 209.183594 283.820312 208.746094 283.496094 208.324219 283.148438 C 207.902344 282.804688 207.496094 282.4375 207.109375 282.050781 C 206.722656 281.664062 206.355469 281.261719 206.007812 280.839844 C 205.664062 280.414062 205.335938 279.976562 205.035156 279.523438 C 204.730469 279.070312 204.449219 278.601562 204.191406 278.121094 C 203.933594 277.636719 203.699219 277.144531 203.492188 276.640625 C 203.28125 276.136719 203.097656 275.621094 202.941406 275.101562 C 202.78125 274.578125 202.648438 274.046875 202.542969 273.511719 C 202.433594 272.976562 202.355469 272.4375 202.300781 271.894531 C 202.246094 271.351562 202.222656 270.804688 202.222656 270.257812 C 202.222656 269.714844 202.246094 269.167969 202.300781 268.625 C 202.355469 268.082031 202.433594 267.542969 202.542969 267.007812 C 202.648438 266.472656 202.78125 265.941406 202.941406 265.417969 C 203.097656 264.898438 203.28125 264.382812 203.492188 263.878906 C 203.699219 263.375 203.933594 262.878906 204.191406 262.398438 C 204.449219 261.917969 204.730469 261.449219 205.035156 260.996094 C 205.335938 260.542969 205.664062 260.101562 206.007812 259.679688 C 206.355469 259.257812 206.722656 258.855469 207.109375 258.46875 C 207.496094 258.082031 207.902344 257.714844 208.324219 257.371094 C 208.746094 257.023438 209.183594 256.699219 209.636719 256.394531 C 210.09375 256.089844 210.5625 255.8125 211.042969 255.554688 C 211.527344 255.296875 212.019531 255.0625 212.523438 254.855469 C 213.027344 254.644531 213.542969 254.460938 214.066406 254.304688 C 214.589844 254.144531 215.117188 254.011719 215.65625 253.90625 C 216.191406 253.796875 216.730469 253.71875 217.273438 253.664062 C 217.820312 253.613281 218.363281 253.585938 218.910156 253.585938 C 219.457031 253.585938 220.003906 253.613281 220.546875 253.664062 C 221.089844 253.71875 221.632812 253.796875 222.167969 253.90625 C 222.703125 254.011719 223.234375 254.144531 223.757812 254.304688 C 224.28125 254.460938 224.792969 254.644531 225.296875 254.855469 C 225.804688 255.0625 226.296875 255.296875 226.777344 255.554688 C 227.261719 255.8125 227.730469 256.089844 228.183594 256.394531 C 228.636719 256.699219 229.078125 257.023438 229.5 257.371094 C 229.921875 257.714844 230.328125 258.082031 230.714844 258.46875 C 231.101562 258.855469 231.464844 259.257812 231.8125 259.679688 C 232.160156 260.101562 232.484375 260.542969 232.789062 260.996094 C 233.09375 261.449219 233.375 261.917969 233.632812 262.398438 C 233.886719 262.878906 234.121094 263.375 234.332031 263.878906 C 234.539062 264.382812 234.722656 264.898438 234.882812 265.417969 C 235.042969 265.941406 235.175781 266.472656 235.28125 267.007812 C 235.386719 267.542969 235.46875 268.082031 235.519531 268.625 C 235.574219 269.167969 235.601562 269.714844 235.601562 270.257812 Z M 235.601562 270.257812 " fill-opacity="1" fill-rule="nonzero"/><path fill="#29c6cd" d="M 345.125 270.257812 C 345.125 270.804688 345.097656 271.351562 345.042969 271.894531 C 344.988281 272.4375 344.910156 272.976562 344.804688 273.511719 C 344.695312 274.046875 344.5625 274.578125 344.40625 275.101562 C 344.246094 275.621094 344.0625 276.136719 343.855469 276.640625 C 343.644531 277.144531 343.410156 277.636719 343.152344 278.121094 C 342.894531 278.601562 342.613281 279.070312 342.3125 279.523438 C 342.007812 279.976562 341.683594 280.414062 341.335938 280.839844 C 340.988281 281.261719 340.621094 281.664062 340.234375 282.050781 C 339.847656 282.4375 339.445312 282.804688 339.023438 283.148438 C 338.597656 283.496094 338.160156 283.820312 337.707031 284.125 C 337.25 284.425781 336.785156 284.707031 336.300781 284.964844 C 335.820312 285.222656 335.324219 285.457031 334.820312 285.664062 C 334.316406 285.875 333.800781 286.058594 333.277344 286.214844 C 332.753906 286.375 332.226562 286.507812 331.691406 286.613281 C 331.152344 286.71875 330.613281 286.800781 330.070312 286.855469 C 329.527344 286.90625 328.980469 286.933594 328.433594 286.933594 C 327.886719 286.933594 327.34375 286.90625 326.796875 286.855469 C 326.253906 286.800781 325.714844 286.71875 325.175781 286.613281 C 324.640625 286.507812 324.113281 286.375 323.589844 286.214844 C 323.066406 286.058594 322.550781 285.875 322.046875 285.664062 C 321.542969 285.457031 321.046875 285.222656 320.566406 284.964844 C 320.082031 284.707031 319.617188 284.425781 319.160156 284.125 C 318.707031 283.820312 318.269531 283.496094 317.84375 283.148438 C 317.421875 282.804688 317.019531 282.4375 316.632812 282.050781 C 316.246094 281.664062 315.878906 281.261719 315.53125 280.839844 C 315.183594 280.414062 314.859375 279.976562 314.554688 279.523438 C 314.253906 279.070312 313.972656 278.601562 313.714844 278.121094 C 313.457031 277.636719 313.222656 277.144531 313.015625 276.640625 C 312.804688 276.136719 312.621094 275.621094 312.460938 275.101562 C 312.304688 274.578125 312.171875 274.046875 312.0625 273.511719 C 311.957031 272.976562 311.878906 272.4375 311.824219 271.894531 C 311.769531 271.351562 311.742188 270.804688 311.742188 270.257812 C 311.742188 269.714844 311.769531 269.167969 311.824219 268.625 C 311.878906 268.082031 311.957031 267.542969 312.0625 267.007812 C 312.171875 266.472656 312.304688 265.941406 312.460938 265.417969 C 312.621094 264.898438 312.804688 264.382812 313.015625 263.878906 C 313.222656 263.375 313.457031 262.878906 313.714844 262.398438 C 313.972656 261.917969 314.253906 261.449219 314.554688 260.996094 C 314.859375 260.542969 315.183594 260.101562 315.53125 259.679688 C 315.878906 259.257812 316.246094 258.855469 316.632812 258.46875 C 317.019531 258.082031 317.421875 257.714844 317.84375 257.371094 C 318.269531 257.023438 318.707031 256.699219 319.160156 256.394531 C 319.617188 256.089844 320.082031 255.8125 320.566406 255.554688 C 321.046875 255.296875 321.542969 255.0625 322.046875 254.855469 C 322.550781 254.644531 323.066406 254.460938 323.589844 254.304688 C 324.113281 254.144531 324.640625 254.011719 325.175781 253.90625 C 325.714844 253.796875 326.253906 253.71875 326.796875 253.664062 C 327.34375 253.613281 327.886719 253.585938 328.433594 253.585938 C 328.980469 253.585938 329.527344 253.613281 330.070312 253.664062 C 330.613281 253.71875 331.152344 253.796875 331.691406 253.90625 C 332.226562 254.011719 332.753906 254.144531 333.277344 254.304688 C 333.800781 254.460938 334.316406 254.644531 334.820312 254.855469 C 335.324219 255.0625 335.820312 255.296875 336.300781 255.554688 C 336.785156 255.8125 337.25 256.089844 337.707031 256.394531 C 338.160156 256.699219 338.597656 257.023438 339.023438 257.371094 C 339.445312 257.714844 339.847656 258.082031 340.234375 258.46875 C 340.621094 258.855469 340.988281 259.257812 341.335938 259.679688 C 341.683594 260.101562 342.007812 260.542969 342.3125 260.996094 C 342.613281 261.449219 342.894531 261.917969 343.152344 262.398438 C 343.410156 262.878906 343.644531 263.375 343.855469 263.878906 C 344.0625 264.382812 344.246094 264.898438 344.40625 265.417969 C 344.5625 265.941406 344.695312 266.472656 344.804688 267.007812 C 344.910156 267.542969 344.988281 268.082031 345.042969 268.625 C 345.097656 269.167969 345.125 269.714844 345.125 270.257812 Z M 345.125 270.257812 " fill-opacity="1" fill-rule="nonzero"/><path fill="#29c6cd" d="M 268.648438 214.6875 C 268.648438 215.503906 268.570312 216.3125 268.410156 217.113281 C 268.25 217.914062 268.015625 218.691406 267.703125 219.445312 C 267.390625 220.199219 267.003906 220.914062 266.550781 221.59375 C 266.097656 222.273438 265.582031 222.898438 265.003906 223.476562 C 264.425781 224.054688 263.796875 224.570312 263.117188 225.023438 C 262.4375 225.476562 261.722656 225.859375 260.964844 226.171875 C 260.210938 226.484375 259.433594 226.71875 258.632812 226.878906 C 257.832031 227.039062 257.019531 227.117188 256.203125 227.117188 C 255.386719 227.117188 254.578125 227.039062 253.777344 226.878906 C 252.976562 226.71875 252.195312 226.484375 251.441406 226.171875 C 250.6875 225.859375 249.96875 225.476562 249.289062 225.023438 C 248.609375 224.570312 247.984375 224.054688 247.40625 223.476562 C 246.828125 222.898438 246.3125 222.273438 245.855469 221.59375 C 245.402344 220.914062 245.019531 220.199219 244.707031 219.445312 C 244.394531 218.691406 244.160156 217.914062 244 217.113281 C 243.839844 216.3125 243.761719 215.503906 243.761719 214.6875 C 243.761719 213.871094 243.839844 213.0625 244 212.261719 C 244.160156 211.460938 244.394531 210.683594 244.707031 209.929688 C 245.019531 209.175781 245.402344 208.457031 245.855469 207.777344 C 246.3125 207.101562 246.828125 206.472656 247.40625 205.894531 C 247.984375 205.316406 248.609375 204.800781 249.289062 204.347656 C 249.96875 203.894531 250.6875 203.511719 251.441406 203.199219 C 252.195312 202.886719 252.976562 202.652344 253.777344 202.492188 C 254.578125 202.332031 255.386719 202.253906 256.203125 202.253906 C 257.019531 202.253906 257.832031 202.332031 258.632812 202.492188 C 259.433594 202.652344 260.210938 202.886719 260.964844 203.199219 C 261.722656 203.511719 262.4375 203.894531 263.117188 204.347656 C 263.796875 204.800781 264.425781 205.316406 265.003906 205.894531 C 265.582031 206.472656 266.097656 207.101562 266.550781 207.777344 C 267.003906 208.457031 267.390625 209.175781 267.703125 209.929688 C 268.015625 210.683594 268.25 211.460938 268.410156 212.261719 C 268.570312 213.0625 268.648438 213.871094 268.648438 214.6875 Z M 268.648438 214.6875 " fill-opacity="1" fill-rule="nonzero"/><path fill="#29c6cd" d="M 353.957031 146.746094 C 352.070312 146.746094 350.367188 146.191406 348.84375 145.078125 C 303.605469 112.078125 245.917969 105.359375 182.019531 125.664062 C 181.476562 125.835938 180.921875 125.953125 180.355469 126.015625 C 179.789062 126.082031 179.222656 126.085938 178.652344 126.039062 C 178.085938 125.992188 177.527344 125.886719 176.980469 125.730469 C 176.433594 125.574219 175.90625 125.363281 175.398438 125.101562 C 174.894531 124.839844 174.417969 124.53125 173.972656 124.175781 C 173.527344 123.820312 173.121094 123.425781 172.753906 122.988281 C 172.386719 122.554688 172.0625 122.085938 171.789062 121.589844 C 171.511719 121.089844 171.289062 120.570312 171.117188 120.027344 C 170.945312 119.484375 170.824219 118.929688 170.761719 118.363281 C 170.699219 117.796875 170.691406 117.230469 170.738281 116.664062 C 170.789062 116.097656 170.890625 115.539062 171.050781 114.992188 C 171.207031 114.445312 171.417969 113.917969 171.679688 113.414062 C 171.941406 112.90625 172.25 112.433594 172.605469 111.988281 C 172.960938 111.542969 173.355469 111.136719 173.792969 110.769531 C 174.230469 110.402344 174.695312 110.082031 175.195312 109.804688 C 175.695312 109.53125 176.214844 109.308594 176.757812 109.136719 C 211.046875 98.242188 244.058594 94.566406 274.898438 98.230469 C 305.949219 101.910156 334.277344 112.964844 359.105469 131.074219 C 359.84375 131.613281 360.480469 132.253906 361.019531 132.992188 C 361.554688 133.734375 361.964844 134.542969 362.246094 135.414062 C 362.527344 136.285156 362.667969 137.175781 362.664062 138.089844 C 362.664062 139.007812 362.519531 139.898438 362.238281 140.769531 C 361.953125 141.640625 361.539062 142.445312 361 143.183594 C 360.460938 143.921875 359.820312 144.5625 359.078125 145.097656 C 358.335938 145.632812 357.53125 146.042969 356.65625 146.324219 C 355.785156 146.605469 354.894531 146.746094 353.976562 146.746094 Z M 353.957031 146.746094 " fill-opacity="1" fill-rule="nonzero"/><path fill="#29c6cd" d="M 319.300781 173.554688 C 317.414062 173.554688 315.710938 173 314.1875 171.886719 C 282.761719 148.949219 251.757812 145.371094 207.160156 159.539062 C 206.617188 159.710938 206.0625 159.828125 205.496094 159.894531 C 204.929688 159.957031 204.363281 159.964844 203.796875 159.917969 C 203.226562 159.867188 202.671875 159.765625 202.121094 159.605469 C 201.574219 159.449219 201.046875 159.238281 200.542969 158.976562 C 200.035156 158.714844 199.558594 158.40625 199.113281 158.050781 C 198.667969 157.695312 198.261719 157.300781 197.894531 156.867188 C 197.527344 156.429688 197.207031 155.964844 196.929688 155.464844 C 196.65625 154.964844 196.433594 154.445312 196.257812 153.902344 C 196.085938 153.359375 195.96875 152.804688 195.90625 152.242188 C 195.839844 151.675781 195.832031 151.109375 195.882812 150.539062 C 195.929688 149.972656 196.035156 149.417969 196.191406 148.871094 C 196.351562 148.320312 196.558594 147.796875 196.820312 147.289062 C 197.082031 146.785156 197.390625 146.308594 197.75 145.863281 C 198.105469 145.417969 198.5 145.011719 198.933594 144.644531 C 199.371094 144.277344 199.839844 143.957031 200.335938 143.683594 C 200.835938 143.40625 201.355469 143.183594 201.902344 143.011719 C 227.0625 135.007812 248.90625 132.339844 268.660156 134.789062 C 288.238281 137.214844 306.476562 144.777344 324.460938 157.890625 C 325.203125 158.429688 325.839844 159.070312 326.375 159.8125 C 326.914062 160.554688 327.324219 161.359375 327.605469 162.230469 C 327.886719 163.101562 328.023438 163.996094 328.023438 164.910156 C 328.023438 165.828125 327.878906 166.71875 327.59375 167.589844 C 327.308594 168.457031 326.898438 169.261719 326.359375 170.003906 C 325.816406 170.742188 325.175781 171.378906 324.4375 171.917969 C 323.695312 172.453125 322.886719 172.863281 322.015625 173.144531 C 321.144531 173.425781 320.25 173.566406 319.335938 173.566406 Z M 319.300781 173.554688 " fill-opacity="1" fill-rule="nonzero"/><path fill="#29c6cd" d="M 292.550781 201.417969 C 290.664062 201.421875 288.957031 200.867188 287.433594 199.753906 C 268.507812 185.9375 253.160156 184.117188 226.601562 192.5625 C 226.058594 192.734375 225.503906 192.851562 224.9375 192.914062 C 224.371094 192.980469 223.804688 192.988281 223.238281 192.9375 C 222.667969 192.890625 222.109375 192.789062 221.5625 192.628906 C 221.015625 192.472656 220.488281 192.261719 219.984375 192 C 219.476562 191.738281 219 191.429688 218.554688 191.074219 C 218.109375 190.71875 217.703125 190.324219 217.335938 189.886719 C 216.96875 189.453125 216.648438 188.984375 216.371094 188.488281 C 216.097656 187.988281 215.871094 187.46875 215.699219 186.925781 C 215.527344 186.382812 215.410156 185.828125 215.347656 185.261719 C 215.28125 184.699219 215.273438 184.128906 215.324219 183.5625 C 215.371094 182.996094 215.476562 182.4375 215.632812 181.890625 C 215.789062 181.34375 216 180.820312 216.261719 180.3125 C 216.523438 179.808594 216.832031 179.332031 217.1875 178.886719 C 217.542969 178.441406 217.941406 178.035156 218.375 177.667969 C 218.8125 177.300781 219.277344 176.980469 219.777344 176.707031 C 220.277344 176.429688 220.796875 176.207031 221.339844 176.035156 C 252.933594 166.027344 274.335938 168.695312 297.675781 185.746094 C 298.417969 186.285156 299.054688 186.925781 299.589844 187.667969 C 300.128906 188.410156 300.539062 189.214844 300.820312 190.085938 C 301.101562 190.957031 301.238281 191.851562 301.238281 192.765625 C 301.238281 193.679688 301.09375 194.574219 300.808594 195.441406 C 300.523438 196.3125 300.113281 197.117188 299.574219 197.855469 C 299.035156 198.597656 298.394531 199.234375 297.652344 199.769531 C 296.910156 200.308594 296.101562 200.71875 295.230469 201 C 294.359375 201.28125 293.464844 201.421875 292.550781 201.417969 Z M 292.550781 201.417969 " fill-opacity="1" fill-rule="nonzero"/><path fill="#29c6cd" d="M 52.367188 155.296875 L 114.488281 155.296875 C 114.9375 155.296875 115.382812 155.339844 115.824219 155.429688 C 116.265625 155.515625 116.695312 155.644531 117.109375 155.816406 C 117.527344 155.992188 117.921875 156.199219 118.296875 156.449219 C 118.667969 156.699219 119.015625 156.984375 119.332031 157.300781 C 119.652344 157.621094 119.933594 157.964844 120.183594 158.339844 C 120.433594 158.710938 120.644531 159.105469 120.816406 159.523438 C 120.988281 159.9375 121.121094 160.363281 121.207031 160.804688 C 121.296875 161.246094 121.339844 161.691406 121.339844 162.140625 L 121.339844 162.496094 C 121.339844 162.945312 121.296875 163.386719 121.207031 163.828125 C 121.121094 164.269531 120.988281 164.699219 120.816406 165.113281 C 120.644531 165.527344 120.433594 165.921875 120.183594 166.296875 C 119.933594 166.667969 119.652344 167.015625 119.332031 167.332031 C 119.015625 167.652344 118.667969 167.933594 118.296875 168.183594 C 117.921875 168.433594 117.527344 168.644531 117.109375 168.816406 C 116.695312 168.988281 116.265625 169.117188 115.824219 169.207031 C 115.382812 169.292969 114.9375 169.335938 114.488281 169.335938 L 52.367188 169.335938 C 51.917969 169.335938 51.472656 169.292969 51.03125 169.207031 C 50.589844 169.117188 50.160156 168.988281 49.746094 168.816406 C 49.332031 168.644531 48.9375 168.433594 48.5625 168.183594 C 48.1875 167.933594 47.84375 167.652344 47.523438 167.332031 C 47.207031 167.015625 46.921875 166.667969 46.671875 166.296875 C 46.421875 165.921875 46.210938 165.527344 46.039062 165.113281 C 45.867188 164.699219 45.738281 164.269531 45.648438 163.828125 C 45.5625 163.386719 45.519531 162.945312 45.519531 162.496094 L 45.519531 162.140625 C 45.519531 161.691406 45.5625 161.246094 45.648438 160.804688 C 45.738281 160.363281 45.867188 159.9375 46.039062 159.523438 C 46.210938 159.105469 46.421875 158.710938 46.671875 158.339844 C 46.921875 157.964844 47.207031 157.621094 47.523438 157.300781 C 47.84375 156.984375 48.1875 156.699219 48.5625 156.449219 C 48.9375 156.199219 49.332031 155.992188 49.746094 155.816406 C 50.160156 155.644531 50.589844 155.515625 51.03125 155.429688 C 51.472656 155.339844 51.917969 155.296875 52.367188 155.296875 Z M 52.367188 155.296875 " fill-opacity="1" fill-rule="nonzero"/><path fill="#29c6cd" d="M 17.746094 206.203125 L 86.269531 206.203125 C 86.71875 206.203125 87.164062 206.246094 87.605469 206.332031 C 88.046875 206.421875 88.476562 206.550781 88.890625 206.722656 C 89.304688 206.894531 89.699219 207.105469 90.074219 207.355469 C 90.449219 207.605469 90.792969 207.886719 91.113281 208.207031 C 91.429688 208.523438 91.714844 208.871094 91.964844 209.242188 C 92.214844 209.617188 92.425781 210.011719 92.597656 210.425781 C 92.769531 210.839844 92.898438 211.269531 92.988281 211.710938 C 93.074219 212.152344 93.117188 212.597656 93.117188 213.046875 L 93.117188 213.398438 C 93.117188 213.847656 93.074219 214.292969 92.988281 214.734375 C 92.898438 215.175781 92.769531 215.601562 92.597656 216.019531 C 92.425781 216.433594 92.214844 216.828125 91.964844 217.199219 C 91.714844 217.574219 91.429688 217.921875 91.113281 218.238281 C 90.792969 218.554688 90.449219 218.839844 90.074219 219.089844 C 89.699219 219.339844 89.304688 219.550781 88.890625 219.722656 C 88.476562 219.894531 88.046875 220.023438 87.605469 220.109375 C 87.164062 220.199219 86.71875 220.242188 86.269531 220.242188 L 17.746094 220.242188 C 17.296875 220.242188 16.851562 220.199219 16.410156 220.109375 C 15.96875 220.023438 15.539062 219.894531 15.125 219.722656 C 14.707031 219.550781 14.3125 219.339844 13.941406 219.089844 C 13.566406 218.839844 13.21875 218.554688 12.902344 218.238281 C 12.582031 217.921875 12.300781 217.574219 12.050781 217.199219 C 11.800781 216.828125 11.589844 216.433594 11.417969 216.019531 C 11.246094 215.601562 11.113281 215.175781 11.027344 214.734375 C 10.9375 214.292969 10.894531 213.847656 10.894531 213.398438 L 10.894531 213.046875 C 10.894531 212.597656 10.9375 212.152344 11.027344 211.710938 C 11.113281 211.269531 11.246094 210.839844 11.417969 210.425781 C 11.589844 210.011719 11.800781 209.617188 12.050781 209.242188 C 12.300781 208.871094 12.582031 208.523438 12.902344 208.207031 C 13.21875 207.886719 13.566406 207.605469 13.941406 207.355469 C 14.3125 207.105469 14.707031 206.894531 15.125 206.722656 C 15.539062 206.550781 15.96875 206.421875 16.410156 206.332031 C 16.851562 206.246094 17.296875 206.203125 17.746094 206.203125 Z M 17.746094 206.203125 " fill-opacity="1" fill-rule="nonzero"/><path fill="#1b3c68" d="M 6.851562 181.011719 L 49.582031 181.011719 C 50.035156 181.011719 50.480469 181.054688 50.921875 181.140625 C 51.359375 181.230469 51.789062 181.359375 52.207031 181.53125 C 52.621094 181.703125 53.015625 181.914062 53.390625 182.164062 C 53.761719 182.414062 54.109375 182.695312 54.425781 183.015625 C 54.746094 183.332031 55.03125 183.675781 55.277344 184.050781 C 55.527344 184.425781 55.738281 184.820312 55.914062 185.234375 C 56.085938 185.648438 56.214844 186.078125 56.300781 186.519531 C 56.390625 186.957031 56.433594 187.402344 56.433594 187.851562 L 56.433594 188.207031 C 56.433594 188.65625 56.390625 189.101562 56.300781 189.542969 C 56.214844 189.980469 56.085938 190.410156 55.914062 190.824219 C 55.738281 191.242188 55.527344 191.636719 55.277344 192.007812 C 55.03125 192.382812 54.746094 192.726562 54.425781 193.046875 C 54.109375 193.363281 53.761719 193.648438 53.390625 193.898438 C 53.015625 194.144531 52.621094 194.355469 52.207031 194.527344 C 51.789062 194.699219 51.359375 194.832031 50.921875 194.917969 C 50.480469 195.007812 50.035156 195.050781 49.582031 195.050781 L 6.851562 195.050781 C 6.398438 195.050781 5.953125 195.007812 5.511719 194.917969 C 5.074219 194.832031 4.644531 194.699219 4.226562 194.527344 C 3.8125 194.355469 3.417969 194.144531 3.042969 193.898438 C 2.671875 193.648438 2.324219 193.363281 2.007812 193.046875 C 1.6875 192.726562 1.402344 192.382812 1.15625 192.007812 C 0.90625 191.636719 0.695312 191.242188 0.519531 190.824219 C 0.347656 190.410156 0.21875 189.980469 0.132812 189.542969 C 0.0429688 189.101562 0 188.65625 0 188.207031 L 0 187.851562 C 0 187.402344 0.0429688 186.957031 0.132812 186.519531 C 0.21875 186.078125 0.347656 185.648438 0.519531 185.234375 C 0.695312 184.820312 0.90625 184.425781 1.15625 184.050781 C 1.402344 183.675781 1.6875 183.332031 2.007812 183.015625 C 2.324219 182.695312 2.671875 182.414062 3.042969 182.164062 C 3.417969 181.914062 3.8125 181.703125 4.226562 181.53125 C 4.644531 181.359375 5.074219 181.230469 5.511719 181.140625 C 5.953125 181.054688 6.398438 181.011719 6.851562 181.011719 Z M 6.851562 181.011719 " fill-opacity="1" fill-rule="nonzero"/><path fill="#29c6cd" d="M 71.753906 181.011719 L 114.488281 181.011719 C 114.9375 181.011719 115.382812 181.054688 115.824219 181.140625 C 116.265625 181.230469 116.695312 181.359375 117.109375 181.53125 C 117.527344 181.703125 117.921875 181.914062 118.296875 182.164062 C 118.667969 182.414062 119.015625 182.695312 119.332031 183.015625 C 119.652344 183.332031 119.933594 183.675781 120.183594 184.050781 C 120.433594 184.425781 120.644531 184.820312 120.816406 185.234375 C 120.988281 185.648438 121.121094 186.078125 121.207031 186.519531 C 121.296875 186.957031 121.339844 187.402344 121.339844 187.851562 L 121.339844 188.207031 C 121.339844 188.65625 121.296875 189.101562 121.207031 189.542969 C 121.121094 189.980469 120.988281 190.410156 120.816406 190.824219 C 120.644531 191.242188 120.433594 191.636719 120.183594 192.007812 C 119.933594 192.382812 119.652344 192.726562 119.332031 193.046875 C 119.015625 193.363281 118.667969 193.648438 118.296875 193.898438 C 117.921875 194.144531 117.527344 194.355469 117.109375 194.527344 C 116.695312 194.699219 116.265625 194.832031 115.824219 194.917969 C 115.382812 195.007812 114.9375 195.050781 114.488281 195.050781 L 71.753906 195.050781 C 71.304688 195.050781 70.859375 195.007812 70.417969 194.917969 C 69.976562 194.832031 69.550781 194.699219 69.132812 194.527344 C 68.71875 194.355469 68.324219 194.144531 67.949219 193.898438 C 67.574219 193.648438 67.230469 193.363281 66.910156 193.046875 C 66.59375 192.726562 66.308594 192.382812 66.058594 192.007812 C 65.808594 191.636719 65.597656 191.242188 65.425781 190.824219 C 65.253906 190.410156 65.125 189.980469 65.039062 189.542969 C 64.949219 189.101562 64.90625 188.65625 64.90625 188.207031 L 64.90625 187.851562 C 64.90625 187.402344 64.949219 186.957031 65.039062 186.519531 C 65.125 186.078125 65.253906 185.648438 65.425781 185.234375 C 65.597656 184.820312 65.808594 184.425781 66.058594 184.050781 C 66.308594 183.675781 66.59375 183.332031 66.910156 183.015625 C 67.230469 182.695312 67.574219 182.414062 67.949219 182.164062 C 68.324219 181.914062 68.71875 181.703125 69.132812 181.53125 C 69.550781 181.359375 69.976562 181.230469 70.417969 181.140625 C 70.859375 181.054688 71.304688 181.011719 71.753906 181.011719 Z M 71.753906 181.011719 " fill-opacity="1" fill-rule="nonzero"/><path fill="#1b3c68" d="M 107.125 206.203125 L 120.890625 206.203125 C 121.339844 206.203125 121.789062 206.246094 122.226562 206.332031 C 122.667969 206.421875 123.097656 206.550781 123.511719 206.722656 C 123.929688 206.894531 124.324219 207.105469 124.699219 207.355469 C 125.070312 207.605469 125.417969 207.886719 125.734375 208.207031 C 126.054688 208.523438 126.335938 208.871094 126.585938 209.242188 C 126.835938 209.617188 127.046875 210.011719 127.21875 210.425781 C 127.390625 210.839844 127.523438 211.269531 127.609375 211.710938 C 127.699219 212.152344 127.742188 212.597656 127.742188 213.046875 L 127.742188 213.398438 C 127.742188 213.847656 127.699219 214.292969 127.609375 214.734375 C 127.523438 215.175781 127.390625 215.601562 127.21875 216.019531 C 127.046875 216.433594 126.835938 216.828125 126.585938 217.199219 C 126.335938 217.574219 126.054688 217.921875 125.734375 218.238281 C 125.417969 218.554688 125.070312 218.839844 124.699219 219.089844 C 124.324219 219.339844 123.929688 219.550781 123.511719 219.722656 C 123.097656 219.894531 122.667969 220.023438 122.226562 220.109375 C 121.789062 220.199219 121.339844 220.242188 120.890625 220.242188 L 107.125 220.242188 C 106.675781 220.242188 106.230469 220.199219 105.789062 220.109375 C 105.347656 220.023438 104.917969 219.894531 104.503906 219.722656 C 104.089844 219.550781 103.695312 219.339844 103.320312 219.089844 C 102.945312 218.839844 102.601562 218.554688 102.28125 218.238281 C 101.964844 217.921875 101.679688 217.574219 101.429688 217.199219 C 101.179688 216.828125 100.96875 216.433594 100.796875 216.019531 C 100.625 215.601562 100.496094 215.175781 100.40625 214.734375 C 100.320312 214.292969 100.277344 213.847656 100.277344 213.398438 L 100.277344 213.046875 C 100.277344 212.597656 100.320312 212.152344 100.40625 211.710938 C 100.496094 211.269531 100.625 210.839844 100.796875 210.425781 C 100.96875 210.011719 101.179688 209.617188 101.429688 209.242188 C 101.679688 208.871094 101.964844 208.523438 102.28125 208.207031 C 102.601562 207.886719 102.945312 207.605469 103.320312 207.355469 C 103.695312 207.105469 104.089844 206.894531 104.503906 206.722656 C 104.917969 206.550781 105.347656 206.421875 105.789062 206.332031 C 106.230469 206.246094 106.675781 206.203125 107.125 206.203125 Z M 107.125 206.203125 " fill-opacity="1" fill-rule="nonzero"/><path fill="#1b3c68" d="M 13.894531 155.296875 L 27.660156 155.296875 C 28.109375 155.296875 28.554688 155.339844 28.996094 155.429688 C 29.4375 155.515625 29.863281 155.644531 30.28125 155.816406 C 30.695312 155.992188 31.089844 156.199219 31.464844 156.449219 C 31.839844 156.699219 32.183594 156.984375 32.503906 157.300781 C 32.820312 157.621094 33.105469 157.964844 33.355469 158.339844 C 33.605469 158.710938 33.816406 159.105469 33.988281 159.523438 C 34.160156 159.9375 34.289062 160.363281 34.378906 160.804688 C 34.464844 161.246094 34.507812 161.691406 34.507812 162.140625 L 34.507812 162.496094 C 34.507812 162.945312 34.464844 163.386719 34.378906 163.828125 C 34.289062 164.269531 34.160156 164.699219 33.988281 165.113281 C 33.816406 165.527344 33.605469 165.921875 33.355469 166.296875 C 33.105469 166.667969 32.820312 167.015625 32.503906 167.332031 C 32.183594 167.652344 31.839844 167.933594 31.464844 168.183594 C 31.089844 168.433594 30.695312 168.644531 30.28125 168.816406 C 29.863281 168.988281 29.4375 169.117188 28.996094 169.207031 C 28.554688 169.292969 28.109375 169.335938 27.660156 169.335938 L 13.894531 169.335938 C 13.441406 169.335938 12.996094 169.292969 12.558594 169.207031 C 12.117188 169.117188 11.6875 168.988281 11.273438 168.816406 C 10.855469 168.644531 10.460938 168.433594 10.085938 168.183594 C 9.714844 167.933594 9.367188 167.652344 9.050781 167.332031 C 8.730469 167.015625 8.449219 166.667969 8.199219 166.296875 C 7.949219 165.921875 7.738281 165.527344 7.566406 165.113281 C 7.394531 164.699219 7.261719 164.269531 7.175781 163.828125 C 7.085938 163.386719 7.042969 162.945312 7.042969 162.496094 L 7.042969 162.140625 C 7.042969 161.691406 7.085938 161.246094 7.175781 160.804688 C 7.261719 160.363281 7.394531 159.9375 7.566406 159.523438 C 7.738281 159.105469 7.949219 158.710938 8.199219 158.339844 C 8.449219 157.964844 8.730469 157.621094 9.050781 157.300781 C 9.367188 156.984375 9.714844 156.699219 10.085938 156.449219 C 10.460938 156.199219 10.855469 155.992188 11.273438 155.816406 C 11.6875 155.644531 12.117188 155.515625 12.558594 155.429688 C 12.996094 155.339844 13.441406 155.296875 13.894531 155.296875 Z M 13.894531 155.296875 " fill-opacity="1" fill-rule="nonzero"/></svg>