<svg xmlns="http://www.w3.org/2000/svg" xmlns:xlink="http://www.w3.org/1999/xlink" width="500" zoomAndPan="magnify" viewBox="0 0 375 374.999991" height="500" preserveAspectRatio="xMidYMid meet" version="1.0"><defs><clipPath id="id1"><path d="M 3.046875 197 L 105 197 L 105 299 L 3.046875 299 Z M 3.046875 197 " clip-rule="nonzero"/></clipPath></defs><path fill="#a1d4db" d="M 60.394531 375 L 47.679688 375 L 47.679688 292.371094 L 60.394531 292.371094 L 60.394531 375 " fill-opacity="1" fill-rule="nonzero"/><path fill="#a1d4db" d="M 174.832031 171.609375 L 200.261719 171.609375 L 200.261719 254.238281 L 174.832031 254.238281 L 174.832031 171.609375 " fill-opacity="1" fill-rule="nonzero"/><path fill="#75c9c1" d="M 276.550781 88.984375 C 276.550781 39.847656 236.695312 0 187.546875 0 C 138.398438 0 98.542969 39.847656 98.542969 88.984375 C 98.542969 138.117188 138.398438 177.964844 187.546875 177.964844 C 236.695312 177.964844 276.550781 138.117188 276.550781 88.984375 " fill-opacity="1" fill-rule="nonzero"/><path fill="#ffd33f" d="M 187.546875 82.628906 C 177.015625 82.628906 168.472656 74.085938 168.472656 63.558594 C 168.472656 53.03125 177.015625 44.492188 187.546875 44.492188 C 198.078125 44.492188 206.621094 53.03125 206.621094 63.558594 L 219.335938 63.558594 C 219.335938 48.214844 208.40625 35.378906 193.90625 32.425781 L 193.90625 19.066406 L 181.1875 19.066406 L 181.1875 32.425781 C 166.6875 35.378906 155.757812 48.214844 155.757812 63.558594 C 155.757812 81.085938 170.015625 95.339844 187.546875 95.339844 C 198.078125 95.339844 206.621094 103.878906 206.621094 114.40625 C 206.621094 124.933594 198.078125 133.472656 187.546875 133.472656 C 177.015625 133.472656 168.472656 124.933594 168.472656 114.40625 L 155.757812 114.40625 C 155.757812 129.75 166.6875 142.585938 181.1875 145.539062 L 181.1875 158.898438 L 193.90625 158.898438 L 193.90625 145.539062 C 208.40625 142.585938 219.335938 129.75 219.335938 114.40625 C 219.335938 96.878906 205.078125 82.628906 187.546875 82.628906 " fill-opacity="1" fill-rule="nonzero"/><g clip-path="url(#id1)"><path fill="#75c9c1" d="M 104.898438 247.882812 C 104.898438 219.800781 82.125 197.035156 54.039062 197.035156 C 25.949219 197.035156 3.179688 219.800781 3.179688 247.882812 C 3.179688 275.960938 25.949219 298.730469 54.039062 298.730469 C 82.125 298.730469 104.898438 275.960938 104.898438 247.882812 " fill-opacity="1" fill-rule="nonzero"/></g><path fill="#a1d4db" d="M 327.414062 375 L 314.699219 375 L 314.699219 292.371094 L 327.414062 292.371094 L 327.414062 375 " fill-opacity="1" fill-rule="nonzero"/><path fill="#f2cba7" d="M 200.261719 254.238281 L 162.117188 254.238281 L 104.898438 305.085938 L 104.898438 368.644531 L 212.976562 368.644531 L 212.976562 266.949219 C 212.976562 259.921875 207.289062 254.238281 200.261719 254.238281 " fill-opacity="1" fill-rule="nonzero"/><path fill="#75c9c1" d="M 371.914062 247.882812 C 371.914062 219.800781 349.144531 197.035156 321.054688 197.035156 C 292.96875 197.035156 270.195312 219.800781 270.195312 247.882812 C 270.195312 275.960938 292.96875 298.730469 321.054688 298.730469 C 349.144531 298.730469 371.914062 275.960938 371.914062 247.882812 " fill-opacity="1" fill-rule="nonzero"/><path fill="#ffd33f" d="M 54.039062 241.523438 C 50.535156 241.523438 47.679688 238.671875 47.679688 235.167969 C 47.679688 231.667969 50.535156 228.8125 54.039062 228.8125 C 57.539062 228.8125 60.394531 231.667969 60.394531 235.167969 L 73.109375 235.167969 C 73.109375 226.902344 67.773438 219.898438 60.394531 217.269531 L 60.394531 209.746094 L 47.679688 209.746094 L 47.679688 217.269531 C 40.304688 219.898438 34.964844 226.902344 34.964844 235.167969 C 34.964844 245.695312 43.507812 254.238281 54.039062 254.238281 C 57.539062 254.238281 60.394531 257.09375 60.394531 260.59375 C 60.394531 264.09375 57.539062 266.949219 54.039062 266.949219 C 50.535156 266.949219 47.679688 264.09375 47.679688 260.59375 L 34.964844 260.59375 C 34.964844 268.859375 40.304688 275.863281 47.679688 278.492188 L 47.679688 286.015625 L 60.394531 286.015625 L 60.394531 278.492188 C 67.773438 275.863281 73.109375 268.859375 73.109375 260.59375 C 73.109375 250.066406 64.566406 241.523438 54.039062 241.523438 " fill-opacity="1" fill-rule="nonzero"/><path fill="#ffd33f" d="M 321.054688 241.523438 C 317.554688 241.523438 314.699219 238.671875 314.699219 235.167969 C 314.699219 231.667969 317.554688 228.8125 321.054688 228.8125 C 324.558594 228.8125 327.414062 231.667969 327.414062 235.167969 L 340.128906 235.167969 C 340.128906 226.902344 334.789062 219.898438 327.414062 217.269531 L 327.414062 209.746094 L 314.699219 209.746094 L 314.699219 217.269531 C 307.320312 219.898438 301.984375 226.902344 301.984375 235.167969 C 301.984375 245.695312 310.527344 254.238281 321.054688 254.238281 C 324.558594 254.238281 327.414062 257.09375 327.414062 260.59375 C 327.414062 264.09375 324.558594 266.949219 321.054688 266.949219 C 317.554688 266.949219 314.699219 264.09375 314.699219 260.59375 L 301.984375 260.59375 C 301.984375 268.859375 307.320312 275.863281 314.699219 278.492188 L 314.699219 286.015625 L 327.414062 286.015625 L 327.414062 278.492188 C 334.789062 275.863281 340.128906 268.859375 340.128906 260.59375 C 340.128906 250.066406 331.585938 241.523438 321.054688 241.523438 " fill-opacity="1" fill-rule="nonzero"/><path fill="#f2cba7" d="M 200.261719 292.371094 L 225.691406 292.371094 C 232.71875 292.371094 238.40625 298.058594 238.40625 305.085938 C 238.40625 312.109375 232.71875 317.796875 225.691406 317.796875 L 200.261719 317.796875 C 193.234375 317.796875 187.546875 312.109375 187.546875 305.085938 C 187.546875 298.058594 193.234375 292.371094 200.261719 292.371094 " fill-opacity="1" fill-rule="nonzero"/><path fill="#f2cba7" d="M 200.261719 317.796875 L 225.691406 317.796875 C 232.71875 317.796875 238.40625 323.480469 238.40625 330.507812 C 238.40625 337.535156 232.71875 343.21875 225.691406 343.21875 L 200.261719 343.21875 C 193.234375 343.21875 187.546875 337.535156 187.546875 330.507812 C 187.546875 323.480469 193.234375 317.796875 200.261719 317.796875 " fill-opacity="1" fill-rule="nonzero"/><path fill="#f2cba7" d="M 200.261719 343.21875 L 225.691406 343.21875 C 232.71875 343.21875 238.40625 348.90625 238.40625 355.933594 C 238.40625 362.957031 232.71875 368.644531 225.691406 368.644531 L 200.261719 368.644531 C 193.234375 368.644531 187.546875 362.957031 187.546875 355.933594 C 187.546875 348.90625 193.234375 343.21875 200.261719 343.21875 " fill-opacity="1" fill-rule="nonzero"/><path fill="#f2cba7" d="M 200.261719 266.949219 L 225.691406 266.949219 C 232.71875 266.949219 238.40625 272.632812 238.40625 279.660156 C 238.40625 286.6875 232.71875 292.371094 225.691406 292.371094 L 200.261719 292.371094 C 193.234375 292.371094 187.546875 286.6875 187.546875 279.660156 C 187.546875 272.632812 193.234375 266.949219 200.261719 266.949219 " fill-opacity="1" fill-rule="nonzero"/><path fill="#e1b494" d="M 187.546875 355.933594 C 187.546875 362.957031 193.234375 368.644531 200.261719 368.644531 L 225.691406 368.644531 C 225.691406 361.617188 220.003906 355.933594 212.976562 355.933594 L 187.546875 355.933594 " fill-opacity="1" fill-rule="nonzero"/><path fill="#e1b494" d="M 187.546875 330.507812 C 187.546875 337.535156 193.234375 343.21875 200.261719 343.21875 L 225.691406 343.21875 C 225.691406 336.195312 220.003906 330.507812 212.976562 330.507812 L 187.546875 330.507812 " fill-opacity="1" fill-rule="nonzero"/><path fill="#e1b494" d="M 187.546875 279.660156 C 187.546875 286.6875 193.234375 292.371094 200.261719 292.371094 L 225.691406 292.371094 C 225.691406 285.347656 220.003906 279.660156 212.976562 279.660156 L 187.546875 279.660156 " fill-opacity="1" fill-rule="nonzero"/><path fill="#e1b494" d="M 187.546875 305.085938 C 187.546875 312.109375 193.234375 317.796875 200.261719 317.796875 L 225.691406 317.796875 C 225.691406 310.769531 220.003906 305.085938 212.976562 305.085938 L 187.546875 305.085938 " fill-opacity="1" fill-rule="nonzero"/><path fill="#f2cba7" d="M 181.1875 286.015625 L 181.1875 301.90625 C 181.1875 310.695312 188.292969 317.796875 197.082031 317.796875 C 205.875 317.796875 212.976562 310.695312 212.976562 301.90625 L 212.976562 266.949219 C 212.976562 259.921875 207.289062 254.238281 200.261719 254.238281 L 162.117188 254.238281 L 181.1875 286.015625 " fill-opacity="1" fill-rule="nonzero"/><path fill="#e1b494" d="M 197.082031 317.796875 L 197.082031 301.90625 C 197.082031 293.117188 189.980469 286.015625 181.1875 286.015625 L 181.1875 301.90625 C 181.1875 310.695312 188.292969 317.796875 197.082031 317.796875 " fill-opacity="1" fill-rule="nonzero"/></svg>