<svg xmlns="http://www.w3.org/2000/svg" xmlns:xlink="http://www.w3.org/1999/xlink" width="500" zoomAndPan="magnify" viewBox="0 0 375 374.999991" height="500" preserveAspectRatio="xMidYMid meet" version="1.0"><defs><clipPath id="id1"><path d="M 0 0.851562 L 374 0.851562 L 374 375 L 0 375 Z M 0 0.851562 " clip-rule="nonzero"/></clipPath><clipPath id="id2"><path d="M 90 90 L 309 90 L 309 310 L 90 310 Z M 90 90 " clip-rule="nonzero"/></clipPath><clipPath id="id3"><path d="M 167.28125 90.976562 L 308.75 232.445312 L 231.585938 309.609375 L 90.117188 168.140625 Z M 167.28125 90.976562 " clip-rule="nonzero"/></clipPath><linearGradient x1="7.506849" gradientTransform="matrix(12.860823, 0, 0, 12.860823, -6.430407, -5.57812)" y1="7.507849" x2="24.506849" gradientUnits="userSpaceOnUse" y2="24.507848" id="id4"><stop stop-opacity="1" stop-color="rgb(56.898499%, 71.398926%, 85.499573%)" offset="0"/><stop stop-opacity="1" stop-color="rgb(56.898499%, 71.398926%, 85.499573%)" offset="0.125"/><stop stop-opacity="1" stop-color="rgb(56.764221%, 71.30127%, 85.455322%)" offset="0.1875"/><stop stop-opacity="1" stop-color="rgb(56.442261%, 71.06781%, 85.350037%)" offset="0.203125"/><stop stop-opacity="1" stop-color="rgb(56.062317%, 70.791626%, 85.22644%)" offset="0.21875"/><stop stop-opacity="1" stop-color="rgb(55.683899%, 70.516968%, 85.10437%)" offset="0.234375"/><stop stop-opacity="1" stop-color="rgb(55.303955%, 70.240784%, 84.980774%)" offset="0.25"/><stop stop-opacity="1" stop-color="rgb(54.925537%, 69.966125%, 84.857178%)" offset="0.265625"/><stop stop-opacity="1" stop-color="rgb(54.545593%, 69.689941%, 84.735107%)" offset="0.28125"/><stop stop-opacity="1" stop-color="rgb(54.167175%, 69.415283%, 84.611511%)" offset="0.296875"/><stop stop-opacity="1" stop-color="rgb(53.788757%, 69.140625%, 84.487915%)" offset="0.3125"/><stop stop-opacity="1" stop-color="rgb(53.408813%, 68.864441%, 84.364319%)" offset="0.328125"/><stop stop-opacity="1" stop-color="rgb(53.030396%, 68.589783%, 84.242249%)" offset="0.34375"/><stop stop-opacity="1" stop-color="rgb(52.650452%, 68.313599%, 84.118652%)" offset="0.359375"/><stop stop-opacity="1" stop-color="rgb(52.272034%, 68.03894%, 83.995056%)" offset="0.375"/><stop stop-opacity="1" stop-color="rgb(51.89209%, 67.764282%, 83.872986%)" offset="0.390625"/><stop stop-opacity="1" stop-color="rgb(51.513672%, 67.488098%, 83.74939%)" offset="0.40625"/><stop stop-opacity="1" stop-color="rgb(51.133728%, 67.21344%, 83.625793%)" offset="0.421875"/><stop stop-opacity="1" stop-color="rgb(50.75531%, 66.937256%, 83.502197%)" offset="0.4375"/><stop stop-opacity="1" stop-color="rgb(50.375366%, 66.662598%, 83.380127%)" offset="0.453125"/><stop stop-opacity="1" stop-color="rgb(49.996948%, 66.387939%, 83.256531%)" offset="0.46875"/><stop stop-opacity="1" stop-color="rgb(49.61853%, 66.111755%, 83.132935%)" offset="0.484375"/><stop stop-opacity="1" stop-color="rgb(49.238586%, 65.837097%, 83.010864%)" offset="0.5"/><stop stop-opacity="1" stop-color="rgb(49.049377%, 65.699768%, 82.949829%)" offset="0.5"/><stop stop-opacity="1" stop-color="rgb(48.860168%, 65.560913%, 82.887268%)" offset="0.5"/><stop stop-opacity="1" stop-color="rgb(48.670959%, 65.423584%, 82.826233%)" offset="0.515625"/><stop stop-opacity="1" stop-color="rgb(48.480225%, 65.286255%, 82.763672%)" offset="0.53125"/><stop stop-opacity="1" stop-color="rgb(48.101807%, 65.011597%, 82.641602%)" offset="0.546875"/><stop stop-opacity="1" stop-color="rgb(47.721863%, 64.735413%, 82.518005%)" offset="0.5625"/><stop stop-opacity="1" stop-color="rgb(47.343445%, 64.460754%, 82.394409%)" offset="0.578125"/><stop stop-opacity="1" stop-color="rgb(46.963501%, 64.18457%, 82.270813%)" offset="0.59375"/><stop stop-opacity="1" stop-color="rgb(46.585083%, 63.909912%, 82.148743%)" offset="0.609375"/><stop stop-opacity="1" stop-color="rgb(46.205139%, 63.633728%, 82.025146%)" offset="0.625"/><stop stop-opacity="1" stop-color="rgb(45.826721%, 63.35907%, 81.90155%)" offset="0.640625"/><stop stop-opacity="1" stop-color="rgb(45.446777%, 63.084412%, 81.77948%)" offset="0.65625"/><stop stop-opacity="1" stop-color="rgb(45.068359%, 62.808228%, 81.655884%)" offset="0.671875"/><stop stop-opacity="1" stop-color="rgb(44.689941%, 62.533569%, 81.532288%)" offset="0.6875"/><stop stop-opacity="1" stop-color="rgb(44.309998%, 62.257385%, 81.408691%)" offset="0.703125"/><stop stop-opacity="1" stop-color="rgb(43.93158%, 61.982727%, 81.286621%)" offset="0.71875"/><stop stop-opacity="1" stop-color="rgb(43.551636%, 61.708069%, 81.163025%)" offset="0.734375"/><stop stop-opacity="1" stop-color="rgb(43.173218%, 61.431885%, 81.039429%)" offset="0.75"/><stop stop-opacity="1" stop-color="rgb(42.793274%, 61.157227%, 80.917358%)" offset="0.765625"/><stop stop-opacity="1" stop-color="rgb(42.414856%, 60.881042%, 80.793762%)" offset="0.78125"/><stop stop-opacity="1" stop-color="rgb(42.034912%, 60.606384%, 80.670166%)" offset="0.796875"/><stop stop-opacity="1" stop-color="rgb(41.656494%, 60.331726%, 80.54657%)" offset="0.8125"/><stop stop-opacity="1" stop-color="rgb(41.333008%, 60.096741%, 80.441284%)" offset="0.875"/><stop stop-opacity="1" stop-color="rgb(41.19873%, 59.999084%, 80.39856%)" offset="1"/></linearGradient></defs><g clip-path="url(#id1)"><path fill="#888a85" d="M 11.746094 0.550781 C 4.90625 1.199219 -0.3125 6.941406 -0.308594 13.8125 L -0.308594 142.421875 C -0.285156 145.914062 1.234375 149.199219 3.710938 151.664062 L 222.34375 370.296875 C 227.535156 375.410156 235.640625 375.410156 240.832031 370.296875 L 369.4375 241.691406 C 374.550781 236.5 374.550781 228.394531 369.4375 223.203125 L 150.804688 4.570312 C 148.339844 2.09375 145.054688 0.574219 141.5625 0.550781 Z M 77.257812 52.394531 C 91.457031 52.394531 102.980469 63.917969 102.980469 78.117188 C 102.980469 92.316406 91.457031 103.839844 77.257812 103.839844 C 63.058594 103.839844 51.535156 92.316406 51.535156 78.117188 C 51.535156 63.917969 63.058594 52.394531 77.257812 52.394531 Z M 77.257812 52.394531 " fill-opacity="1" fill-rule="nonzero"/></g><path fill="#eeeeec" d="M 12.953125 13.8125 L 12.953125 142.421875 L 231.585938 361.054688 L 360.195312 232.445312 L 141.5625 13.8125 Z M 77.257812 52.394531 C 91.457031 52.394531 102.980469 63.917969 102.980469 78.117188 C 102.980469 92.316406 91.457031 103.839844 77.257812 103.839844 C 63.058594 103.839844 51.535156 92.316406 51.535156 78.117188 C 51.535156 63.917969 63.058594 52.394531 77.257812 52.394531 Z M 77.257812 52.394531 " fill-opacity="1" fill-rule="nonzero"/><path fill="#888a85" d="M 77.257812 43.152344 C 57.949219 43.152344 42.292969 58.808594 42.292969 78.117188 C 42.292969 97.425781 57.949219 113.082031 77.257812 113.082031 C 96.566406 113.082031 112.222656 97.425781 112.222656 78.117188 C 112.222656 58.808594 96.566406 43.152344 77.257812 43.152344 Z M 77.257812 52.394531 C 91.457031 52.394531 102.980469 63.917969 102.980469 78.117188 C 102.980469 92.316406 91.457031 103.839844 77.257812 103.839844 C 63.058594 103.839844 51.535156 92.316406 51.535156 78.117188 C 51.535156 63.917969 63.058594 52.394531 77.257812 52.394531 Z M 77.257812 52.394531 " fill-opacity="1" fill-rule="nonzero"/><g clip-path="url(#id2)"><g clip-path="url(#id3)"><path fill="url(#id4)" d="M 90.117188 90.976562 L 90.117188 309.609375 L 308.75 309.609375 L 308.75 90.976562 Z M 90.117188 90.976562 " fill-rule="nonzero"/></g></g><path fill="#ffffff" d="M 157.542969 121.363281 C 154.015625 121.761719 150.640625 123.601562 148.378906 126.597656 L 157.910156 132.484375 C 158.441406 131.78125 158.855469 131.886719 159.375 131.828125 C 159.894531 131.769531 160.542969 131.652344 161.574219 132.15625 C 163.640625 133.164062 165.089844 135.140625 164.875 136.082031 L 165.242188 136.082031 C 160.925781 145.425781 168.570312 155.179688 179.535156 156.035156 L 179.535156 156.691406 C 186.160156 157.835938 191.285156 163.863281 193.097656 170.429688 L 193.832031 172.0625 L 195.296875 173.371094 C 199.582031 176.277344 203.992188 177.171875 207.027344 178.28125 C 210.0625 179.386719 211.152344 179.847656 211.792969 181.550781 L 212.160156 181.550781 C 211.957031 184.5625 211.808594 187.464844 213.257812 190.382812 C 214.953125 193.785156 218.375 196.636719 222.789062 198.234375 L 222.789062 198.558594 L 223.523438 198.886719 C 225.988281 199.945312 228.734375 201.304688 230.121094 202.484375 C 231.652344 203.792969 231.914062 204.164062 231.585938 205.757812 L 231.585938 207.066406 C 231.714844 210.839844 233.59375 213.90625 236.71875 216.222656 C 239.84375 218.542969 244.679688 219.90625 249.179688 218.1875 L 244.78125 208.375 C 244.414062 208.515625 244.507812 208.710938 244.050781 208.375 C 243.59375 208.035156 243.332031 207.191406 243.316406 206.738281 L 242.582031 206.738281 C 243.046875 202.003906 241.253906 197.582031 238.183594 194.960938 C 234.859375 192.125 230.984375 190.335938 227.921875 189.074219 L 227.1875 189.074219 C 225.222656 188.492188 224.5625 187.480469 223.890625 186.128906 C 223.214844 184.777344 222.785156 182.980469 223.15625 180.898438 L 223.523438 179.589844 L 223.15625 178.28125 C 221.109375 172.824219 215.519531 169.957031 211.425781 168.464844 C 207.472656 167.027344 204.664062 165.90625 202.996094 164.867188 L 202.628906 164.867188 C 199.320312 156.472656 192.855469 148.476562 181.734375 146.550781 L 181.371094 146.222656 L 180.636719 146.222656 C 176.550781 146.304688 173.492188 143.054688 175.503906 139.679688 L 176.238281 139.027344 L 176.238281 138.371094 C 177.769531 131.636719 173.085938 125.75 167.441406 123 C 164.617188 121.621094 161.074219 120.964844 157.542969 121.363281 Z M 157.542969 121.363281 " fill-opacity="1" fill-rule="evenodd"/><path fill="#ffffff" d="M 142.21875 151.273438 C 136.074219 148.4375 128.703125 148.089844 122.359375 152.042969 L 128.472656 162.820312 C 133.238281 159.851562 141.410156 163.886719 142.601562 169.367188 L 142.984375 170.523438 L 143.746094 171.675781 C 144.953125 173.324219 145.0625 175.972656 144.894531 180.53125 C 144.726562 185.089844 144.578125 191.664062 149.476562 197.085938 L 149.859375 197.855469 L 150.621094 198.242188 C 157.046875 202.65625 164.003906 204.371094 169.71875 206.710938 C 175.429688 209.050781 179.34375 211.589844 181.9375 215.949219 L 182.703125 217.105469 L 183.847656 217.875 C 194.988281 225.238281 202.40625 238.042969 207.910156 251.367188 L 208.289062 251.753906 L 208.289062 252.140625 C 211.652344 257.695312 217.050781 260.226562 221.277344 262.148438 C 225.5 264.074219 228.769531 265.691406 230.824219 267.539062 L 231.585938 266.769531 L 241.136719 270.617188 C 242.328125 267.375 242.351562 263.121094 239.988281 259.453125 L 239.605469 258.683594 L 239.226562 258.296875 C 234.867188 254.382812 229.917969 252.660156 226.242188 250.984375 C 222.5625 249.308594 220.355469 247.863281 218.984375 245.59375 C 213.402344 232.253906 205.339844 218.742188 192.632812 209.40625 C 191.886719 208.859375 191.5 207.996094 190.722656 207.480469 L 190.339844 207.867188 C 185.796875 201.882812 180.039062 197.894531 174.300781 195.546875 C 168.078125 193 162.433594 190.902344 158.261719 188.230469 C 157.207031 186.730469 156.96875 184.875 157.113281 180.917969 C 157.253906 177.152344 156.644531 171.773438 154.058594 166.671875 L 154.824219 166.671875 C 154.714844 166.179688 154.199219 165.992188 154.058594 165.515625 C 153.804688 165.097656 153.980469 164.777344 153.675781 164.363281 L 153.296875 164.746094 C 151.238281 158.871094 147.605469 153.757812 142.21875 151.273438 Z M 142.21875 151.273438 " fill-opacity="1" fill-rule="evenodd"/></svg>