<svg xmlns="http://www.w3.org/2000/svg" xmlns:xlink="http://www.w3.org/1999/xlink" width="500" zoomAndPan="magnify" viewBox="0 0 375 374.999991" height="500" preserveAspectRatio="xMidYMid meet" version="1.0"><path fill="#e6e7e8" d="M 341.898438 23.855469 L 57.121094 23.855469 C 32.667969 23.855469 12.769531 43.722656 12.769531 68.148438 L 12.769531 249.902344 C 12.769531 274.332031 32.667969 294.210938 57.121094 294.210938 L 158.273438 294.210938 L 158.273438 360.164062 C 158.273438 361.421875 158.996094 362.554688 160.144531 363.078125 C 160.566406 363.265625 161.015625 363.351562 161.464844 363.351562 C 162.226562 363.351562 162.972656 363.078125 163.574219 362.554688 L 241.03125 294.210938 L 341.898438 294.210938 C 366.347656 294.210938 386.25 274.332031 386.25 249.902344 L 386.25 68.148438 C 386.25 43.722656 366.347656 23.855469 341.898438 23.855469 " fill-opacity="1" fill-rule="nonzero"/><path fill="#d4fbff" d="M 329.128906 14.289062 L 44.351562 14.289062 C 21.621094 14.289062 3.191406 32.6875 3.191406 55.394531 L 3.191406 237.148438 C 3.191406 259.855469 21.621094 278.265625 44.351562 278.265625 L 148.695312 278.265625 L 148.695312 347.410156 L 227.054688 278.265625 L 329.128906 278.265625 C 351.859375 278.265625 370.289062 259.855469 370.289062 237.148438 L 370.289062 55.394531 C 370.289062 32.6875 351.859375 14.289062 329.128906 14.289062 " fill-opacity="1" fill-rule="nonzero"/><path fill="#6dc9f7" d="M 184.609375 174.410156 C 184.609375 214.914062 151.738281 247.75 111.1875 247.75 C 70.652344 247.75 37.769531 214.914062 37.769531 174.410156 C 37.769531 133.902344 70.652344 101.070312 111.1875 101.070312 C 151.738281 101.070312 184.609375 133.902344 184.609375 174.410156 " fill-opacity="1" fill-rule="nonzero"/><path fill="#ffffff" d="M 111.1875 110.636719 C 150.128906 110.636719 181.976562 140.914062 184.445312 179.191406 C 184.546875 177.609375 184.609375 176.015625 184.609375 174.410156 C 184.609375 133.902344 151.738281 101.070312 111.1875 101.070312 C 70.652344 101.070312 37.769531 133.902344 37.769531 174.410156 C 37.769531 176.015625 37.84375 177.609375 37.945312 179.191406 C 40.414062 140.914062 72.257812 110.636719 111.1875 110.636719 " fill-opacity="1" fill-rule="nonzero"/><path fill="#fa759e" d="M 56.871094 223.746094 C 70.300781 238.496094 89.667969 247.75 111.1875 247.75 C 132.722656 247.75 152.089844 238.496094 165.519531 223.746094 L 165.519531 214.855469 C 165.519531 200.753906 154.082031 189.34375 139.980469 189.34375 L 82.410156 189.34375 C 68.308594 189.34375 56.871094 200.753906 56.871094 214.855469 L 56.871094 223.746094 " fill-opacity="1" fill-rule="nonzero"/><path fill="#ffffff" d="M 145.316406 161.828125 C 145.316406 180.574219 130.042969 195.769531 111.1875 195.769531 C 92.347656 195.769531 77.058594 180.574219 77.058594 161.828125 C 77.058594 143.082031 92.347656 127.875 111.1875 127.875 C 130.042969 127.875 145.316406 143.082031 145.316406 161.828125 " fill-opacity="1" fill-rule="nonzero"/><path fill="#fa759e" d="M 81.398438 39.835938 L 88.792969 54.820312 L 105.339844 57.210938 L 93.371094 68.871094 L 96.199219 85.324219 L 81.398438 77.554688 L 66.597656 85.324219 L 69.429688 68.871094 L 57.457031 57.210938 L 74.003906 54.820312 L 81.398438 39.835938 " fill-opacity="1" fill-rule="nonzero"/><path fill="#fa759e" d="M 151.628906 39.835938 L 159.019531 54.820312 L 175.566406 57.210938 L 163.597656 68.871094 L 166.429688 85.324219 L 151.628906 77.554688 L 136.824219 85.324219 L 139.65625 68.871094 L 127.6875 57.210938 L 144.234375 54.820312 L 151.628906 39.835938 " fill-opacity="1" fill-rule="nonzero"/><path fill="#fa759e" d="M 221.855469 39.835938 L 229.25 54.820312 L 245.796875 57.210938 L 233.824219 68.871094 L 236.65625 85.324219 L 221.855469 77.554688 L 207.054688 85.324219 L 209.882812 68.871094 L 197.914062 57.210938 L 214.460938 54.820312 L 221.855469 39.835938 " fill-opacity="1" fill-rule="nonzero"/><path fill="#ffd7e5" d="M 292.082031 39.835938 L 299.476562 54.820312 L 316.023438 57.210938 L 304.050781 68.871094 L 306.882812 85.324219 L 292.082031 77.554688 L 277.28125 85.324219 L 280.109375 68.871094 L 268.140625 57.210938 L 284.6875 54.820312 L 292.082031 39.835938 " fill-opacity="1" fill-rule="nonzero"/><path fill="#3a2c60" d="M 329.128906 11.101562 L 241.40625 11.101562 C 239.648438 11.101562 238.214844 12.519531 238.214844 14.289062 C 238.214844 16.046875 239.648438 17.480469 241.40625 17.480469 L 329.128906 17.480469 C 350.0625 17.480469 367.097656 34.492188 367.097656 55.394531 L 367.097656 237.148438 C 367.097656 258.0625 350.0625 275.078125 329.128906 275.078125 L 227.054688 275.078125 C 226.269531 275.078125 225.519531 275.363281 224.933594 275.875 L 151.890625 340.347656 L 151.890625 278.265625 C 151.890625 276.496094 150.453125 275.078125 148.695312 275.078125 L 44.351562 275.078125 C 23.417969 275.078125 6.382812 258.0625 6.382812 237.148438 L 6.382812 55.394531 C 6.382812 34.492188 23.417969 17.480469 44.351562 17.480469 L 182.75 17.480469 C 184.507812 17.480469 185.941406 16.046875 185.941406 14.289062 C 185.941406 12.519531 184.507812 11.101562 182.75 11.101562 L 44.351562 11.101562 C 19.902344 11.101562 0 30.96875 0 55.394531 L 0 237.148438 C 0 261.574219 19.902344 281.453125 44.351562 281.453125 L 145.503906 281.453125 L 145.503906 347.410156 C 145.503906 348.667969 146.226562 349.800781 147.375 350.324219 C 147.800781 350.511719 148.246094 350.597656 148.695312 350.597656 C 149.457031 350.597656 150.207031 350.324219 150.804688 349.800781 L 228.261719 281.453125 L 329.128906 281.453125 C 353.582031 281.453125 373.480469 261.574219 373.480469 237.148438 L 373.480469 55.394531 C 373.480469 30.96875 353.582031 11.101562 329.128906 11.101562 " fill-opacity="1" fill-rule="nonzero"/><path fill="#3a2c60" d="M 197.515625 17.480469 L 226.640625 17.480469 C 228.402344 17.480469 229.835938 16.046875 229.835938 14.289062 C 229.835938 12.519531 228.402344 11.101562 226.640625 11.101562 L 197.515625 11.101562 C 195.757812 11.101562 194.320312 12.519531 194.320312 14.289062 C 194.320312 16.046875 195.757812 17.480469 197.515625 17.480469 " fill-opacity="1" fill-rule="nonzero"/><path fill="#3a2c60" d="M 111.1875 104.257812 C 149.917969 104.257812 181.417969 135.722656 181.417969 174.410156 C 181.417969 189.355469 176.703125 203.21875 168.699219 214.617188 C 168.558594 198.898438 155.742188 186.15625 139.980469 186.15625 L 139.320312 186.15625 C 145.03125 179.628906 148.507812 171.132812 148.507812 161.828125 C 148.507812 141.351562 131.777344 124.6875 111.1875 124.6875 C 90.613281 124.6875 73.867188 141.351562 73.867188 161.828125 C 73.867188 171.132812 77.359375 179.628906 83.058594 186.15625 L 82.410156 186.15625 C 66.648438 186.15625 53.816406 198.898438 53.691406 214.605469 C 45.6875 203.21875 40.960938 189.355469 40.960938 174.410156 C 40.960938 135.722656 72.472656 104.257812 111.1875 104.257812 Z M 111.1875 192.582031 C 94.132812 192.582031 80.253906 178.78125 80.253906 161.828125 C 80.253906 144.863281 94.132812 131.0625 111.1875 131.0625 C 128.246094 131.0625 142.125 144.863281 142.125 161.828125 C 142.125 178.78125 128.246094 192.582031 111.1875 192.582031 Z M 111.1875 244.5625 C 91.050781 244.5625 72.882812 236.027344 60.066406 222.425781 L 60.066406 214.855469 C 60.066406 202.546875 70.089844 192.53125 82.410156 192.53125 L 90.242188 192.53125 C 96.214844 196.582031 103.433594 198.960938 111.1875 198.960938 C 118.957031 198.960938 126.175781 196.582031 132.148438 192.53125 L 139.980469 192.53125 C 152.300781 192.53125 162.324219 202.546875 162.324219 214.855469 L 162.324219 222.425781 C 149.507812 236.027344 131.339844 244.5625 111.1875 244.5625 Z M 111.1875 250.9375 C 153.433594 250.9375 187.800781 216.609375 187.800781 174.410156 C 187.800781 132.210938 153.433594 97.882812 111.1875 97.882812 C 68.957031 97.882812 34.578125 132.210938 34.578125 174.410156 C 34.578125 216.609375 68.957031 250.9375 111.1875 250.9375 " fill-opacity="1" fill-rule="nonzero"/><path fill="#3a2c60" d="M 335.710938 219.050781 L 206.953125 219.050781 C 205.195312 219.050781 203.761719 220.472656 203.761719 222.238281 C 203.761719 223.996094 205.195312 225.429688 206.953125 225.429688 L 335.710938 225.429688 C 337.46875 225.429688 338.902344 223.996094 338.902344 222.238281 C 338.902344 220.472656 337.46875 219.050781 335.710938 219.050781 " fill-opacity="1" fill-rule="nonzero"/><path fill="#3a2c60" d="M 335.710938 187.164062 L 206.953125 187.164062 C 205.195312 187.164062 203.761719 188.585938 203.761719 190.351562 C 203.761719 192.109375 205.195312 193.542969 206.953125 193.542969 L 335.710938 193.542969 C 337.46875 193.542969 338.902344 192.109375 338.902344 190.351562 C 338.902344 188.585938 337.46875 187.164062 335.710938 187.164062 " fill-opacity="1" fill-rule="nonzero"/><path fill="#3a2c60" d="M 335.710938 155.277344 L 206.953125 155.277344 C 205.195312 155.277344 203.761719 156.699219 203.761719 158.464844 C 203.761719 160.222656 205.195312 161.65625 206.953125 161.65625 L 335.710938 161.65625 C 337.46875 161.65625 338.902344 160.222656 338.902344 158.464844 C 338.902344 156.699219 337.46875 155.277344 335.710938 155.277344 " fill-opacity="1" fill-rule="nonzero"/><path fill="#3a2c60" d="M 203.761719 126.578125 C 203.761719 128.335938 205.195312 129.769531 206.953125 129.769531 L 335.710938 129.769531 C 337.46875 129.769531 338.902344 128.335938 338.902344 126.578125 C 338.902344 124.808594 337.46875 123.390625 335.710938 123.390625 L 206.953125 123.390625 C 205.195312 123.390625 203.761719 124.808594 203.761719 126.578125 " fill-opacity="1" fill-rule="nonzero"/><path fill="#3a2c60" d="M 91.136719 66.59375 C 90.390625 67.3125 90.054688 68.375 90.226562 69.40625 L 91.960938 79.496094 L 82.882812 74.738281 C 82.421875 74.488281 81.910156 74.363281 81.398438 74.363281 C 80.886719 74.363281 80.378906 74.488281 79.914062 74.738281 L 70.839844 79.496094 L 72.570312 69.40625 C 72.746094 68.375 72.410156 67.3125 71.660156 66.59375 L 64.316406 59.441406 L 74.453125 57.972656 C 75.5 57.824219 76.398438 57.164062 76.859375 56.230469 L 81.398438 47.046875 L 85.9375 56.230469 C 86.398438 57.164062 87.296875 57.824219 88.332031 57.972656 L 98.484375 59.441406 Z M 108.382812 56.230469 C 107.996094 55.082031 107 54.234375 105.800781 54.0625 L 90.914062 51.90625 L 84.269531 38.429688 C 83.71875 37.332031 82.621094 36.648438 81.398438 36.648438 C 80.179688 36.648438 79.082031 37.332031 78.53125 38.429688 L 71.886719 51.90625 L 56.996094 54.0625 C 55.800781 54.234375 54.800781 55.082031 54.417969 56.230469 C 54.042969 57.386719 54.367188 58.65625 55.226562 59.492188 L 66 69.980469 L 63.457031 84.789062 C 63.257812 85.984375 63.742188 87.195312 64.726562 87.902344 C 65.714844 88.625 67.011719 88.714844 68.09375 88.152344 L 81.398438 81.164062 L 94.703125 88.152344 C 95.179688 88.402344 95.691406 88.515625 96.199219 88.515625 C 96.863281 88.515625 97.511719 88.316406 98.070312 87.902344 C 99.054688 87.195312 99.542969 85.984375 99.34375 84.789062 L 96.800781 69.980469 L 107.574219 59.492188 C 108.433594 58.65625 108.757812 57.386719 108.382812 56.230469 " fill-opacity="1" fill-rule="nonzero"/><path fill="#3a2c60" d="M 161.367188 66.59375 C 160.617188 67.3125 160.28125 68.375 160.457031 69.40625 L 162.1875 79.496094 L 153.109375 74.738281 C 152.648438 74.488281 152.136719 74.363281 151.628906 74.363281 C 151.117188 74.363281 150.605469 74.488281 150.144531 74.738281 L 141.066406 79.496094 L 142.796875 69.40625 C 142.972656 68.375 142.636719 67.3125 141.886719 66.59375 L 134.542969 59.441406 L 144.679688 57.972656 C 145.730469 57.824219 146.625 57.164062 147.089844 56.230469 L 151.628906 47.046875 L 156.164062 56.230469 C 156.628906 57.164062 157.523438 57.824219 158.558594 57.972656 L 168.710938 59.441406 Z M 178.609375 56.230469 C 178.222656 55.082031 177.226562 54.234375 176.03125 54.0625 L 161.140625 51.90625 L 154.496094 38.429688 C 153.945312 37.332031 152.847656 36.648438 151.628906 36.648438 C 150.40625 36.648438 149.308594 37.332031 148.757812 38.429688 L 142.113281 51.90625 L 127.222656 54.0625 C 126.027344 54.234375 125.03125 55.082031 124.644531 56.230469 C 124.269531 57.386719 124.59375 58.65625 125.453125 59.492188 L 136.226562 69.980469 L 133.683594 84.789062 C 133.484375 85.984375 133.96875 87.195312 134.957031 87.902344 C 135.941406 88.625 137.238281 88.714844 138.324219 88.152344 L 151.628906 81.164062 L 164.933594 88.152344 C 165.40625 88.402344 165.917969 88.515625 166.429688 88.515625 C 167.089844 88.515625 167.738281 88.316406 168.296875 87.902344 C 169.285156 87.195312 169.769531 85.984375 169.570312 84.789062 L 167.027344 69.980469 L 177.800781 59.492188 C 178.660156 58.65625 178.984375 57.386719 178.609375 56.230469 " fill-opacity="1" fill-rule="nonzero"/><path fill="#3a2c60" d="M 231.59375 66.59375 C 230.84375 67.3125 230.507812 68.375 230.683594 69.40625 L 232.414062 79.496094 L 223.339844 74.738281 C 222.875 74.488281 222.367188 74.363281 221.855469 74.363281 C 221.34375 74.363281 220.832031 74.488281 220.371094 74.738281 L 211.292969 79.496094 L 213.027344 69.40625 C 213.199219 68.375 212.863281 67.3125 212.117188 66.59375 L 204.769531 59.441406 L 214.921875 57.972656 C 215.957031 57.824219 216.855469 57.164062 217.316406 56.230469 L 221.855469 47.046875 L 226.394531 56.230469 C 226.855469 57.164062 227.753906 57.824219 228.800781 57.972656 L 238.9375 59.441406 Z M 246.257812 54.0625 L 231.367188 51.90625 L 224.722656 38.429688 C 223.636719 36.25 220.070312 36.25 218.988281 38.429688 L 212.339844 51.90625 L 197.453125 54.0625 C 196.253906 54.234375 195.257812 55.082031 194.871094 56.230469 C 194.496094 57.386719 194.820312 58.65625 195.679688 59.492188 L 206.453125 69.980469 L 203.910156 84.789062 C 203.710938 85.984375 204.199219 87.195312 205.183594 87.902344 C 206.167969 88.625 207.464844 88.714844 208.550781 88.152344 L 221.855469 81.164062 L 235.160156 88.152344 C 235.632812 88.402344 236.144531 88.515625 236.65625 88.515625 C 237.316406 88.515625 237.964844 88.316406 238.527344 87.902344 C 239.511719 87.195312 239.996094 85.984375 239.796875 84.789062 L 237.253906 69.980469 L 248.027344 59.492188 C 248.886719 58.65625 249.210938 57.386719 248.839844 56.230469 C 248.453125 55.082031 247.453125 54.234375 246.257812 54.0625 " fill-opacity="1" fill-rule="nonzero"/><path fill="#3a2c60" d="M 301.820312 66.59375 C 301.070312 67.3125 300.734375 68.375 300.910156 69.40625 L 302.644531 79.496094 L 293.566406 74.738281 C 293.105469 74.488281 292.59375 74.363281 292.082031 74.363281 C 291.570312 74.363281 291.058594 74.488281 290.597656 74.738281 L 281.519531 79.496094 L 283.253906 69.40625 C 283.429688 68.375 283.089844 67.3125 282.34375 66.59375 L 275 59.441406 L 285.148438 57.972656 C 286.183594 57.824219 287.082031 57.164062 287.542969 56.230469 L 292.082031 47.046875 L 296.621094 56.230469 C 297.082031 57.164062 297.980469 57.824219 299.027344 57.972656 L 309.164062 59.441406 Z M 319.050781 56.230469 C 318.679688 55.082031 317.679688 54.234375 316.484375 54.0625 L 301.59375 51.90625 L 294.949219 38.429688 C 293.863281 36.25 290.296875 36.25 289.214844 38.429688 L 282.566406 51.90625 L 267.679688 54.0625 C 266.480469 54.234375 265.484375 55.082031 265.097656 56.230469 C 264.722656 57.386719 265.046875 58.65625 265.910156 59.492188 L 276.683594 69.980469 L 274.136719 84.789062 C 273.9375 85.984375 274.425781 87.195312 275.410156 87.902344 C 276.394531 88.625 277.691406 88.714844 278.777344 88.152344 L 292.082031 81.164062 L 305.386719 88.152344 C 305.859375 88.402344 306.371094 88.515625 306.882812 88.515625 C 307.542969 88.515625 308.191406 88.316406 308.753906 87.902344 C 309.738281 87.195312 310.222656 85.984375 310.023438 84.789062 L 307.480469 69.980469 L 318.253906 59.492188 C 319.128906 58.65625 319.4375 57.386719 319.050781 56.230469 " fill-opacity="1" fill-rule="nonzero"/></svg>